<svg width="232" height="114" viewBox="0 0 232 114" fill="none" xmlns="http://www.w3.org/2000/svg">
<path opacity="0.5" fill-rule="evenodd" clip-rule="evenodd" d="M187 55.5C188.657 55.5 190 54.1569 190 52.5C190 50.8431 188.657 49.5 187 49.5C185.343 49.5 184 50.8431 184 52.5C184 54.1569 185.343 55.5 187 55.5Z" fill="#483FDD"/>
<path fill-rule="evenodd" clip-rule="evenodd" d="M183 12.5C186.314 12.5 189 9.81371 189 6.5C189 3.18629 186.314 0.5 183 0.5C179.686 0.5 177 3.18629 177 6.5C177 9.81371 179.686 12.5 183 12.5Z" fill="#483FDD"/>
<path opacity="0.5" fill-rule="evenodd" clip-rule="evenodd" d="M52 16.5C54.2091 16.5 56 14.7091 56 12.5C56 10.2909 54.2091 8.5 52 8.5C49.7909 8.5 48 10.2909 48 12.5C48 14.7091 49.7909 16.5 52 16.5Z" fill="#483FDD"/>
<path opacity="0.5" fill-rule="evenodd" clip-rule="evenodd" d="M6 53.5C9.31371 53.5 12 50.8137 12 47.5C12 44.1863 9.31371 41.5 6 41.5C2.68629 41.5 0 44.1863 0 47.5C0 50.8137 2.68629 53.5 6 53.5Z" fill="#483FDD"/>
<path fill-rule="evenodd" clip-rule="evenodd" d="M43 79.5C44.6569 79.5 46 78.1569 46 76.5C46 74.8431 44.6569 73.5 43 73.5C41.3431 73.5 40 74.8431 40 76.5C40 78.1569 41.3431 79.5 43 79.5Z" fill="#483FDD"/>
<path fill-rule="evenodd" clip-rule="evenodd" d="M53 95.5C55.7614 95.5 58 93.2614 58 90.5C58 87.7386 55.7614 85.5 53 85.5C50.2386 85.5 48 87.7386 48 90.5C48 93.2614 50.2386 95.5 53 95.5Z" fill="#483FDD"/>
<path fill-rule="evenodd" clip-rule="evenodd" d="M3 85.5C4.65685 85.5 6 84.1569 6 82.5C6 80.8431 4.65685 79.5 3 79.5C1.34315 79.5 0 80.8431 0 82.5C0 84.1569 1.34315 85.5 3 85.5Z" fill="#483FDD"/>
<path fill-rule="evenodd" clip-rule="evenodd" d="M229 45.5C230.657 45.5 232 44.1569 232 42.5C232 40.8431 230.657 39.5 229 39.5C227.343 39.5 226 40.8431 226 42.5C226 44.1569 227.343 45.5 229 45.5Z" fill="#483FDD"/>
<path opacity="0.5" fill-rule="evenodd" clip-rule="evenodd" d="M214 103.5C217.314 103.5 220 100.814 220 97.5C220 94.1863 217.314 91.5 214 91.5C210.686 91.5 208 94.1863 208 97.5C208 100.814 210.686 103.5 214 103.5Z" fill="#483FDD"/>
<path d="M80 31.6526L116.5 17.5L153 31.6526V75.7466C153 86.4256 147.232 96.2717 137.917 101.494L120.108 111.477C117.867 112.734 115.133 112.734 112.892 111.477L95.0831 101.494C85.768 96.2717 80 86.4256 80 75.7466V31.6526Z" fill="#483FDD"/>
<rect width="14.8585" height="32.2711" rx="5" transform="matrix(0.706231 -0.707982 0.706231 0.707982 89.6055 64.6465)" fill="white" fill-opacity="0.7"/>
<rect width="14.6389" height="44.4164" rx="5" transform="matrix(-0.724818 -0.68894 -0.687146 0.72652 144.183 55.5469)" fill="white"/>
</svg>
