<svg class="icon" width="117" height="23" viewBox="0 0 117 23" fill="none" xmlns="http://www.w3.org/2000/svg">
    <path d="M13.11 10.455a4.43 4.43 0 01.57-2.12 4.398 4.398 0 011.517-1.58 4.496 4.496 0 00-1.542-1.38 4.468 4.468 0 00-1.994-.542c-1.487-.157-2.93.896-3.688.896-.773 0-1.94-.88-3.197-.854a4.69 4.69 0 00-2.3.69 4.724 4.724 0 00-1.662 1.74C-.9 10.29.378 14.674 2.02 17.085c.82 1.181 1.78 2.5 3.036 2.453 1.229-.05 1.688-.788 3.171-.788 1.47 0 1.9.788 3.182.759 1.318-.022 2.149-1.187 2.941-2.379a9.79 9.79 0 001.346-2.755 4.242 4.242 0 01-1.88-1.568 4.278 4.278 0 01-.707-2.352zm-2.42-7.207a4.358 4.358 0 00.987-3.11 4.384 4.384 0 00-2.842 1.478 4.137 4.137 0 00-1.013 2.995 3.614 3.614 0 002.867-1.363zM32.225 14.98H26.28l-1.427 4.238h-2.518l5.63-15.682h2.615l5.63 15.682h-2.56l-1.426-4.239zm-5.328-1.957h4.71l-2.322-6.879h-.064l-2.324 6.88zm21.472.479c0 3.553-1.891 5.836-4.745 5.836a3.837 3.837 0 01-2.074-.483 3.866 3.866 0 01-1.502-1.518h-.054V23H37.66V7.785h2.259v1.901h.043a4.044 4.044 0 011.532-1.513 4.014 4.014 0 012.088-.508c2.885 0 4.787 2.294 4.787 5.837zm-2.399 0c0-2.315-1.19-3.836-3.004-3.836-1.783 0-2.982 1.553-2.982 3.836 0 2.304 1.2 3.847 2.982 3.847 1.815 0 3.004-1.511 3.004-3.847zm14.912 0c0 3.553-1.891 5.836-4.745 5.836a3.835 3.835 0 01-2.074-.483 3.865 3.865 0 01-1.503-1.518h-.054V23h-2.333V7.785h2.258v1.901h.044a4.043 4.043 0 011.532-1.513 4.015 4.015 0 012.087-.508c2.886 0 4.788 2.294 4.788 5.837zm-2.399 0c0-2.315-1.19-3.837-3.004-3.837-1.783 0-2.982 1.554-2.982 3.837 0 2.304 1.199 3.847 2.982 3.847 1.815 0 3.004-1.511 3.004-3.847zm10.667 1.346c.174 1.556 1.676 2.576 3.729 2.576 1.966 0 3.381-1.02 3.381-2.423 0-1.217-.853-1.946-2.874-2.445l-2.02-.49c-2.864-.695-4.193-2.042-4.193-4.227 0-2.706 2.345-4.565 5.674-4.565 3.295 0 5.553 1.859 5.63 4.565H76.12c-.141-1.565-1.428-2.51-3.307-2.51-1.88 0-3.166.956-3.166 2.347 0 1.109.821 1.76 2.83 2.26l1.719.425c3.199.76 4.528 2.053 4.528 4.347 0 2.934-2.323 4.771-6.02 4.771-3.457 0-5.792-1.794-5.943-4.63h2.389zM83.762 5.08v2.705h2.162v1.858h-2.162v6.303c0 .98.433 1.436 1.383 1.436.257-.005.513-.023.767-.055v1.848c-.427.08-.861.117-1.296.108-2.301 0-3.199-.869-3.199-3.086V9.643h-1.653V7.785h1.653V5.079h2.345zm3.413 8.421c0-3.597 2.107-5.857 5.392-5.857 3.296 0 5.393 2.26 5.393 5.857 0 3.608-2.086 5.858-5.393 5.858-3.306 0-5.392-2.25-5.392-5.858zm8.407 0c0-2.467-1.124-3.924-3.015-3.924-1.89 0-3.014 1.468-3.014 3.924 0 2.478 1.123 3.923 3.014 3.923 1.89 0 3.015-1.445 3.015-3.923zm4.302-5.716h2.225V9.73h.054a2.73 2.73 0 011.003-1.521 2.7 2.7 0 011.732-.545c.269 0 .537.029.799.088v2.195a3.243 3.243 0 00-1.048-.142 2.342 2.342 0 00-1.818.753 2.366 2.366 0 00-.614 1.878v6.781h-2.334V7.785zm16.572 8.075c-.314 2.075-2.324 3.5-4.895 3.5-3.307 0-5.36-2.23-5.36-5.804 0-3.587 2.064-5.912 5.262-5.912 3.145 0 5.123 2.172 5.123 5.64v.803h-8.029v.142a2.994 2.994 0 00.802 2.313 2.958 2.958 0 002.256.925 2.562 2.562 0 001.578-.366 2.58 2.58 0 001.047-1.242h2.216zm-7.888-3.413h5.683a2.759 2.759 0 00-1.689-2.695 2.716 2.716 0 00-1.099-.207 2.86 2.86 0 00-2.049.844 2.91 2.91 0 00-.846 2.058z"
          fill="#1D367C"></path>
</svg>