<svg class="icon" width="103" height="25" viewBox="0 0 103 25" fill="none" xmlns="http://www.w3.org/2000/svg"><g clip-path="url(#clip0_1905_17188)" fill-rule="evenodd" clip-rule="evenodd"><path d="M.426.384c-.27.302-.427.767-.427 1.37v21.488c0 .604.156 1.069.437 1.36l.073.065 11.605-12.04v-.27L.499.318.426.384z" fill="#3D317C"></path><path opacity=".3" d="M15.975 16.655l-3.871-4.017v-.281l3.872-4.017.083.054 4.58 2.7c1.311.767 1.311 2.03 0 2.807l-4.58 2.7-.085.054z" fill="#3D317C"></path><path opacity=".7" d="M16.058 16.602l-3.954-4.104L.426 24.614c.426.475 1.144.53 1.947.064l13.685-8.076zm0-8.206L2.373.33C1.57-.145.853-.081.426.394l11.676 12.104 3.956-4.102z" fill="#3D317C"></path><path opacity=".2" d="M15.974 16.515L2.383 24.527c-.76.453-1.437.421-1.874.01l-.073.076.073.065c.437.41 1.114.442 1.874-.01L16.068 16.6l-.094-.086z" fill="#305938"></path><path opacity=".12" d="M20.638 13.761l-4.674 2.754.084.087 4.58-2.7c.655-.389.978-.896.978-1.404-.042.465-.375.908-.968 1.263z" fill="#305938"></path><path opacity=".3" d="M2.373.471l18.265 10.766c.594.345.927.798.979 1.263 0-.507-.323-1.015-.979-1.404L2.373.33C1.062-.447 0 .2 0 1.755v.14C0 .342 1.062-.294 2.373.472z" fill="#305938"></path><path d="M26.074 11.816c0-3.442 2.788-6.245 6.106-6.245 1.834 0 3.14.748 4.124 1.72l-1.16 1.204c-.703-.686-1.658-1.218-2.965-1.218-2.423 0-4.316 2.024-4.316 4.537 0 2.514 1.893 4.54 4.315 4.54 1.57 0 2.464-.654 3.037-1.25.47-.487.778-1.187.896-2.147h-3.93v-1.702h5.533c.058.305.089.67.089 1.065 0 1.278-.338 2.863-1.426 3.99-1.058 1.143-2.407 1.753-4.198 1.753-3.319 0-6.108-2.8-6.108-6.245l.003-.002zm16.202-1.797c-2.143 0-3.892 1.692-3.892 4.02 0 2.317 1.748 4.02 3.892 4.02s3.89-1.706 3.89-4.021c0-2.329-1.747-4.02-3.89-4.019zm0 6.459c-1.174 0-2.187-1.005-2.187-2.438 0-1.447 1.012-2.437 2.187-2.437 1.173 0 2.186.989 2.186 2.437 0 1.432-1.012 2.438-2.186 2.438zm8.487-6.459c-2.143 0-3.89 1.692-3.89 4.02 0 2.317 1.747 4.02 3.89 4.02s3.89-1.706 3.89-4.021c0-2.329-1.746-4.02-3.89-4.019zm0 6.459c-1.174 0-2.188-1.005-2.188-2.438 0-1.447 1.013-2.437 2.188-2.437 1.173 0 2.187.989 2.187 2.437 0 1.432-1.014 2.438-2.187 2.438zm10.416-6.215v.655h-.059c-.38-.475-1.115-.9-2.039-.9-1.938 0-3.716 1.768-3.716 4.038 0 2.252 1.777 4.005 3.716 4.005.924 0 1.658-.425 2.04-.912h.058v.578c0 1.537-.793 2.36-2.07 2.36-1.043 0-1.688-.777-1.953-1.43l-1.483.64c.425 1.065 1.556 2.376 3.435 2.376 1.995 0 3.683-1.22 3.683-4.19v-7.22H61.18zm-1.952 6.215c-1.173 0-2.16-1.022-2.16-2.422 0-1.416.985-2.452 2.16-2.452 1.16 0 2.07 1.035 2.07 2.452 0 1.4-.91 2.422-2.07 2.422zm4.74-10.48h1.704v11.82h-1.704V5.997zm6.373 10.48c-.865 0-1.483-.413-1.877-1.218l5.182-2.226-.178-.457c-.322-.897-1.307-2.558-3.318-2.558-1.996 0-3.655 1.63-3.655 4.021 0 2.253 1.644 4.02 3.846 4.02 1.777 0 2.805-1.125 3.23-1.782l-1.321-.913c-.442.671-1.044 1.114-1.909 1.113zm-.133-4.905c.675 0 1.247.35 1.438.852l-3.465 1.493c-.044-1.553 1.16-2.345 2.027-2.345zm10.914-5.575h-4.073v11.82h1.7V13.34h2.374c1.885 0 3.738-1.415 3.738-3.671 0-2.253-1.852-3.67-3.736-3.67h-.003zm.044 5.697h-2.418V7.642h2.418c1.27 0 1.995 1.094 1.995 2.027 0 .916-.724 2.026-1.995 2.026zm6.331 6.122V5.998h-1.7v11.82h1.7zm7.637-.02v-4.532c0-2.098-1.512-3.268-3.462-3.268-1.23 0-2.504.563-3.032 1.81l1.51.652c.322-.652.922-.867 1.553-.867.879 0 1.773.548 1.787 1.522v.123a3.649 3.649 0 00-1.774-.457c-1.626 0-3.282.927-3.282 2.66 0 1.583 1.334 2.6 2.829 2.6 1.144 0 1.773-.531 2.168-1.154h.058v.913h1.643l.002-.003zm-3.665-1.322c-.557 0-1.334-.289-1.334-1.002 0-.913.969-1.265 1.804-1.265.748 0 1.099.167 1.554.396-.13 1.06-.995 1.858-2.024 1.871zm9.643-6.22l-1.95 5.123h-.058l-2.022-5.122h-1.832l3.033 7.162-1.73 3.983h1.773l4.674-11.145h-1.888z" fill="#3D317C"></path></g><defs><clipPath id="clip0_1905_17188"><path fill="#fff" d="M0 0h103v25H0z"></path></clipPath></defs></svg>