<svg class="icon" width="98" height="25" viewBox="0 0 98 25" fill="none" xmlns="http://www.w3.org/2000/svg">
    <path d="M41.216 12.187v5.757c0 1.195.25 2.087.764 2.677.515.589 1.362.875 2.508.875.481 0 .963-.135 1.444-.42.465-.27.83-.64 1.063-1.095h.033v1.262h1.893v-9.056h-1.943v5.269c0 .354-.033.673-.116.976-.083.303-.2.573-.365.775a1.747 1.747 0 01-.664.521c-.283.135-.615.186-1.013.186-.532 0-.947-.169-1.246-.489-.299-.336-.448-.892-.448-1.683v-5.555h-1.91zm17.403 0h.016-.016zm16.688 9.073h1.926v-9.073h-1.926v9.073zm16.54-9.073h.016-.017zm-53.404-.067c-.282.118-.548.27-.78.471a3.099 3.099 0 00-.598.64 2.185 2.185 0 00-.332.724H36.7v-1.768h-1.81v9.056h1.943v-4.309c0-.505.066-.943.182-1.33a3.18 3.18 0 01.515-.976c.216-.252.465-.454.747-.59.299-.134.598-.201.93-.201.133 0 .282.017.415.017.15.017.282.033.415.067v-1.936c-.1 0-.182-.033-.265-.033-.083 0-.25-.017-.465-.017-.3 0-.582.067-.864.185zm14.464-.067c-.432.084-.83.235-1.196.437a2.71 2.71 0 00-.88.808c-.233.337-.349.74-.349 1.23 0 .454.083.84.233 1.144.149.303.365.572.63.757.266.202.565.354.897.472.332.117.681.218 1.046.302.35.085.698.152 1.03.236.349.067.648.169.913.253.266.1.482.235.648.404a.94.94 0 01.282.622c0 .253-.05.455-.183.623a1.182 1.182 0 01-.498.354 2.637 2.637 0 01-.647.168c-.233.034-.432.05-.615.05-.531 0-.963-.117-1.345-.353-.365-.235-.58-.64-.647-1.229v.017h-1.943c.016.539.116 1.01.315 1.397.2.387.465.707.814.977.349.252.747.454 1.229.589.465.134.98.202 1.544.202.448 0 .913-.05 1.378-.169a4.23 4.23 0 001.262-.505 3 3 0 00.93-.909c.233-.387.366-.824.366-1.363 0-.438-.084-.825-.25-1.128a2.369 2.369 0 00-.647-.757 2.777 2.777 0 00-.913-.472c-.35-.1-.681-.219-1.047-.303-.365-.084-.714-.168-1.046-.235a5.475 5.475 0 01-.913-.253 2.02 2.02 0 01-.648-.387.745.745 0 01-.249-.59.75.75 0 01.166-.487c.117-.118.25-.22.416-.286a2.74 2.74 0 01.53-.135c.183-.034.35-.034.482-.034a2.5 2.5 0 011.146.253c.332.151.532.488.631.96h2.026c-.066-.506-.2-.943-.415-1.297a2.716 2.716 0 00-.83-.858 3.252 3.252 0 00-1.13-.489 5.46 5.46 0 00-1.295-.151 11.84 11.84 0 00-1.228.135zm15.526 7.625a2.612 2.612 0 01-.764-.657 2.839 2.839 0 01-.482-1.01 4.417 4.417 0 01-.166-1.279c0-.976.2-1.75.614-2.34.416-.589 1.03-.875 1.844-.875.398 0 .747.101 1.062.27.3.168.548.42.764.706.2.303.366.64.465 1.027.1.387.15.791.15 1.195s-.05.791-.117 1.162a2.769 2.769 0 01-.431 1.01c-.2.286-.449.538-.748.724-.315.185-.68.286-1.129.286a1.811 1.811 0 01-1.063-.219zm-.3-7.39c-.48.236-.863.606-1.145 1.128h-.033v-1.229h-1.827V24.61h1.943v-4.528h.033c.15.236.332.454.565.64a3.209 3.209 0 001.527.707c.283.05.565.084.847.084.648 0 1.212-.135 1.694-.404.482-.27.88-.606 1.179-1.06.299-.438.531-.943.697-1.516a6.97 6.97 0 00.233-1.767c0-.657-.083-1.296-.25-1.869a4.268 4.268 0 00-.763-1.531 3.703 3.703 0 00-1.279-1.044c-.514-.252-1.112-.387-1.81-.387a3.65 3.65 0 00-1.61.353zm17.586 7.356a2.534 2.534 0 01-.78-.74 3.01 3.01 0 01-.45-1.027 4.645 4.645 0 010-2.323c.1-.387.25-.724.45-1.027.215-.286.464-.539.78-.724a2.209 2.209 0 011.129-.286c.432 0 .797.101 1.13.286.315.185.58.421.78.724.199.303.365.64.448 1.027.1.387.15.774.15 1.161 0 .404-.05.791-.15 1.162-.1.387-.25.724-.449 1.027a2.35 2.35 0 01-.78.74 2.21 2.21 0 01-1.13.286 2.21 2.21 0 01-1.128-.286zm-.747-7.339a4.002 4.002 0 00-1.395.993 4.23 4.23 0 00-.864 1.515 5.94 5.94 0 00-.299 1.92c0 .69.1 1.346.3 1.918.198.59.48 1.094.863 1.515a4 4 0 001.395.993c.547.236 1.178.354 1.876.354.697 0 1.328-.118 1.876-.354a4 4 0 001.395-.993c.382-.42.664-.926.864-1.515.199-.589.299-1.229.299-1.919s-.1-1.33-.3-1.919c-.199-.589-.48-1.094-.863-1.515a4 4 0 00-1.395-.993 4.73 4.73 0 00-1.876-.37c-.698 0-1.329.118-1.876.37zM60.08 9.46v2.727h-1.445v1.515h1.462v5.353c0 .37.05.707.116.993.066.286.182.539.365.724.166.202.415.354.73.438.3.1.715.151 1.23.151.216 0 .415-.017.63-.033.2-.034.416-.05.632-.068v-1.548c-.133.033-.266.05-.415.067-.133.017-.266.017-.416.017a1.43 1.43 0 01-.514-.084.568.568 0 01-.283-.236.884.884 0 01-.116-.387 5.223 5.223 0 01-.033-.556v-4.848h1.743v-1.498h-1.743V9.46H60.08zm33.227 0v2.727h-1.444v1.515h1.461v5.353c.017.37.05.707.116.993.067.286.183.539.366.724.166.202.415.354.73.438.316.1.714.151 1.229.151.216 0 .415-.017.631-.033.2-.034.415-.05.631-.068v-1.548c-.133.033-.282.05-.415.067s-.266.017-.415.017a1.43 1.43 0 01-.515-.084.568.568 0 01-.282-.236.884.884 0 01-.117-.387 5.662 5.662 0 01-.016-.556v-4.848h1.743v-1.498h-1.743V9.46h-1.96zm-67.816-.74l-.017 1.902h3.853V21.26h2.125V10.622h3.853V8.72H25.49zm49.816 1.902h1.926V8.737h-1.926v1.885zm3.67 10.638h1.943V8.72h-1.943v12.54z"
          fill="#151D51"></path>
    <path d="M8.867 8.72H0l7.19 5.386-2.756 8.72 7.19-5.387 7.173 5.386-2.74-8.719 7.174-5.387h-8.867L11.624 0 8.867 8.72z"
          fill="#51B27E"></path>
    <path d="M11.624 17.44l5.048-1.363-.614-1.97-4.434 3.333z" fill="#2B663F"></path>
</svg>