<svg width="32" height="32" viewBox="0 0 32 32" fill="none" xmlns="http://www.w3.org/2000/svg">
<g clip-path="url(#clip0_1109_87129)">
<circle cx="16" cy="16" r="16" fill="#483FDD"/>
<circle cx="16" cy="15.9999" r="8" fill="white"/>
<path d="M16 3.66675V5.33342" stroke="#5CD6C0" stroke-width="2.69565" stroke-linecap="round"/>
<path d="M15.272 23.0001H16.7274C17.5088 23.0001 17.9432 23.904 17.4551 24.5142C16.7089 25.4469 15.2904 25.4469 14.5443 24.5142C14.0561 23.904 14.4906 23.0001 15.272 23.0001Z" fill="white"/>
<path fill-rule="evenodd" clip-rule="evenodd" d="M16.0003 10.6666C16.7367 10.6666 17.3337 11.2636 17.3337 12L17.0003 16C17.0003 16.7363 16.7367 17.3333 16.0003 17.3333C15.2639 17.3333 15.0003 16.7363 15.0003 16L14.667 12C14.667 11.2636 15.2639 10.6666 16.0003 10.6666Z" fill="#151D51"/>
<path d="M28.333 16L26.6663 16" stroke="#5CD6C0" stroke-width="2.69565" stroke-linecap="round"/>
<path d="M5.33301 16L3.66634 16" stroke="#5CD6C0" stroke-width="2.69565" stroke-linecap="round"/>
<path d="M8.45801 8.45752L7.2795 7.27901" stroke="#5CD6C0" stroke-width="2.69565" stroke-linecap="round"/>
<path d="M23.542 8.45752L24.7205 7.27901" stroke="#5CD6C0" stroke-width="2.69565" stroke-linecap="round"/>
<ellipse cx="16.0003" cy="19.6667" rx="1.33333" ry="1.33333" fill="#151D51"/>
</g>
<defs>
<clipPath id="clip0_1109_87129">
<rect width="32" height="32" fill="white"/>
</clipPath>
</defs>
</svg>
