<svg width="32" height="32" viewBox="0 0 32 32" fill="none" xmlns="http://www.w3.org/2000/svg">
<g clip-path="url(#clip0_1076_92592)">
<circle cx="16" cy="16" r="16" fill="#483FDD"/>
<path d="M6.66699 10.2004C6.66699 9.39104 7.15183 8.66044 7.8976 8.34601L12.2724 6.50151C14.5495 5.54143 17.1178 5.54143 19.3949 6.50151L23.7697 8.34601C24.5155 8.66044 25.0003 9.39104 25.0003 10.2004V17.8333C25.0003 22.8959 20.8963 27 15.8337 27C10.771 27 6.66699 22.8959 6.66699 17.8333V10.2004Z" fill="#5CD6C0"/>
<circle cx="15.833" cy="15.8333" r="5.5" fill="white"/>
<rect width="2.4327" height="5.28358" rx="1.21635" transform="matrix(0.707842 -0.706371 0.707842 0.706371 11.333 15.8008)" fill="#483FDD" fill-opacity="0.6"/>
<rect width="2.39704" height="7.27118" rx="1.19852" transform="matrix(-0.726383 -0.68729 -0.688796 0.724955 20.2891 14.3142)" fill="#483FDD"/>
</g>
<defs>
<clipPath id="clip0_1076_92592">
<rect width="32" height="32" fill="white"/>
</clipPath>
</defs>
</svg>
