<svg width="32" height="32" viewBox="0 0 32 32" fill="none" xmlns="http://www.w3.org/2000/svg">
<circle cx="16" cy="16" r="16" fill="#483FDD"/>
<mask id="mask0_1109_87215" style="mask-type:alpha" maskUnits="userSpaceOnUse" x="0" y="0" width="32" height="32">
<circle cx="16" cy="16" r="16" fill="#483FDD"/>
</mask>
<g mask="url(#mask0_1109_87215)">
<rect x="6.68743" y="6.6867" width="18.2931" height="28.6264" rx="1.93965" fill="#151D51" stroke="white" stroke-width="1.2931"/>
</g>
<path d="M11.333 7.33325H20.6663C20.6663 8.80601 19.4724 9.99992 17.9997 9.99992H13.9997C12.5269 9.99992 11.333 8.80601 11.333 7.33325Z" fill="white"/>
<path fill-rule="evenodd" clip-rule="evenodd" d="M11.973 14.9192C12.5273 13.1636 14.4573 12.2498 16.1667 12.9336C17.6762 12.2587 19.4367 13.0497 19.9346 14.6264L20.8022 17.3738H21.6665C22.3806 17.3738 22.9596 17.9527 22.9596 18.6669C22.9596 19.381 22.3806 19.96 21.6665 19.96H10.3331C9.61898 19.96 9.04004 19.381 9.04004 18.6669C9.04004 17.9527 9.61898 17.3738 10.3331 17.3738H11.1978L11.973 14.9192ZM16 23.0001C16.1958 23.0001 16.3717 23.1119 16.4813 23.2741C16.9164 23.9176 17.6062 24.3334 18.3829 24.3334C18.7918 24.3334 19.1766 24.2181 19.5129 24.0151C20.8274 23.2212 19.5208 21.6667 17.9851 21.6667H16.0001H16H14.0137C12.4787 21.6667 11.1726 23.2201 12.4861 24.0144C12.8226 24.2179 13.2079 24.3334 13.6172 24.3334C14.3939 24.3334 15.0837 23.9176 15.5188 23.2741C15.6284 23.1119 15.8043 23.0001 16 23.0001Z" fill="white"/>
<path fill-rule="evenodd" clip-rule="evenodd" d="M29.4138 16C29.4138 23.4082 23.4082 29.4138 16 29.4138C12.7761 29.4138 9.81788 28.2765 7.50461 26.3812L26.3812 7.50461C28.2765 9.81788 29.4138 12.7761 29.4138 16ZM5.61897 24.4956L24.4956 5.61897C22.1823 3.72358 19.224 2.5862 16 2.5862C8.59176 2.5862 2.5862 8.59176 2.5862 16C2.5862 19.224 3.72358 22.1823 5.61897 24.4956ZM32 16C32 24.8366 24.8366 32 16 32C7.16344 32 0 24.8366 0 16C0 7.16344 7.16344 0 16 0C24.8366 0 32 7.16344 32 16Z" fill="#5CD6C0"/>
</svg>
