<svg width="32" height="32" viewBox="0 0 32 32" fill="none" xmlns="http://www.w3.org/2000/svg">
<g clip-path="url(#clip0_1109_87090)">
<path fill-rule="evenodd" clip-rule="evenodd" d="M32 16C32 7.16345 24.8366 0 16.0001 0C7.16355 0 0 7.16345 0 16C0 24.8366 7.16355 32 16.0001 32C24.8366 32 32 24.8366 32 16Z" fill="#483FDD"/>
<path d="M10.0069 6.6812C10.0069 6.30901 10.3086 6.00729 10.6808 6.00729H21.3185C21.6907 6.00729 21.9924 6.30901 21.9924 6.6812V25.3189C21.9924 25.6911 21.6907 25.9928 21.3185 25.9928H10.6808C10.3086 25.9928 10.0069 25.6911 10.0069 25.3189V6.6812Z" fill="#5CD6C0" stroke="white" stroke-width="1.34783"/>
<path d="M13.4419 6.21472H12.9502C13.2026 6.26499 13.3955 6.46945 13.431 6.72432L13.4419 6.8024V6.21472Z" fill="white"/>
<path d="M18.687 6.21472H19.1787C18.9263 6.26499 18.7334 6.46945 18.6979 6.72432L18.687 6.8024V6.21472Z" fill="white"/>
<path d="M13.4287 6.88147H18.6738C18.6738 7.58469 18.1038 8.15477 17.4005 8.15477H14.702C13.9988 8.15477 13.4287 7.58469 13.4287 6.88147Z" fill="white"/>
<path fill-rule="evenodd" clip-rule="evenodd" d="M12 16C12 13.7909 13.7909 12 16 12C18.2091 12 20 13.7909 20 16C20 18.2091 18.2091 20 16 20C13.7909 20 12 18.2091 12 16Z" fill="#151D51"/>
<path fill-rule="evenodd" clip-rule="evenodd" d="M15.2036 17.7143C15.0815 17.7143 14.9597 17.6674 14.8668 17.5739L13.8537 16.5531C13.6674 16.3655 13.6673 16.0614 13.8532 15.8736C14.0392 15.6859 14.3407 15.6857 14.527 15.8732L15.2138 16.5651L17.4828 14.4159C17.6745 14.2344 17.9759 14.2439 18.1561 14.4373C18.3363 14.6306 18.3268 14.9348 18.135 15.1164L15.5296 17.5841C15.4378 17.6711 15.3206 17.7143 15.2036 17.7143Z" fill="white"/>
</g>
<defs>
<clipPath id="clip0_1109_87090">
<rect width="32" height="32" fill="white"/>
</clipPath>
</defs>
</svg>
