<svg width="32" height="32" viewBox="0 0 32 32" fill="none" xmlns="http://www.w3.org/2000/svg">
<mask id="mask0_1109_86982" style="mask-type:alpha" maskUnits="userSpaceOnUse" x="0" y="0" width="32" height="32">
<path fill-rule="evenodd" clip-rule="evenodd" d="M32 0H-1.43051e-06V32H32V0Z" fill="white"/>
</mask>
<g mask="url(#mask0_1109_86982)">
<path fill-rule="evenodd" clip-rule="evenodd" d="M15.9999 32C24.8365 32 32 24.8365 32 16C32 7.16338 24.8365 0 15.9999 0C7.16347 0 -1.43051e-06 7.16338 -1.43051e-06 16C-1.43051e-06 24.8365 7.16347 32 15.9999 32Z" fill="#483FDD"/>
</g>
<path fill-rule="evenodd" clip-rule="evenodd" d="M0 15.9942C0 7.15769 7.16339 -0.00585938 15.9999 -0.00585938C24.8365 -0.00585938 32 7.15769 32 15.9942C32 24.8308 24.8365 31.9941 15.9999 31.9941C7.16339 31.9941 0 24.8308 0 15.9942" fill="#483FDD"/>
<path fill-rule="evenodd" clip-rule="evenodd" d="M15.9704 23.9941C13.6046 23.9941 11.3238 23.0628 9.71267 21.4389C8.07894 19.7924 7.27625 17.6449 7.45266 15.3923C7.76367 11.4228 11.1987 8.24856 15.4428 8.00869C16.8255 7.93069 18.2176 8.16732 19.4677 8.69327C19.922 8.88445 20.1248 9.38413 19.9207 9.80965C19.7168 10.2352 19.1828 10.4253 18.7288 10.2341C17.7294 9.81364 16.6604 9.63228 15.5513 9.69478C12.2048 9.88397 9.49643 12.3864 9.25133 15.5159C9.11197 17.2951 9.74497 18.9902 11.0336 20.289C12.3048 21.5702 14.1042 22.305 15.9704 22.305C16.067 22.305 16.1632 22.3031 16.2588 22.2993C16.7526 22.2793 17.1769 22.6408 17.1984 23.1069C17.2197 23.5729 16.8337 23.967 16.336 23.9869C16.215 23.9918 16.093 23.9941 15.9704 23.9941" fill="#5CD6C0"/>
<path fill-rule="evenodd" clip-rule="evenodd" d="M20.3204 22.8513C20.0613 22.8513 19.8047 22.7362 19.6285 22.514C19.3179 22.1225 19.3758 21.5467 19.7577 21.2284C21.3212 19.9241 22.2179 17.9921 22.2179 15.9276C22.2179 14.6215 21.8575 13.3522 21.1756 12.2573C20.9107 11.8319 21.0322 11.267 21.447 10.9951C21.8617 10.7234 22.4128 10.8481 22.6775 11.2734C23.5429 12.6628 24.0001 14.2723 24.0001 15.9276C24.0001 18.5446 22.8637 20.9934 20.8821 22.6464C20.7169 22.7842 20.5179 22.8513 20.3204 22.8513" fill="white"/>
<path fill-rule="evenodd" clip-rule="evenodd" d="M27.1421 17.7084C26.6686 17.7084 26.2848 17.2932 26.2848 16.7809C26.2848 10.7531 21.7517 5.84915 16.18 5.84915C14.5422 5.84915 12.9802 6.25945 11.537 7.06857C11.1171 7.30433 10.5994 7.12675 10.3815 6.67194C10.1636 6.21712 10.3277 5.65741 10.7481 5.42166C12.4135 4.48791 14.2919 3.99414 16.18 3.99414C22.6973 3.99414 27.9994 9.73018 27.9994 16.7809C27.9994 17.2932 27.6157 17.7084 27.1421 17.7084" fill="#5CD6C0"/>
<path fill-rule="evenodd" clip-rule="evenodd" d="M15.6848 27.9941C9.24108 27.9941 4 22.6119 4 15.9961C4 13.1887 4.96396 10.4578 6.71453 8.3064C7.01454 7.93771 7.54906 7.88834 7.90824 8.19658C8.26741 8.50482 8.31518 9.05374 8.01517 9.42259C6.51884 11.2613 5.69495 13.5959 5.69495 15.9961C5.69495 21.6521 10.1758 26.2536 15.6834 26.2536C18.5029 26.2536 21.2039 25.0217 23.0954 22.8738C23.4093 22.5173 23.9454 22.4896 24.2924 22.8121C24.6395 23.1344 24.6665 23.6848 24.3525 24.0413C22.1402 26.5534 18.981 27.9941 15.6848 27.9941" fill="white"/>
</svg>
