<svg width="32" height="32" viewBox="0 0 32 32" fill="none" xmlns="http://www.w3.org/2000/svg">
<g clip-path="url(#clip0_1076_92591)">
<circle cx="16" cy="16" r="16" fill="#483FDD"/>
<path d="M6.66634 13.9199C6.66634 12.3789 6.66741 11.3047 6.73682 10.4688C6.80491 9.64896 6.9318 9.17862 7.11669 8.82269C7.49619 8.09211 8.09187 7.49643 8.82244 7.11693C9.17837 6.93204 9.64871 6.80516 10.4686 6.73707C11.3044 6.66766 12.3787 6.66659 13.9197 6.66659H18.0797C19.6207 6.66659 20.6949 6.66766 21.5308 6.73707C22.3506 6.80516 22.821 6.93204 23.1769 7.11693C23.9075 7.49643 24.5032 8.09212 24.8827 8.82269C25.0675 9.17862 25.1944 9.64896 25.2625 10.4688C25.3319 11.3047 25.333 12.3789 25.333 13.9199V18.0799C25.333 19.6209 25.3319 20.6952 25.2625 21.531C25.1944 22.3509 25.0675 22.8212 24.8827 23.1771C24.5032 23.9077 23.9075 24.5034 23.1769 24.8829C22.821 25.0678 22.3506 25.1947 21.5308 25.2628C20.6949 25.3322 19.6207 25.3332 18.0797 25.3332H13.9197C12.3787 25.3332 11.3044 25.3322 10.4686 25.2628C9.64871 25.1947 9.17837 25.0678 8.82244 24.8829C8.09187 24.5034 7.49619 23.9077 7.11669 23.1771C6.9318 22.8212 6.80491 22.3509 6.73682 21.531C6.66741 20.6952 6.66634 19.6209 6.66634 18.0799V13.9199Z" stroke="#5CD6C0" stroke-width="2.66667"/>
<circle cx="16" cy="16" r="4" stroke="white" stroke-width="2"/>
<ellipse cx="21.4997" cy="10.8332" rx="1.16667" ry="1.16667" fill="white"/>
</g>
<defs>
<clipPath id="clip0_1076_92591">
<rect width="32" height="32" fill="white"/>
</clipPath>
</defs>
</svg>
