<svg width="32" height="32" viewBox="0 0 32 32" fill="none" xmlns="http://www.w3.org/2000/svg">
<circle cx="16" cy="16" r="16" fill="#483FDD"/>
<path fill-rule="evenodd" clip-rule="evenodd" d="M16.0322 19.8214C18.6269 19.8214 20.7304 12.6282 20.7304 10.0335C20.7304 7.43877 18.6269 5.33531 16.0322 5.33531C13.4374 5.33531 11.334 7.43877 11.334 10.0335C11.334 12.6282 13.4374 19.8214 16.0322 19.8214ZM16.0328 11.9905C17.1139 11.9905 17.9904 11.114 17.9904 10.0329C17.9904 8.95174 17.1139 8.0753 16.0328 8.0753C14.9516 8.0753 14.0752 8.95174 14.0752 10.0329C14.0752 11.114 14.9516 11.9905 16.0328 11.9905Z" fill="white"/>
<circle cx="16.0318" cy="10.0313" r="1.95758" fill="#151D51"/>
<path d="M6 19.3325V19.3325C7.34486 20.6162 9.13259 21.3325 10.9918 21.3325H21.0082C22.8674 21.3325 24.6551 20.6162 26 19.3325V19.3325" stroke="#5CD6C0" stroke-width="2.92308" stroke-linecap="round"/>
<circle cx="10.0003" cy="25.0008" r="2.33333" fill="#5CD6C0"/>
<circle cx="22.0003" cy="25.0008" r="2.33333" fill="#5CD6C0"/>
</svg>
