<svg width="32" height="32" viewBox="0 0 32 32" fill="none" xmlns="http://www.w3.org/2000/svg">
<g clip-path="url(#clip0_1076_92557)">
<circle cx="16" cy="16" r="14.6667" fill="#483FDD" stroke="#5CD6C0" stroke-width="2.66667"/>
<mask id="mask0_1076_92557" style="mask-type:alpha" maskUnits="userSpaceOnUse" x="0" y="0" width="32" height="32">
<path fill-rule="evenodd" clip-rule="evenodd" d="M32 0H0V32H32V0Z" fill="white"/>
</mask>
<g mask="url(#mask0_1076_92557)">
<path fill-rule="evenodd" clip-rule="evenodd" d="M15.9999 32C24.8365 32 32 24.8365 32 16C32 7.16338 24.8365 0 15.9999 0C7.16347 0 0 7.16338 0 16C0 24.8365 7.16347 32 15.9999 32Z" fill="#483FDD"/>
</g>
<path fill-rule="evenodd" clip-rule="evenodd" d="M14.1677 24.0501C14.1677 24.9321 14.87 25.647 15.7362 25.647C16.6024 25.647 17.3047 24.9321 17.3047 24.0501C17.3047 23.1682 16.6024 22.4531 15.7362 22.4531C14.87 22.4531 14.1677 23.1682 14.1677 24.0501Z" fill="white"/>
<path fill-rule="evenodd" clip-rule="evenodd" d="M7.72783 11.6329L8.13762 11.2221L8.13695 11.2215C8.15411 11.2044 8.17159 11.188 8.18863 11.171C10.1345 9.24629 12.6299 8.21598 15.1647 8.07976C15.5506 8.05903 15.9375 8.05903 16.3235 8.07976C18.8575 8.21587 21.3522 9.24584 23.2979 11.1696C23.3155 11.1869 23.3337 11.2038 23.3511 11.2215L23.3505 11.2221L23.7603 11.6329C24.2153 12.0889 24.2153 12.8351 23.7603 13.2913L21.2782 15.7787C21.2646 15.7939 21.2519 15.8094 21.2374 15.8241L16.5736 20.4982C16.3455 20.7267 16.0447 20.8407 15.7441 20.8401C15.4434 20.8407 15.1426 20.7267 14.9146 20.4982L10.2509 15.8241C10.2365 15.8097 10.2239 15.7942 10.2104 15.7791L7.72783 13.2913C7.27278 12.8351 7.27278 12.0889 7.72783 11.6329Z" fill="#5CD6C0"/>
<path fill-rule="evenodd" clip-rule="evenodd" d="M7.72783 11.6329L8.13762 11.2221L8.13695 11.2215C8.15411 11.2044 8.17159 11.188 8.18863 11.171C10.1345 9.24629 12.6299 8.21598 15.1647 8.07976C15.5506 8.05903 15.9375 8.05903 16.3235 8.07976C18.8575 8.21587 21.3522 9.24584 23.2979 11.1696C23.3155 11.1869 23.3337 11.2038 23.3511 11.2215L23.3505 11.2221L23.7603 11.6329C24.2153 12.0889 24.2153 12.8351 23.7603 13.2913L21.2782 15.7787C21.2646 15.7939 21.2519 15.8094 21.2374 15.8241L16.5736 20.4982C16.3455 20.7267 16.0447 20.8407 15.7441 20.8401C15.4434 20.8407 15.1426 20.7267 14.9146 20.4982L10.2509 15.8241C10.2365 15.8097 10.2239 15.7942 10.2104 15.7791L7.72783 13.2913C7.27278 12.8351 7.27278 12.0889 7.72783 11.6329Z" fill="#5CD6C0"/>
<mask id="mask1_1076_92557" style="mask-type:alpha" maskUnits="userSpaceOnUse" x="7" y="8" width="17" height="14">
<path fill-rule="evenodd" clip-rule="evenodd" d="M16.3138 8.08158C18.8102 8.22085 21.2679 9.2747 23.1849 11.2429C23.2022 11.2608 23.22 11.2782 23.2372 11.2962L23.2365 11.2967L23.6403 11.7171C24.0887 12.1837 24.0887 12.9472 23.6403 13.4139L21.1951 15.959C21.1816 15.9746 21.169 15.9906 21.1549 16.0055L16.5602 20.7878C16.3354 21.0218 16.0391 21.1383 15.743 21.1377C15.4468 21.1383 15.1504 21.0218 14.9259 20.7878L10.3312 16.0055C10.317 15.9908 10.3046 15.9749 10.2913 15.9595L7.84561 13.4139C7.39731 12.9472 7.39731 12.1837 7.84561 11.7171L8.24932 11.2967L8.24878 11.2962C8.26556 11.2786 8.28279 11.2619 8.29958 11.2446C10.2166 9.27528 12.675 8.22097 15.1721 8.08158C15.3623 8.07098 15.5526 8.06567 15.743 8.06567C15.9333 8.06567 16.1237 8.07098 16.3138 8.08158Z" fill="white"/>
</mask>
<g mask="url(#mask1_1076_92557)">
<path fill-rule="evenodd" clip-rule="evenodd" d="M8.81694 14.1728L9.17104 13.8042L9.1705 13.8036C9.18522 13.7883 9.20037 13.7735 9.21509 13.7583C10.8963 12.0313 13.0525 11.1066 15.2424 10.9844C15.5759 10.9658 15.9102 10.9658 16.2437 10.9844C18.4329 11.1065 20.5884 12.0307 22.2696 13.7569C22.2847 13.7725 22.3003 13.7877 22.3155 13.8036L22.3149 13.8042L22.669 14.1728C23.0622 14.5819 23.0622 15.2514 22.669 15.6607L20.5245 17.893C20.5127 17.9065 20.5018 17.9206 20.4892 17.9337L16.4597 22.1279C16.2626 22.3329 16.0027 22.4352 15.7429 22.4347C15.4832 22.4352 15.2234 22.3329 15.0263 22.1279L10.9968 17.9337C10.9844 17.9207 10.9734 17.9069 10.9618 17.8933L8.81694 15.6607C8.42391 15.2514 8.42391 14.5819 8.81694 14.1728Z" fill="white"/>
</g>
<mask id="mask2_1076_92557" style="mask-type:alpha" maskUnits="userSpaceOnUse" x="7" y="8" width="17" height="14">
<path fill-rule="evenodd" clip-rule="evenodd" d="M16.3138 8.08158C18.8102 8.22085 21.2679 9.2747 23.1849 11.2429C23.2022 11.2608 23.22 11.2782 23.2372 11.2962L23.2365 11.2967L23.6403 11.7171C24.0887 12.1837 24.0887 12.9472 23.6403 13.4139L21.1951 15.959C21.1816 15.9746 21.169 15.9906 21.1549 16.0055L16.5602 20.7878C16.3354 21.0218 16.0391 21.1383 15.743 21.1377C15.4468 21.1383 15.1504 21.0218 14.9259 20.7878L10.3312 16.0055C10.317 15.9908 10.3046 15.9749 10.2913 15.9595L7.84561 13.4139C7.39731 12.9472 7.39731 12.1837 7.84561 11.7171L8.24932 11.2967L8.24878 11.2962C8.26556 11.2786 8.28279 11.2619 8.29958 11.2446C10.2166 9.27528 12.675 8.22097 15.1721 8.08158C15.3623 8.07098 15.5526 8.06567 15.743 8.06567C15.9333 8.06567 16.1237 8.07098 16.3138 8.08158Z" fill="white"/>
</mask>
<g mask="url(#mask2_1076_92557)">
<path fill-rule="evenodd" clip-rule="evenodd" d="M10.8305 16.5749L11.0817 16.3134L11.0813 16.3131C11.0917 16.3023 11.1024 16.2918 11.1129 16.281C12.3053 15.056 13.8345 14.4002 15.3878 14.3137C15.6244 14.3004 15.8615 14.3004 16.0978 14.3137C17.6508 14.4002 19.1795 15.0556 20.3719 16.28C20.3827 16.2911 20.3937 16.3019 20.4043 16.3131L20.404 16.3134L20.6551 16.5749C20.934 16.8652 20.934 17.3401 20.6551 17.6303L19.1341 19.2135C19.1258 19.2232 19.1181 19.2332 19.1092 19.2425L16.2511 22.2171C16.1114 22.3626 15.9271 22.4351 15.7429 22.4348C15.5586 22.4351 15.3744 22.3626 15.2346 22.2171L12.3767 19.2425C12.3679 19.2332 12.36 19.2234 12.3517 19.2139L10.8305 17.6303C10.5516 17.3401 10.5516 16.8652 10.8305 16.5749Z" fill="#5CD6C0"/>
</g>
<mask id="mask3_1076_92557" style="mask-type:alpha" maskUnits="userSpaceOnUse" x="0" y="-1" width="32" height="33">
<path fill-rule="evenodd" clip-rule="evenodd" d="M32 -0.00585938H0V31.9941H32V-0.00585938Z" fill="white"/>
</mask>
<g mask="url(#mask3_1076_92557)">
<path fill-rule="evenodd" clip-rule="evenodd" d="M15.9999 31.9941C24.8365 31.9941 32 24.8307 32 15.9941C32 7.15752 24.8365 -0.00585938 15.9999 -0.00585938C7.16347 -0.00585938 0 7.15752 0 15.9941C0 24.8307 7.16347 31.9941 15.9999 31.9941Z" fill="#483FDD"/>
<path fill-rule="evenodd" clip-rule="evenodd" d="M15.9939 11.7808C13.8437 11.7808 12.1006 10.0376 12.1006 7.88738C12.1006 5.73715 13.8437 3.99414 15.9939 3.99414C18.1441 3.99414 19.8873 5.73715 19.8873 7.88738C19.8873 10.0376 18.1441 11.7808 15.9939 11.7808Z" fill="#5CD6C0"/>
<path fill-rule="evenodd" clip-rule="evenodd" d="M6.29973 15.6696C6.23891 15.6696 6.17699 15.6644 6.1149 15.6533C5.57134 15.5573 5.2126 15.0619 5.31403 14.5469C5.75398 12.3113 7.00281 10.2579 8.83034 8.76477C9.24917 8.42257 9.88159 8.46672 10.2429 8.86343C10.6042 9.26014 10.5575 9.85917 10.1387 10.2014C8.65425 11.4143 7.64015 13.0811 7.28306 14.8946C7.19328 15.351 6.77264 15.6696 6.29973 15.6696Z" fill="white"/>
<path fill-rule="evenodd" clip-rule="evenodd" d="M25.7198 15.6696C25.2647 15.6696 24.8567 15.3594 24.7606 14.9084C24.3695 13.074 23.3427 11.4112 21.8689 10.226C21.4512 9.89003 21.3924 9.28797 21.7373 8.88145C22.0824 8.47458 22.7005 8.41727 23.1181 8.75312C24.9346 10.2139 26.1999 12.262 26.6812 14.5201C26.7913 15.0366 26.4507 15.5423 25.9203 15.6494C25.8531 15.663 25.786 15.6696 25.7198 15.6696Z" fill="white"/>
<path fill-rule="evenodd" clip-rule="evenodd" d="M15.6791 26.6966C14.5682 26.6966 13.4557 26.4887 12.3952 26.0725C11.9172 25.8849 11.6675 25.3052 11.8376 24.7777C12.0074 24.2502 12.5329 23.9746 13.0107 24.1623C14.7352 24.8387 16.6276 24.8385 18.3392 24.1617C18.8164 23.973 19.3427 24.2469 19.5139 24.774C19.6849 25.3012 19.4366 25.8814 18.9591 26.0703C17.9031 26.4878 16.7919 26.6966 15.6791 26.6966Z" fill="white"/>
<path fill-rule="evenodd" clip-rule="evenodd" d="M24.1077 24.7506C21.9583 24.7506 20.2158 23.008 20.2158 20.8588C20.2158 18.7093 21.9583 16.9668 24.1077 16.9668C26.2571 16.9668 27.9996 18.7093 27.9996 20.8588C27.9996 23.008 26.2571 24.7506 24.1077 24.7506Z" fill="#5CD6C0"/>
<path fill-rule="evenodd" clip-rule="evenodd" d="M7.89189 24.7506C5.74249 24.7506 4 23.008 4 20.8588C4 18.7093 5.74249 16.9668 7.89189 16.9668C10.0413 16.9668 11.7838 18.7093 11.7838 20.8588C11.7838 23.008 10.0413 24.7506 7.89189 24.7506Z" fill="#5CD6C0"/>
</g>
</g>
<defs>
<clipPath id="clip0_1076_92557">
<rect width="32" height="32" fill="white"/>
</clipPath>
</defs>
</svg>
