<svg width="32" height="32" viewBox="0 0 32 32" fill="none" xmlns="http://www.w3.org/2000/svg">
<g clip-path="url(#clip0_1076_93145)">
<circle cx="16" cy="16" r="14.5385" fill="#483FDD" stroke="#5CD6C0" stroke-width="2.92308"/>
<path d="M16 3.99991C16.3952 3.99991 16.7031 4.32885 16.7031 4.72407V6.10928C16.7031 6.49741 16.3881 6.81241 16 6.81241C15.6119 6.81241 15.2969 6.49741 15.2969 6.10928V4.72407C15.2969 4.32885 15.6048 3.99991 16 3.99991Z" fill="#5579F0"/>
<path d="M11.4061 8.04268C11.0698 8.23646 10.6401 8.12185 10.4457 7.78533L9.75067 6.58155C9.5533 6.23969 9.65571 5.80044 9.99727 5.60254C10.3396 5.40421 10.7708 5.53578 10.9686 5.87841L11.6635 7.08221C11.8575 7.4183 11.7422 7.84861 11.4061 8.04268Z" fill="#5579F0"/>
<path d="M8.04309 11.4064C7.84888 11.7424 7.41927 11.8577 7.08262 11.6637L5.87882 10.9688C5.5362 10.771 5.40462 10.3398 5.60295 9.9975C5.80085 9.65594 6.2401 9.55353 6.58197 9.7509L7.78574 10.4459C8.12184 10.64 8.23715 11.0703 8.04309 11.4064Z" fill="#5579F0"/>
<path d="M6.8125 15.9999C6.8125 16.388 6.4975 16.703 6.10938 16.703H4.72416C4.32895 16.703 4 16.3951 4 15.9999C4 15.6047 4.32895 15.2968 4.72416 15.2968H6.10938C6.4975 15.2968 6.8125 15.6118 6.8125 15.9999Z" fill="#5579F0"/>
<path d="M7.78574 21.5541L6.58197 22.2491C6.2401 22.4465 5.80085 22.3441 5.60295 22.0025C5.40462 21.6602 5.5362 21.229 5.87882 21.0312L7.08262 20.3363C7.41871 20.1423 7.84902 20.2576 8.04309 20.5937C8.23715 20.9298 8.12184 21.3601 7.78574 21.5541Z" fill="#5579F0"/>
<path d="M22.0026 5.60254C22.3442 5.80044 22.4466 6.23969 22.2492 6.58156L21.5542 7.78533C21.3598 8.12166 20.9302 8.2366 20.5938 8.04267C20.2577 7.84861 20.1424 7.4183 20.3364 7.08221L21.0313 5.87841C21.2291 5.53578 21.6603 5.40421 22.0026 5.60254Z" fill="#5579F0"/>
<path d="M16.7031 25.8905V27.2757C16.7031 27.671 16.3952 27.9999 16 27.9999C15.6048 27.9999 15.2969 27.671 15.2969 27.2757V25.8905C15.2969 25.5024 15.6119 25.1874 16 25.1874C16.3881 25.1874 16.7031 25.5024 16.7031 25.8905Z" fill="#5579F0"/>
<path d="M22.2492 25.4172C22.4466 25.7591 22.3442 26.1984 22.0026 26.3963C21.6603 26.5946 21.2291 26.463 21.0313 26.1204L20.3364 24.9166C20.1424 24.5805 20.2577 24.1502 20.5938 23.9561C20.9299 23.7621 21.3602 23.8774 21.5542 24.2135L22.2492 25.4172Z" fill="#5579F0"/>
<path d="M26.1208 21.0312C26.4634 21.229 26.595 21.6602 26.3967 22.0025C26.1988 22.3441 25.7595 22.4465 25.4177 22.2491L24.2139 21.5541C23.8778 21.3601 23.7625 20.9298 23.9565 20.5937C24.1506 20.2576 24.5809 20.1423 24.917 20.3363L26.1208 21.0312Z" fill="#5579F0"/>
<path d="M28 15.9999C28 16.3951 27.6711 16.703 27.2758 16.703H25.8906C25.5025 16.703 25.1875 16.388 25.1875 15.9999C25.1875 15.6118 25.5025 15.2968 25.8906 15.2968H27.2758C27.6711 15.2968 28 15.6047 28 15.9999Z" fill="#5579F0"/>
<path d="M26.3967 9.9975C26.595 10.3398 26.4634 10.771 26.1208 10.9688L24.917 11.6637C24.5803 11.8577 24.1507 11.7424 23.9565 11.4064C23.7625 11.0703 23.8778 10.64 24.2139 10.4459L25.4177 9.75091C25.7595 9.55353 26.1988 9.65594 26.3967 9.9975Z" fill="#5579F0"/>
<path d="M11.6635 24.9166L10.9686 26.1204C10.7708 26.463 10.3396 26.5946 9.99727 26.3963C9.65571 26.1984 9.5533 25.7591 9.75068 25.4172L10.4457 24.2135C10.6397 23.8774 11.0696 23.7621 11.4061 23.9561C11.7422 24.1502 11.8575 24.5805 11.6635 24.9166Z" fill="#5579F0"/>
<path d="M22.9558 9.21733L17.7963 17.797L14.2021 14.2028L22.9558 9.21733Z" fill="#5CD6C0"/>
<path d="M17.7966 17.7971L9.04297 22.9562L14.2024 14.2029L17.7966 17.7971Z" fill="white"/>
</g>
<defs>
<clipPath id="clip0_1076_93145">
<rect width="32" height="32" fill="white"/>
</clipPath>
</defs>
</svg>
