<svg width="32" height="32" viewBox="0 0 32 32" fill="none" xmlns="http://www.w3.org/2000/svg">
<circle cx="16" cy="16" r="16" fill="#483FDD"/>
<mask id="mask0_1109_87196" style="mask-type:alpha" maskUnits="userSpaceOnUse" x="0" y="0" width="32" height="32">
<circle cx="16" cy="16" r="16" fill="#483FDD"/>
</mask>
<g mask="url(#mask0_1109_87196)">
<rect x="6.62467" y="6.62492" width="18.4167" height="28.75" rx="2.125" fill="#5CD6C0" stroke="white" stroke-width="1.41667"/>
</g>
<path d="M11.333 7.33325H20.6663C20.6663 8.80601 19.4724 9.99992 17.9997 9.99992H13.9997C12.5269 9.99992 11.333 8.80601 11.333 7.33325Z" fill="white"/>
<path fill-rule="evenodd" clip-rule="evenodd" d="M11.9726 14.9193C12.527 13.1637 14.457 12.2499 16.1663 12.9336C17.6758 12.2588 19.4363 13.0498 19.9343 14.6265L20.7628 17.2503H21.668C22.4504 17.2503 23.0846 17.8846 23.0846 18.667C23.0846 19.4494 22.4504 20.0836 21.668 20.0836H10.3346C9.55223 20.0836 8.91797 19.4494 8.91797 18.667C8.91797 17.8846 9.55223 17.2503 10.3346 17.2503H11.2365L11.9726 14.9193ZM15.9992 23.0001C16.1947 23.0001 16.3703 23.1118 16.4798 23.2738C16.9148 23.9175 17.6048 24.3335 18.3816 24.3335C18.7911 24.3335 19.1765 24.2178 19.5132 24.0141C20.8262 23.2197 19.5203 21.6668 17.9857 21.6668H15.9997H15.9987H14.0142C12.4787 21.6668 11.1722 23.221 12.4865 24.015C12.8228 24.2181 13.2078 24.3335 13.6168 24.3335C14.3936 24.3335 15.0836 23.9175 15.5186 23.2738C15.628 23.1118 15.8037 23.0001 15.9992 23.0001Z" fill="#151D51"/>
</svg>
