<svg width="32" height="32" viewBox="0 0 32 32" fill="none" xmlns="http://www.w3.org/2000/svg">
<g clip-path="url(#clip0_1076_93121)">
<circle cx="16" cy="16" r="16" fill="#483FDD"/>
<path fill-rule="evenodd" clip-rule="evenodd" d="M6.56568 18.2673C7.77662 15.9583 11.5224 11.3412 15.9659 11.3412C20.025 11.3412 23.4433 14.5878 25.3662 18.2673H25.3664C25.3664 18.2674 25.3663 18.2675 25.3663 18.2676C25.3663 18.2677 25.3664 18.2677 25.3664 18.2678H25.3661C24.1552 20.5769 20.4095 25.194 15.9659 25.194C11.9068 25.194 8.48855 21.9474 6.56568 18.2678H6.56543C6.56547 18.2677 6.56551 18.2677 6.56556 18.2676C6.56551 18.2675 6.56547 18.2674 6.56543 18.2673H6.56568Z" fill="white"/>
<ellipse cx="15.9853" cy="18.2678" rx="6.92667" ry="6.92667" fill="#5CD6C0"/>
<ellipse cx="15.9838" cy="18.268" rx="3.46334" ry="3.46334" fill="#151D51"/>
<path fill-rule="evenodd" clip-rule="evenodd" d="M17.0875 17.5689C17.7706 17.5689 18.3244 17.0151 18.3244 16.332C18.3244 15.6488 17.7706 15.0951 17.0875 15.0951C16.4044 15.0951 15.8506 15.6488 15.8506 16.332C15.8506 17.0151 16.4044 17.5689 17.0875 17.5689Z" fill="white"/>
<path d="M15.8604 7.99346L15.8604 6.16147" stroke="#5CD6C0" stroke-width="2.92308" stroke-linecap="round"/>
<path d="M9.54297 7.89126L10.5938 9.39194" stroke="#5CD6C0" stroke-width="2.92308" stroke-linecap="round"/>
<path d="M22.1299 7.89126L21.0791 9.39194" stroke="#5CD6C0" stroke-width="2.92308" stroke-linecap="round"/>
<mask id="path-9-inside-1_1076_93121" fill="white">
<ellipse cx="25.51" cy="12.7154" rx="0.803922" ry="0.803921"/>
</mask>
<ellipse cx="25.51" cy="12.7154" rx="0.803922" ry="0.803921" fill="#5CD6C0"/>
<path d="M25.0936 12.7154C25.0936 12.4854 25.28 12.299 25.51 12.299V14.7396C26.6279 14.7396 27.5342 13.8333 27.5342 12.7154H25.0936ZM25.51 12.299C25.7399 12.299 25.9263 12.4854 25.9263 12.7154H23.4858C23.4858 13.8333 24.392 14.7396 25.51 14.7396V12.299ZM25.9263 12.7154C25.9263 12.9453 25.7399 13.1318 25.51 13.1318V10.6912C24.392 10.6912 23.4858 11.5974 23.4858 12.7154H25.9263ZM25.51 13.1318C25.28 13.1318 25.0936 12.9453 25.0936 12.7154H27.5342C27.5342 11.5974 26.6279 10.6912 25.51 10.6912V13.1318Z" fill="#5CD6C0" mask="url(#path-9-inside-1_1076_93121)"/>
<mask id="path-11-inside-2_1076_93121" fill="white">
<ellipse cx="6.49045" cy="12.7154" rx="0.803922" ry="0.803921"/>
</mask>
<ellipse cx="6.49045" cy="12.7154" rx="0.803922" ry="0.803921" fill="#5CD6C0"/>
<path d="M6.07408 12.7154C6.07408 12.4854 6.26049 12.299 6.49045 12.299V14.7396C7.60839 14.7396 8.51466 13.8333 8.51466 12.7154H6.07408ZM6.49045 12.299C6.7204 12.299 6.90681 12.4854 6.90681 12.7154H4.46623C4.46623 13.8333 5.37251 14.7396 6.49045 14.7396V12.299ZM6.90681 12.7154C6.90681 12.9453 6.7204 13.1318 6.49045 13.1318V10.6912C5.37251 10.6912 4.46623 11.5974 4.46623 12.7154H6.90681ZM6.49045 13.1318C6.26049 13.1318 6.07408 12.9453 6.07408 12.7154H8.51466C8.51466 11.5974 7.60839 10.6912 6.49045 10.6912V13.1318Z" fill="#5CD6C0" mask="url(#path-11-inside-2_1076_93121)"/>
</g>
<defs>
<clipPath id="clip0_1076_93121">
<rect width="32" height="32" fill="white"/>
</clipPath>
</defs>
</svg>
