<svg width="48" height="48" viewBox="0 0 48 48" fill="none" xmlns="http://www.w3.org/2000/svg">
<g clip-path="url(#clip0_1632_81894)">
<path opacity="0.25" fill-rule="evenodd" clip-rule="evenodd" d="M23.9999 47.9999C37.2547 47.9999 47.9999 37.2549 47.9999 23.9999C47.9999 10.7452 37.2547 0 23.9999 0C10.7452 0 0 10.7452 0 23.9999C0 37.2549 10.7452 47.9999 23.9999 47.9999Z" fill="#151D51"/>
<path fill-rule="evenodd" clip-rule="evenodd" d="M8.80078 24.7977C8.80078 24.1349 9.33804 23.5977 10.0008 23.5977H38.0008C38.6635 23.5977 39.2008 24.1349 39.2008 24.7977C39.2008 25.4604 38.6635 25.9977 38.0008 25.9977H10.0008C9.33804 25.9977 8.80078 25.4604 8.80078 24.7977Z" fill="white"/>
<path fill-rule="evenodd" clip-rule="evenodd" d="M24.4 15.3152L18.7882 12.8668C17.7172 12.3996 16.4755 12.946 16.0965 14.0513L12 25.9994H36L31.9341 14.1404C31.5442 13.0032 30.2462 12.4645 29.1656 12.9914L24.4 15.3152ZM32.64 23.5994L29.8106 15.347L24.4559 17.958L18.2261 15.24L15.36 23.5994H32.64Z" fill="white"/>
<path fill-rule="evenodd" clip-rule="evenodd" d="M20.3855 31.3161C20.6187 31.0399 20.8253 30.7314 20.9989 30.4H20H15.0011C15.1747 30.7314 15.3813 31.0399 15.6145 31.3161C16.3594 32.1983 17.2321 32.6 18 32.6C18.7679 32.6 19.6406 32.1983 20.3855 31.3161ZM20 28H14.4H12C12 28.8263 12.1418 29.6384 12.399 30.4C13.2744 32.992 15.4871 35 18 35C20.5129 35 22.7256 32.992 23.601 30.4H24.399C25.2744 32.992 27.4871 35 30 35C32.5129 35 34.7256 32.992 35.601 30.4C35.8582 29.6384 36 28.8263 36 28H33.6H28H26.4H26H24H22H21.6H20ZM28 30.4H27.0011C27.1747 30.7314 27.3813 31.0399 27.6145 31.3161C28.3594 32.1983 29.2321 32.6 30 32.6C30.7679 32.6 31.6406 32.1983 32.3855 31.3161C32.6187 31.0399 32.8253 30.7314 32.9989 30.4H28Z" fill="white"/>
</g>
<defs>
<clipPath id="clip0_1632_81894">
<rect width="48" height="48" fill="white"/>
</clipPath>
</defs>
</svg>
