<svg width="48" height="48" viewBox="0 0 48 48" fill="none" xmlns="http://www.w3.org/2000/svg">
<g clip-path="url(#clip0_1632_81904)">
<path opacity="0.25" fill-rule="evenodd" clip-rule="evenodd" d="M23.9999 47.9999C37.2547 47.9999 47.9999 37.2549 47.9999 23.9999C47.9999 10.7452 37.2547 0 23.9999 0C10.7452 0 0 10.7452 0 23.9999C0 37.2549 10.7452 47.9999 23.9999 47.9999Z" fill="#151D51"/>
<path d="M13.0851 22.8507C11.3562 23.6417 11.7178 26.06 13.6954 26.0713L22.1027 26.1052C22.2722 26.1052 22.3287 26.173 22.3287 26.3425L22.3513 34.6933C22.3513 36.637 24.7809 37.0777 25.6397 35.2018L34.194 16.6921C35.1093 14.7145 33.5724 13.4037 31.6853 14.2738L13.0851 22.8507ZM15.7746 24.0372C15.6842 24.0372 15.6503 23.9355 15.752 23.879L31.6853 16.5904C31.8209 16.5339 31.9 16.613 31.8322 16.7486L24.5323 32.6367C24.4871 32.7497 24.3741 32.7271 24.3741 32.6254L24.4193 25.0203C24.4193 24.331 24.0916 23.992 23.3796 23.992L15.7746 24.0372Z" fill="white"/>
</g>
<defs>
<clipPath id="clip0_1632_81904">
<rect width="48" height="48" fill="white"/>
</clipPath>
</defs>
</svg>
