<svg width="48" height="48" viewBox="0 0 48 48" fill="none" xmlns="http://www.w3.org/2000/svg">
<g clip-path="url(#clip0_1632_81912)">
<path opacity="0.25" fill-rule="evenodd" clip-rule="evenodd" d="M23.9999 47.9999C37.2547 47.9999 47.9999 37.2549 47.9999 23.9999C47.9999 10.7452 37.2547 0 23.9999 0C10.7452 0 0 10.7452 0 23.9999C0 37.2549 10.7452 47.9999 23.9999 47.9999Z" fill="#151D51"/>
<path d="M28.9231 10H19.0769C17.3785 10 16 11.3785 16 13.0769V34C16 35.6985 17.3785 37.0769 19.0769 37.0769H28.9231C30.6215 37.0769 32 35.6985 32 34V13.0769C32 11.3785 30.6215 10 28.9231 10ZM24 35.8462C22.9785 35.8462 22.1538 35.0215 22.1538 34C22.1538 32.9785 22.9785 32.1538 24 32.1538C25.0215 32.1538 25.8462 32.9785 25.8462 34C25.8462 35.0215 25.0215 35.8462 24 35.8462ZM29.5385 30.9231H18.4615V13.6923H29.5385V30.9231Z" fill="white"/>
</g>
<defs>
<clipPath id="clip0_1632_81912">
<rect width="48" height="48" fill="white"/>
</clipPath>
</defs>
</svg>
