<svg width="161" height="129" viewBox="0 0 161 129" fill="none" xmlns="http://www.w3.org/2000/svg">
    <ellipse cx="11.1527" cy="10.882" rx="11.1527" ry="10.882"
             transform="matrix(-0.996418 0.0845608 0.0888536 0.996045 139.871 25.1875)" fill="#F5AC4C"/>
    <mask id="mask0_4349_37481" style="mask-type:alpha" maskUnits="userSpaceOnUse" x="118" y="26" width="23"
          height="22">
        <ellipse cx="11.1527" cy="10.882" rx="11.1527" ry="10.882"
                 transform="matrix(-0.996418 0.0845606 0.0888533 0.996045 139.871 25.1875)" fill="#F5AC4C"/>
    </mask>
    <g mask="url(#mask0_4349_37481)">
        <path d="M123.171 41.1809C123.343 41.2035 123.68 41.3107 123.788 41.4261C123.923 41.3425 124.277 41.3253 124.449 41.3479C125.038 41.4247 125.735 42.0669 125.491 42.3707C124.701 43.3634 122.361 43.1085 121.847 41.8949C121.702 41.5402 122.557 41.1008 123.171 41.1809Z"
              fill="white"/>
        <ellipse cx="12.1471" cy="9.74107" rx="12.1471" ry="9.74107"
                 transform="matrix(-0.996418 0.0845608 0.0888536 0.996045 134.125 12.8848)" fill="#151D51"/>
        <ellipse cx="12.1471" cy="9.74107" rx="12.1471" ry="9.74107"
                 transform="matrix(-0.996418 0.0845607 0.0888537 0.996045 150.566 20.0605)" fill="#151D51"/>
    </g>
    <rect width="6.78728" height="11.2133" rx="3.39364"
          transform="matrix(0.982429 -0.184337 0.193593 0.981539 127.961 42.3887)" fill="#F5AC4C"/>
    <path fill-rule="evenodd" clip-rule="evenodd"
          d="M112.22 91.5442C112.299 91.2237 112.324 91.1213 112.318 91.2105L152.856 94.0257C152.457 99.3153 151.002 106.215 149.417 111.306C147.549 117.305 145.178 124.263 142.987 130.684L142.856 131.067C140.657 137.511 138.671 143.33 137.289 147.783C136.572 150.091 136.151 151.612 135.954 152.46C135.924 152.587 135.907 152.665 135.9 152.699C135.912 152.639 135.945 152.449 135.979 152.159C136.012 151.869 136.093 151.106 136.073 150.054C136.059 149.265 135.984 146.81 134.901 143.823L95.9389 157.949C94.7759 154.742 94.6584 151.985 94.6368 150.818C94.6104 149.388 94.7192 148.17 94.8146 147.353C95.0053 145.719 95.3254 144.197 95.5883 143.067C96.1315 140.732 96.9092 138.071 97.7087 135.496C99.2667 130.477 101.414 124.184 103.508 118.05C103.593 117.799 103.679 117.549 103.764 117.3C105.997 110.756 108.176 104.35 109.847 98.9851C111.273 94.4063 112.008 92.4107 112.22 91.5442ZM135.896 152.72C135.896 152.72 135.898 152.714 135.9 152.699C135.898 152.713 135.896 152.72 135.896 152.72Z"
          fill="#151D51"/>
    <path d="M128.343 60.3871C116.266 74.4939 88.5225 74.9814 69.6845 70.7682C50.8466 66.555 45.5667 61.5882 27.9195 39.2122"
          stroke="#009796" stroke-width="19.8929"/>
    <path d="M22.0946 17.9346C22.0946 10.6362 28.0112 4.71964 35.3096 4.71964H65.1092C72.4076 4.71964 78.3242 10.6362 78.3242 17.9346V74.0022C78.3242 81.3006 72.4076 87.2172 65.1092 87.2172H35.3096C28.0112 87.2172 22.0946 81.3006 22.0946 74.0022V17.9346Z"
          fill="white" stroke="#151D51" stroke-width="9.43927"/>
    <path d="M56.0041 7.59766H61L60.1623 7.68844C58.148 7.90674 56.3248 8.98081 55.1575 10.6369L56.0041 7.59766Z"
          fill="#151D51"/>
    <path d="M45.0284 7.59766H39.9648L40.8025 7.68844C42.8169 7.90674 44.64 8.98081 45.8074 10.6369L45.0284 7.59766Z"
          fill="#151D51"/>
    <ellipse cx="50.4831" cy="7.21834" rx="5.84251" ry="5.69856" fill="#151D51"/>
    <path d="M34.5117 31.9947L50.8762 25.834L67.2406 31.9947V46.069C67.2406 53.8643 62.979 61.0359 56.1322 64.7626L53.4199 66.2389C51.8339 67.1021 49.9184 67.1021 48.3324 66.2389L45.6201 64.7626C38.7733 61.0359 34.5117 53.8643 34.5117 46.069V31.9947Z"
          fill="#5CD6C0"/>
    <rect width="6.5653" height="14.2592" rx="3.28265"
          transform="matrix(0.716596 -0.697488 0.716596 0.697488 38.8164 46.3574)" fill="#CEF3EC"/>
    <rect width="6.47335" height="19.6103" rx="3.23667"
          transform="matrix(-0.73488 -0.678197 -0.697779 0.716313 63.2852 42.396)" fill="white"/>
    <path d="M157.066 72.7186C159.137 62.1235 151.613 52.0893 140.867 51.1135L132.868 50.387C122.329 49.4299 113.155 57.6074 112.901 68.1857L112.35 91.1515L152.896 94.0608L157.066 72.7186Z"
          fill="#5CD6C0"/>
    <path d="M147.387 65.1609C152.264 82.9132 141.32 101.198 122.944 106C104.567 110.803 85.7167 100.305 80.8398 82.5527"
          stroke="#5CD6C0" stroke-width="18.2352"/>
    <ellipse cx="12.2533" cy="12.5276" rx="12.2533" ry="12.5276"
             transform="matrix(-0.243042 -0.970016 -0.972748 0.231864 94.0938 85.2461)" fill="#F5AC4C"/>
    <ellipse cx="12.5258" cy="12.8061" rx="12.5258" ry="12.8061"
             transform="matrix(-0.243042 -0.970016 -0.972748 0.231864 31.2773 41.4551)" fill="#F5AC4C"/>
    <ellipse cx="142.627" cy="24.0393" rx="9.41184" ry="9.17993" fill="#151D51"/>
</svg>
