<svg xmlns="http://www.w3.org/2000/svg" width="20" height="20" fill="none"><circle cx="10" cy="10" r="10" fill="#483FDD"/><path fill="#5CD6C0" fill-rule="evenodd" d="M7.992 9.15c0-.518.42-.937.936-.937h7.014c.518 0 .937.42.937.936v5.082c0 .357-.29.647-.648.647a.648.648 0 0 0-.647.648v.274c0 .845-1.044 1.244-1.608.614L12.88 15.19a.936.936 0 0 0-.697-.312H8.928a.937.937 0 0 1-.936-.936V9.149Z" clip-rule="evenodd"/><path stroke="#009796" stroke-linecap="round" stroke-linejoin="round" stroke-width="1.093" d="m11.324 11.732.915.926 1.677-1.851"/><path fill="#fff" fill-rule="evenodd" d="M12.063 5.458a.936.936 0 0 0-.937-.937H4.112a.936.936 0 0 0-.936.937v5.08c0 .359.29.649.648.649.358 0 .648.29.648.648v.273c0 .845 1.043 1.245 1.608.615l1.096-1.225a.936.936 0 0 1 .698-.311h3.252c.518 0 .937-.42.937-.937V5.458Z" clip-rule="evenodd"/><path stroke="#483FDD" stroke-linecap="round" stroke-width="1.093" d="M5.398 6.744h4.444M5.398 8.596H7.99"/></svg>