<svg xmlns="http://www.w3.org/2000/svg" width="20" height="20" fill="none">
    <path fill="#483FDD" d="M20 10c0 5.523-4.477 10-10 10S0 15.523 0 10 4.477 0 10 0s10 4.477 10 10Z"/>
    <mask id="a" width="20" height="20" x="0" y="0" maskUnits="userSpaceOnUse" style="mask-type:alpha">
        <path fill="#483FDD" d="M20 10c0 5.523-4.477 10-10 10S0 15.523 0 10 4.477 0 10 0s10 4.477 10 10Z"/>
    </mask>
    <g mask="url(#a)">
        <path fill="#5CD6C0"
              d="M4.586 6.25c0-.92.746-1.667 1.667-1.667h7.291c.92 0 1.667.746 1.667 1.667V20c0 .92-.746 1.666-1.667 1.666H6.253c-.92 0-1.667-.746-1.667-1.666V6.25Z"/>
        <path fill="#fff" fill-rule="evenodd"
              d="M6.249 3.332h7.291a2.917 2.917 0 0 1 2.917 2.916v13.75a2.917 2.917 0 0 1-2.917 2.917H6.25A2.917 2.917 0 0 1 3.332 20V6.248a2.917 2.917 0 0 1 2.917-2.917Zm0 1.25c-.92 0-1.667.746-1.667 1.666v13.75c0 .92.746 1.667 1.667 1.667h7.291c.92 0 1.667-.746 1.667-1.666V6.248c0-.921-.746-1.667-1.667-1.667H6.25Z"
              clip-rule="evenodd"/>
        <path fill="#151D51"
              d="M11.26 12.69c.713.267 1.07.767 1.07 1.5 0 .547-.227 1.003-.68 1.37-.447.36-1.03.54-1.75.54-.734 0-1.307-.183-1.72-.55-.407-.367-.627-.863-.66-1.49h1.29c.113.633.473.95 1.08.95.326 0 .59-.083.79-.25.2-.173.3-.387.3-.64 0-.287-.1-.51-.3-.67-.2-.16-.474-.24-.82-.24h-.58v-.97h.55c.306 0 .55-.073.73-.22.18-.153.27-.367.27-.64 0-.26-.087-.467-.26-.62-.174-.16-.4-.24-.68-.24-.26 0-.484.073-.67.22-.18.14-.297.343-.35.61H7.61c.02-.553.253-1 .7-1.34.453-.347.996-.52 1.63-.52.606 0 1.123.163 1.55.49.426.32.64.757.64 1.31 0 .607-.29 1.053-.87 1.34v.06Z"/>
    </g>
</svg>