<svg xmlns="http://www.w3.org/2000/svg" width="20" height="20" fill="none"><path fill="#483FDD" d="M10 20c5.523 0 10-4.477 10-10S15.523 0 10 0 0 4.477 0 10s4.477 10 10 10Z"/><path stroke="#5CD6C0" stroke-width="1.5" d="M16.324 10c0 .82-.266 1.34-.668 1.672-.424.35-1.105.578-2.082.578-.643 0-1.34-.277-1.955-.71a4.45 4.45 0 0 1-.992-.944c-.254-.342-.303-.552-.303-.596 0-.074.043-.256.227-.53.174-.262.437-.546.768-.811.673-.54 1.512-.909 2.255-.909.987 0 1.667.228 2.088.577.398.33.662.85.662 1.673ZM3.676 10c0-.82.266-1.34.668-1.672.424-.35 1.105-.578 2.082-.578.764 0 1.6.393 2.27.951.328.273.589.565.762.824.187.281.218.444.218.475 0 .074-.043.256-.227.53-.174.261-.437.546-.767.81-.674.54-1.513.91-2.256.91-.987 0-1.667-.228-2.088-.577-.398-.33-.662-.85-.662-1.673Z"/></svg>