<svg xmlns="http://www.w3.org/2000/svg" width="24" height="24" fill="none"><rect width="23" height="23" x=".5" y=".5" fill="#5CD6C0" rx="6"/><rect width="20.744" height="20.744" x="1.629" y="1.628" fill="#5FE1CA" rx="5"/><path fill="#483FDD" d="M14.333 4.044c0-.555-.452-1.006-1.01-1.006h-2.694c-.558 0-1.01.45-1.01 1.006v3.622c0 .556-.452 1.006-1.01 1.006H7.266c-.889 0-1.344 1.06-.73 1.701l4.71 4.915a1.013 1.013 0 0 0 1.46 0l4.71-4.915c.614-.64.159-1.7-.73-1.7h-1.343c-.558 0-1.01-.451-1.01-1.007V4.044Z"/><rect width="17.081" height="4.272" x="3.527" y="14.873" fill="#7C42D5" rx=".736"/><path fill="#fff" d="M4.655 14.12h.938V9.575h-.839v.213c0 .355-.156.618-.632.618H3.66v.746h.995v2.97ZM7.961 14.192c1.073 0 1.783-.76 1.783-2.345 0-1.577-.71-2.351-1.79-2.351-1.073 0-1.811.774-1.811 2.344 0 1.585.738 2.352 1.818 2.352Zm0-.774c-.469 0-.852-.427-.852-1.57 0-1.144.383-1.578.852-1.578.476 0 .824.448.824 1.585 0 1.122-.34 1.563-.824 1.563ZM11.963 14.192c1.073 0 1.783-.76 1.783-2.345 0-1.577-.71-2.351-1.79-2.351-1.073 0-1.812.774-1.812 2.344 0 1.585.74 2.352 1.82 2.352Zm0-.774c-.469 0-.852-.427-.852-1.57 0-1.144.383-1.578.852-1.578.476 0 .824.448.824 1.585 0 1.122-.34 1.563-.824 1.563ZM17.555 10.569h-1.094l-1.279 1.229h-.057V9.077h-.909v5.044h.91v-1.187l.369-.355 1.058 1.542h1.002l-1.45-2.139 1.45-1.413Z"/><path fill="#fff" d="M20.835 11.762h-1.257V10.57h-.796v1.193H17.51v.739h1.272v1.194h.796V12.5h1.257v-.739ZM5.586 15.6v.798a.601.601 0 0 0-.45-.177c-.407 0-.73.298-.73.804 0 .494.314.81.73.81a.557.557 0 0 0 .463-.214h.028l.034.184h.323V15.6h-.398Zm-.388 1.89c-.236 0-.394-.185-.394-.465 0-.273.158-.46.394-.46.236 0 .388.187.388.46 0 .28-.152.466-.388.466ZM7.088 17.835c.469 0 .82-.329.82-.81 0-.475-.354-.804-.82-.804-.466 0-.82.326-.82.804 0 .478.357.81.82.81Zm0-.344c-.255 0-.422-.205-.422-.466 0-.258.167-.46.422-.46s.426.202.426.46c0 .26-.168.466-.426.466ZM8.438 17.805h.435l.292-1.013h.025l.286 1.012h.434l.42-1.552h-.37l-.26 1.102h-.026l-.288-1.003h-.413l-.292 1h-.025l-.264-1.1h-.367l.413 1.553ZM10.533 17.805h.398v-.842c0-.277.167-.398.357-.398.186 0 .332.125.332.38v.86h.398v-.942c0-.406-.237-.642-.606-.642a.528.528 0 0 0-.457.214h-.024l-.034-.183h-.364v1.553ZM12.365 17.805h.397V15.6h-.397v2.205ZM13.866 17.835c.469 0 .82-.329.82-.81 0-.475-.354-.804-.82-.804-.466 0-.82.326-.82.804 0 .478.357.81.82.81Zm0-.344c-.255 0-.422-.205-.422-.466 0-.258.167-.46.422-.46s.425.202.425.46c0 .26-.167.466-.425.466ZM16.402 17.506c-.075 0-.112-.037-.112-.118v-.568c0-.416-.295-.6-.658-.6-.398 0-.646.227-.677.55h.397c.025-.14.112-.232.28-.232.152 0 .26.083.26.254v.065l-.484.05c-.286.028-.512.174-.512.472 0 .307.232.456.55.456.245 0 .406-.083.512-.217.052.143.167.187.313.187h.168v-.299h-.037Zm-.51-.3c0 .245-.21.325-.378.325-.125 0-.221-.043-.221-.168 0-.12.109-.18.252-.195l.347-.037v.074ZM17.765 15.6v.798a.601.601 0 0 0-.45-.177c-.407 0-.73.298-.73.804 0 .494.314.81.73.81a.557.557 0 0 0 .463-.214h.028l.034.184h.323V15.6h-.398Zm-.388 1.89c-.236 0-.394-.185-.394-.465 0-.273.158-.46.394-.46.236 0 .389.187.389.46 0 .28-.153.466-.389.466ZM19.134 17.835c.329 0 .602-.142.602-.462 0-.292-.192-.416-.463-.485l-.145-.037c-.15-.04-.255-.068-.255-.177 0-.1.084-.158.205-.158.146 0 .233.068.248.18h.382c-.021-.255-.214-.475-.633-.475-.308 0-.581.164-.581.475 0 .304.236.388.444.438l.146.037c.168.043.273.093.273.211 0 .112-.105.159-.226.159-.159 0-.283-.066-.305-.233h-.382c.022.32.252.527.69.527Z"/></svg>