<svg width="28" height="24" viewBox="0 0 28 24" fill="none" xmlns="http://www.w3.org/2000/svg">
<ellipse cx="13.4938" cy="12" rx="12" ry="11.9104" transform="rotate(90 13.4938 12)" fill="#6C1DA0"/>
<ellipse cx="13.4942" cy="12.0003" rx="10.2522" ry="10.1757" transform="rotate(90 13.4942 12.0003)" fill="#7C42D5"/>
<rect y="8.92969" width="27.1642" height="6.31579" rx="2.10526" fill="#6C1DA0"/>
<path d="M4.71696 10.5718H4.02812L3.41675 12.1634L2.8037 10.5718H2.11486V12.9297H2.58475V11.163L3.16749 12.7023H3.66433L4.24707 11.1495V12.9297H4.71696V10.5718ZM6.37807 10.528C5.65217 10.528 5.14017 11.0467 5.14017 11.7507C5.14017 12.4547 5.65217 12.9735 6.37807 12.9735C7.10396 12.9735 7.61765 12.4547 7.61765 11.7507C7.61765 11.0467 7.10396 10.528 6.37807 10.528ZM6.37807 10.9794C6.81259 10.9794 7.12586 11.2926 7.12586 11.7507C7.12586 12.2088 6.81259 12.5221 6.37807 12.5221C5.94523 12.5221 5.63028 12.2088 5.63028 11.7507C5.63028 11.2926 5.94523 10.9794 6.37807 10.9794ZM10.1478 10.5718H9.67625V12.1465L8.47878 10.5718H8.0392V12.9297H8.50909L8.51078 11.355L9.70657 12.9297H10.1478V10.5718ZM12.4456 12.4985H11.1538V11.9562H12.3732V11.5251H11.1538V11.003H12.4321V10.5718H10.6839V12.9297H12.4456V12.4985ZM14.9434 10.5718H14.4078L13.8149 11.5722L13.2221 10.5718H12.6697L13.5775 11.9983V12.9297H14.0474V12L14.9434 10.5718ZM15.98 10.5718V12.9297H17.0006C17.5665 12.9297 17.8882 12.7074 17.8882 12.2543C17.8882 12 17.7114 11.7979 17.4958 11.7255C17.6928 11.6531 17.8377 11.4627 17.8377 11.2253C17.8377 10.7756 17.4924 10.5718 16.9434 10.5718H15.98ZM16.977 11.9495C17.2364 11.9495 17.3998 12.0101 17.3998 12.2307C17.3998 12.4564 17.2364 12.5171 16.977 12.5171L16.4499 12.5154V11.9495H16.977ZM16.9299 10.9861C17.1623 10.9861 17.3476 11.0366 17.3476 11.259C17.3476 11.488 17.1657 11.5368 16.9316 11.5368H16.4499V10.9861H16.9299ZM19.5309 10.5718H18.9582L18.0403 12.9297H18.5304L18.7359 12.3806H19.7414L19.9469 12.9297H20.4488L19.5309 10.5718ZM19.2395 11.0366L19.5797 11.9478H18.8976L19.2395 11.0366ZM21.7695 10.528C21.0436 10.528 20.5316 11.0417 20.5316 11.7507C20.5316 12.4598 21.0436 12.9735 21.7695 12.9735C22.2007 12.9735 22.556 12.7815 22.7649 12.475L22.3809 12.1987C22.2394 12.4042 22.0272 12.5221 21.7661 12.5221C21.3501 12.5221 21.0234 12.224 21.0217 11.7507C21.0217 11.2926 21.3384 10.9794 21.7661 10.9794C22.0289 10.9794 22.2428 11.1006 22.3758 11.3044L22.78 11.0568C22.588 10.7267 22.204 10.528 21.7695 10.528ZM24.7131 12.9297H25.3228L24.2601 11.7221L25.2487 10.5718H24.6592L23.8794 11.5267H23.6571V10.5718H23.1872V12.9297H23.6571V11.9596H23.8744L24.7131 12.9297Z" fill="white"/>
<path fill-rule="evenodd" clip-rule="evenodd" d="M8.12151 16.6595C8.06127 16.5728 7.98416 16.4991 7.8948 16.4428C7.80543 16.3864 7.70563 16.3486 7.60133 16.3315C7.49702 16.3145 7.39034 16.3185 7.28763 16.3434C7.18492 16.3684 7.08828 16.4136 7.00346 16.4766C6.91864 16.5395 6.84737 16.6189 6.79389 16.7099C6.74041 16.8009 6.70581 16.9017 6.69216 17.0063C6.6785 17.1109 6.68606 17.2172 6.71439 17.3188C6.74272 17.4205 6.79124 17.5154 6.85706 17.5979C6.91598 17.6789 6.99098 17.7469 7.07739 17.7977C7.16379 17.8485 7.25976 17.881 7.3593 17.8932C7.45884 17.9053 7.55982 17.8969 7.65595 17.8684C7.75208 17.8399 7.84131 17.7919 7.91806 17.7275C7.94847 17.7048 7.97738 17.6801 8.00463 17.6536L7.56699 17.0717L7.34276 17.2389L7.56439 17.5344C7.4852 17.5719 7.39472 17.5781 7.31117 17.5516C7.22762 17.5251 7.15723 17.468 7.1142 17.3918C7.05233 17.2957 7.02923 17.1798 7.04954 17.0673C7.06985 16.9549 7.13207 16.8543 7.22368 16.7858C7.31529 16.7174 7.42948 16.686 7.54329 16.6982C7.6571 16.7103 7.76208 16.765 7.83711 16.8513C7.87474 16.8984 7.90193 16.953 7.91686 17.0114C7.93178 17.0698 7.93411 17.1307 7.92369 17.19L8.28211 17.2445C8.2972 17.1412 8.29073 17.0359 8.26309 16.9352C8.23545 16.8346 8.18725 16.7407 8.12151 16.6595ZM9.76645 18.1367L9.47123 17.9258L8.95178 18.6478C8.93121 18.6853 8.90288 18.7181 8.86868 18.7439C8.83448 18.7698 8.79519 18.788 8.75338 18.7976C8.71158 18.8071 8.66821 18.8077 8.62617 18.7992C8.58412 18.7908 8.54436 18.7736 8.50949 18.7486C8.47462 18.7237 8.44545 18.6917 8.4239 18.6547C8.40235 18.6177 8.38892 18.5766 8.38449 18.534C8.38006 18.4914 8.38474 18.4484 8.39821 18.4077C8.41167 18.3671 8.43363 18.3298 8.46262 18.2983L8.98208 17.5763L8.68685 17.365L8.15787 18.0995C8.05535 18.2428 8.01404 18.4208 8.04302 18.5944C8.072 18.768 8.16891 18.9231 8.31242 19.0254C8.45593 19.1277 8.63427 19.169 8.80825 19.14C8.98222 19.1111 9.13755 19.0144 9.24007 18.8712L9.76645 18.1367ZM10.8409 18.5869L10.44 18.4261L9.33141 19.6095L9.68204 19.75L9.90758 19.4985L10.466 19.7223L10.4534 20.0593L10.811 20.2027L10.8409 18.5869ZM10.5024 18.837L10.4816 19.3779L10.14 19.241L10.5024 18.837ZM11.6737 18.8599L11.3837 20.3488L11.7404 20.4175L11.8486 19.8601L11.901 19.8701L12.1867 20.503L12.6118 20.5847L12.2932 19.9366C12.4081 19.9527 12.5247 19.9238 12.6187 19.8559C12.7126 19.788 12.7766 19.6863 12.797 19.5724C12.8117 19.5019 12.8105 19.4291 12.7936 19.3592C12.7767 19.2893 12.7445 19.224 12.6992 19.168C12.6539 19.112 12.5968 19.0667 12.5319 19.0354C12.467 19.0041 12.396 18.9875 12.3239 18.9869L11.6737 18.8599ZM12.2568 19.3062C12.2823 19.304 12.3079 19.3077 12.3316 19.3171C12.3554 19.3264 12.3766 19.3412 12.3937 19.3601C12.4108 19.3791 12.4232 19.4017 12.4301 19.4263C12.4369 19.4509 12.4379 19.4767 12.433 19.5017C12.4281 19.5267 12.4175 19.5503 12.4019 19.5705C12.3864 19.5907 12.3663 19.607 12.3434 19.6182C12.3204 19.6294 12.2952 19.6351 12.2696 19.6348C12.2441 19.6346 12.219 19.6285 12.1962 19.6169L11.907 19.5611L11.9677 19.2505L12.2568 19.3062ZM14.158 19.1917L13.7251 19.1801L13.1001 20.6758L13.4784 20.6862L13.6026 20.3717L14.2052 20.3885L14.3113 20.7091L14.6974 20.7195L14.158 19.1917ZM13.9277 19.5443L14.0974 20.0589L13.7286 20.0489L13.9277 19.5443ZM16.3177 18.8461L15.9627 18.9299L16.1761 19.8307L15.2865 19.0893L14.9476 19.1693L15.2974 20.646L15.6515 20.5626L15.4381 19.6618L16.3276 20.4032L16.6679 20.3233L16.3177 18.8461ZM17.6202 18.198L16.509 18.7839L16.6657 19.079L17.0622 18.8699L17.6133 19.9068L17.9323 19.7383L17.3817 18.7014L17.7769 18.4927L17.6202 18.198ZM19.4946 18.1807L18.8911 18.6992L18.7106 18.491L19.276 18.0058L19.0647 17.7617L18.4994 18.2468L18.3293 18.0498L18.9292 17.5348L18.7176 17.2899L17.844 18.0395L18.8284 19.1775L19.705 18.4248L19.4946 18.1807ZM20.6382 16.8163L20.1443 17.4432L19.9279 17.2726L20.3902 16.6854L20.1348 16.4858L19.672 17.073L19.4656 16.9118L19.9569 16.2884L19.7006 16.0879L18.9855 16.9952L20.179 17.9276L20.8945 17.0172L20.6382 16.8163Z" fill="white"/>
<path fill-rule="evenodd" clip-rule="evenodd" d="M6.43611 6.3575C6.36638 6.43853 6.31516 6.53279 6.28578 6.63413C6.2564 6.73548 6.24951 6.84165 6.26557 6.94576C6.28162 7.04986 6.32026 7.14957 6.37897 7.23841C6.43768 7.32725 6.51514 7.40322 6.60635 7.46141C6.69432 7.52474 6.79478 7.57017 6.90158 7.59493C7.00839 7.61968 7.1193 7.62323 7.22755 7.60537C7.3358 7.58752 7.43911 7.54861 7.53118 7.49105C7.62325 7.43349 7.70214 7.35848 7.76304 7.27059C7.82558 7.19158 7.87026 7.10088 7.89423 7.00428C7.9182 6.90768 7.92095 6.80731 7.90227 6.7096C7.88358 6.61189 7.84388 6.51901 7.78573 6.43688C7.72758 6.35475 7.65226 6.2852 7.56457 6.23267C7.53261 6.21042 7.49901 6.19047 7.46401 6.17296L7.01731 6.7577L7.25344 6.91954L7.47928 6.62289C7.54092 6.68634 7.57491 6.77011 7.57423 6.85692C7.57355 6.94373 7.53827 7.02696 7.47565 7.08943C7.43996 7.13646 7.39456 7.1759 7.34229 7.20528C7.29002 7.23466 7.232 7.25335 7.17187 7.26018C7.11173 7.26701 7.05076 7.26183 6.99278 7.24497C6.9348 7.22812 6.88105 7.19994 6.83489 7.1622C6.78396 7.13294 6.74 7.0937 6.70586 7.04702C6.67173 7.00035 6.6482 6.94729 6.63679 6.8913C6.62537 6.83532 6.62633 6.77765 6.63962 6.72207C6.6529 6.66648 6.6782 6.61422 6.71388 6.56868C6.74942 6.51877 6.7955 6.47665 6.84913 6.44506C6.90277 6.41347 6.96274 6.39313 7.02512 6.38537L6.96932 6.03146C6.862 6.04795 6.75933 6.08538 6.66764 6.14145C6.57595 6.19752 6.49716 6.27104 6.43611 6.3575ZM8.4175 4.51632L8.12602 4.74709L8.71982 5.42261C8.75103 5.45052 8.77522 5.48489 8.79058 5.52312C8.80594 5.56135 8.81205 5.60244 8.80846 5.64327C8.80487 5.6841 8.79167 5.72359 8.76985 5.75877C8.74804 5.79395 8.71817 5.82389 8.68254 5.84631C8.65238 5.87579 8.61576 5.89841 8.57533 5.91252C8.53491 5.92663 8.49171 5.93187 8.44889 5.92787C8.40608 5.92386 8.36473 5.91071 8.32786 5.88937C8.291 5.86802 8.25954 5.83903 8.2358 5.80451L7.64245 5.129L7.35141 5.35934L7.95408 6.04568C8.00783 6.11718 8.07724 6.17644 8.15742 6.2193C8.23759 6.26216 8.32656 6.28755 8.41804 6.29369C8.50951 6.29982 8.60124 6.28656 8.68677 6.25482C8.77229 6.22308 8.84952 6.17364 8.91297 6.11001C8.99017 6.06336 9.05545 6.00057 9.10394 5.92629C9.15243 5.85202 9.1829 5.76819 9.19307 5.68101C9.20324 5.59383 9.19286 5.50556 9.16269 5.42274C9.13253 5.33993 9.08336 5.2647 9.01883 5.20265L8.4175 4.51632ZM9.77814 3.79604L9.37432 3.98463L9.52013 5.58503L9.8746 5.42012L9.83694 5.08699L10.4018 4.8244L10.6549 5.05732L11.0165 4.88817L9.77814 3.79604ZM9.73601 4.21153L10.1417 4.58498L9.79624 4.74566L9.73601 4.21153ZM10.8342 3.38167L11.1916 4.84655L11.5606 4.76346L11.4268 4.21456L11.481 4.20252L12.0224 4.66003L12.4621 4.56202L11.8814 4.10204C11.9972 4.07118 12.0959 3.99815 12.1566 3.89845C12.2172 3.79875 12.2352 3.68021 12.2066 3.56795C12.1898 3.49781 12.1572 3.43208 12.111 3.37545C12.0649 3.31882 12.0063 3.2727 11.9394 3.24037C11.8726 3.20804 11.7991 3.19032 11.7243 3.18846C11.6496 3.18659 11.5753 3.20063 11.5069 3.22959L10.8342 3.38167ZM11.5799 3.54967C11.6029 3.53691 11.6287 3.52951 11.6553 3.52806C11.6818 3.52661 11.7083 3.53116 11.7327 3.54133C11.7571 3.5515 11.7787 3.56701 11.7957 3.58663C11.8128 3.60625 11.8248 3.62943 11.8309 3.65432C11.8369 3.6792 11.8369 3.70511 11.8307 3.72996C11.8245 3.75481 11.8123 3.77792 11.7952 3.79743C11.778 3.81695 11.7564 3.83233 11.7319 3.84235C11.7075 3.85237 11.681 3.85675 11.6544 3.85514L11.3548 3.92201L11.2803 3.61654L11.5799 3.54967ZM13.6323 3.03653L13.1813 3.03296L12.5625 4.53315L12.9572 4.53626L13.0795 4.22159L13.7081 4.22355L13.8254 4.53925L14.2277 4.54243L13.6323 3.03653ZM13.4002 3.39204L13.5885 3.8988L13.2041 3.89576L13.4002 3.39204ZM16.2234 3.44831L15.8553 3.35939L15.6141 4.25064L15.1538 3.19088L14.8022 3.10683L14.4068 4.56835L14.774 4.65726L15.0152 3.76558L15.4755 4.82534L15.828 4.90983L16.2234 3.44831ZM17.9127 4.21934L16.7445 3.65109L16.5835 3.94696L17.0003 4.14978L16.4352 5.1907L16.7706 5.35374L17.3361 4.31283L17.7517 4.51478L17.9127 4.21934ZM18.4977 6.13669L17.8498 5.6392L18.0329 5.42563L18.6391 5.89226L18.8539 5.64197L18.2477 5.17534L18.4209 4.97331L19.0644 5.46862L19.2801 5.21747L18.3433 4.49624L17.3417 5.66529L18.2821 6.38913L18.4977 6.13669ZM19.501 7.27643L18.9814 6.65912L19.2063 6.48888L19.6935 7.06681L19.9589 6.8655L19.4716 6.28758L19.6856 6.125L20.2026 6.73885L20.4688 6.53669L19.7158 5.64319L18.4777 6.58376L19.233 7.48029L19.501 7.27643Z" fill="white"/>
</svg>
