<svg width="168" height="47" viewBox="0 0 168 47" fill="none" xmlns="http://www.w3.org/2000/svg">
    <path d="M145.795 39.9397V41.0663H144.519V42.6758H143.105V41.0663H139.587V40.3305L143.013 35.3182H144.519V39.9397H145.795ZM141.3 39.9397H143.105V37.284H143.001L141.3 39.9397ZM147.742 40.9858C148.033 40.9858 148.259 41.097 148.42 41.3192C148.589 41.5338 148.673 41.8174 148.673 42.1699C148.673 42.6834 148.535 43.128 148.259 43.5035C147.991 43.8867 147.669 44.1933 147.293 44.4232L146.914 43.9749C147.42 43.5533 147.677 43.1395 147.684 42.7333C147.485 42.7563 147.297 42.6911 147.121 42.5378C146.952 42.3769 146.868 42.1546 146.868 41.871C146.868 41.6028 146.948 41.3882 147.109 41.2273C147.278 41.0663 147.489 40.9858 147.742 40.9858ZM154.106 38.8015C154.451 38.9318 154.75 39.1579 155.002 39.4798C155.255 39.7941 155.382 40.1888 155.382 40.6639C155.382 41.3001 155.14 41.8136 154.658 42.2044C154.175 42.5953 153.512 42.7907 152.669 42.7907C151.826 42.7907 151.155 42.5953 150.657 42.2044C150.166 41.8136 149.921 41.3001 149.921 40.6639C149.921 40.1888 150.051 39.7902 150.312 39.4683C150.573 39.1464 150.872 38.9242 151.209 38.8015V38.7326C150.534 38.4107 150.197 37.901 150.197 37.2036C150.197 36.5981 150.427 36.1114 150.887 35.7435C151.354 35.3757 151.952 35.1917 152.68 35.1917C153.401 35.1917 153.987 35.3718 154.439 35.732C154.891 36.0846 155.117 36.5674 155.117 37.1806C155.117 37.878 154.78 38.3953 154.106 38.7326V38.8015ZM152.669 36.2494C152.37 36.2494 152.121 36.3375 151.921 36.5138C151.73 36.6901 151.634 36.9315 151.634 37.238C151.634 37.537 151.734 37.7784 151.933 37.9623C152.132 38.1386 152.378 38.2267 152.669 38.2267C152.96 38.2267 153.198 38.1386 153.382 37.9623C153.573 37.786 153.669 37.5446 153.669 37.238C153.669 36.9315 153.573 36.6901 153.382 36.5138C153.198 36.3375 152.96 36.2494 152.669 36.2494ZM152.669 41.6871C153.006 41.6871 153.286 41.5875 153.508 41.3882C153.73 41.1813 153.841 40.9054 153.841 40.5605C153.841 40.2079 153.734 39.9243 153.519 39.7097C153.305 39.4951 153.017 39.3879 152.657 39.3879C152.289 39.3879 151.998 39.4951 151.784 39.7097C151.569 39.9243 151.462 40.2003 151.462 40.5375C151.462 40.89 151.577 41.1698 151.807 41.3767C152.036 41.5836 152.324 41.6871 152.669 41.6871ZM161.21 34.0536L157.221 43.2506H155.818L159.819 34.0536H161.21ZM164.565 37.8818C165.27 37.8818 165.841 38.1118 166.278 38.5716C166.714 39.0238 166.933 39.5986 166.933 40.2961C166.933 41.0548 166.672 41.6603 166.151 42.1125C165.63 42.5647 164.967 42.7907 164.162 42.7907C163.396 42.7907 162.775 42.5838 162.3 42.1699C161.825 41.7561 161.568 41.1928 161.53 40.48H162.99C163.02 40.8249 163.143 41.097 163.358 41.2962C163.572 41.4955 163.848 41.5951 164.185 41.5951C164.561 41.5951 164.86 41.4802 165.082 41.2502C165.312 41.0203 165.427 40.7138 165.427 40.3305C165.427 39.9397 165.316 39.6216 165.094 39.3764C164.879 39.1234 164.588 38.997 164.22 38.997C163.683 38.997 163.296 39.2077 163.059 39.6293L161.702 39.3304L162.093 35.3182H166.588V36.5483H163.392L163.197 38.3072C163.542 38.0236 163.998 37.8818 164.565 37.8818Z"
          fill="#151D51"/>
    <path d="M2.82653 42.3074H8.10887V43.6758H1.31098V33.3759H7.96173V34.7444H2.82653V37.7754H7.32902V39.1144H2.82653V42.3074ZM8.82075 43.6758L11.381 39.8796L9.01203 36.3188H10.7189L12.2933 38.7171H12.3963L13.9412 36.3188H15.6334L13.2938 39.8796L15.8393 43.6758H14.1178L12.3963 41.0125H12.2933L10.5423 43.6758H8.82075ZM19.7257 43.8229C18.6074 43.8229 17.7049 43.4698 17.0183 42.7635C16.3414 42.0474 16.003 41.1401 16.003 40.0414C16.003 38.9133 16.3513 37.9864 17.0477 37.2605C17.754 36.5346 18.6417 36.1716 19.711 36.1716C20.584 36.1716 21.3393 36.4119 21.9769 36.8926C22.6243 37.3635 23.0069 38.0256 23.1246 38.879H21.6238C21.5355 38.4768 21.3197 38.1433 20.9764 37.8784C20.633 37.6136 20.2112 37.4812 19.711 37.4812C19.0635 37.4812 18.5289 37.7264 18.1071 38.2169C17.6951 38.6975 17.4891 39.3057 17.4891 40.0414C17.4891 40.7575 17.6902 41.351 18.0924 41.8218C18.5044 42.2829 19.0488 42.5134 19.7257 42.5134C20.7066 42.5134 21.3491 42.0818 21.6532 41.2185H23.154C23.0265 42.0131 22.6489 42.6458 22.0211 43.1166C21.4031 43.5875 20.6379 43.8229 19.7257 43.8229ZM30.8672 39.8943C30.8672 39.9629 30.8574 40.1248 30.8377 40.3798H25.3935C25.4328 41.0469 25.6437 41.5864 26.0262 41.9984C26.4088 42.4006 26.9189 42.6017 27.5565 42.6017C28.5473 42.6017 29.1603 42.224 29.3958 41.4687H30.8377C30.6808 42.2044 30.3129 42.7831 29.7342 43.2049C29.1554 43.6169 28.4295 43.8229 27.5565 43.8229C26.4873 43.8229 25.6143 43.4796 24.9374 42.7929C24.2606 42.1063 23.9221 41.1989 23.9221 40.0708C23.9221 38.8937 24.2606 37.952 24.9374 37.2457C25.6241 36.5297 26.4775 36.1716 27.4977 36.1716C28.459 36.1716 29.2584 36.4904 29.896 37.128C30.5435 37.7656 30.8672 38.6877 30.8672 39.8943ZM27.4977 37.3929C26.9287 37.3929 26.4579 37.5744 26.0851 37.9373C25.7123 38.3002 25.4867 38.7613 25.4083 39.3204H29.4105C29.4007 38.7515 29.2192 38.2904 28.8661 37.9373C28.5129 37.5744 28.0568 37.3929 27.4977 37.3929ZM32.1485 43.6758V33.2288H33.6494V43.6758H32.1485ZM35.1534 43.6758V33.2288H36.6542V43.6758H35.1534ZM44.8104 39.8943C44.8104 39.9629 44.8006 40.1248 44.7809 40.3798H39.3367C39.376 41.0469 39.5869 41.5864 39.9695 41.9984C40.352 42.4006 40.8621 42.6017 41.4997 42.6017C42.4905 42.6017 43.1035 42.224 43.339 41.4687H44.7809C44.624 42.2044 44.2561 42.7831 43.6774 43.2049C43.0986 43.6169 42.3727 43.8229 41.4997 43.8229C40.4305 43.8229 39.5575 43.4796 38.8806 42.7929C38.2038 42.1063 37.8653 41.1989 37.8653 40.0708C37.8653 38.8937 38.2038 37.952 38.8806 37.2457C39.5673 36.5297 40.4207 36.1716 41.4409 36.1716C42.4022 36.1716 43.2016 36.4904 43.8392 37.128C44.4867 37.7656 44.8104 38.6877 44.8104 39.8943ZM41.4409 37.3929C40.8719 37.3929 40.4011 37.5744 40.0283 37.9373C39.6556 38.3002 39.4299 38.7613 39.3515 39.3204H43.3537C43.3439 38.7515 43.1624 38.2904 42.8093 37.9373C42.4561 37.5744 42 37.3929 41.4409 37.3929ZM46.0774 43.6758V36.3188H47.4311L47.5782 37.2016H47.6812C48.1913 36.5149 48.9074 36.1716 49.8295 36.1716C50.6632 36.1716 51.3303 36.4316 51.8306 36.9515C52.3308 37.4615 52.581 38.1825 52.581 39.1144V43.6758H51.0801V39.4381C51.0801 38.7907 50.9232 38.3052 50.6093 37.9814C50.3052 37.6479 49.903 37.4812 49.4027 37.4812C48.8828 37.4812 48.4463 37.6577 48.0932 38.0109C47.7499 38.3542 47.5782 38.8692 47.5782 39.5558V43.6758H46.0774ZM56.8093 43.8229C55.4654 43.8229 54.7935 43.1804 54.7935 41.8954V37.5253H53.2043V36.3188H53.7193C54.1509 36.3188 54.455 36.2354 54.6316 36.0686C54.818 35.9019 54.9112 35.6174 54.9112 35.2152V34.3176H56.2796V36.3188H58.1483V37.5253H56.2796V41.6894C56.2796 42.3074 56.5984 42.6164 57.236 42.6164C57.4812 42.6164 57.7216 42.5771 57.957 42.4987V43.6611C57.545 43.769 57.1624 43.8229 56.8093 43.8229Z"
          fill="#151D51"/>
    <rect class="trust-pilot__rating-star" x="68.209" y="32.9043" width="11.5295" height="11.2483" fill="#51B27E"/>
    <rect class="trust-pilot__rating-star" x="81.0195" y="32.9043" width="11.5295" height="11.2483" fill="#51B27E"/>
    <rect class="trust-pilot__rating-star" x="93.8301" y="32.9043" width="11.5295" height="11.2483" fill="#51B27E"/>
    <rect class="trust-pilot__rating-star" x="106.641" y="32.9043" width="11.5295" height="11.2483" fill="#51B27E"/>
    <rect class="trust-pilot__rating-star" x="119.451" y="32.9043" width="11.5295" height="11.2483" fill="#51B27E"/>
    <path d="M73.8743 34.3477L74.8586 37.3031H78.0439L75.467 39.1297L76.4513 42.0851L73.8743 40.2586L71.2974 42.0851L72.2817 39.1297L69.7048 37.3031H72.89L73.8743 34.3477Z"
          fill="white"/>
    <path d="M86.6849 34.1543L87.6692 37.1098H90.8544L88.2775 38.9363L89.2618 41.8918L86.6849 40.0652L84.108 41.8918L85.0923 38.9363L82.5154 37.1098H85.7006L86.6849 34.1543Z"
          fill="white"/>
    <path d="M99.4954 34.1543L100.48 37.1098H103.665L101.088 38.9363L102.072 41.8918L99.4954 40.0652L96.9185 41.8918L97.9028 38.9363L95.3259 37.1098H98.5111L99.4954 34.1543Z"
          fill="white"/>
    <path d="M112.306 34.1543L113.29 37.1098H116.476L113.899 38.9363L114.883 41.8918L112.306 40.0652L109.729 41.8918L110.713 38.9363L108.136 37.1098H111.322L112.306 34.1543Z"
          fill="white"/>
    <path d="M125.117 34.1543L126.101 37.1098H129.286L126.709 38.9363L127.693 41.8918L125.117 40.0652L122.54 41.8918L123.524 38.9363L120.947 37.1098H124.132L125.117 34.1543Z"
          fill="white"/>
    <path d="M74.531 12.4676V18.2244C74.531 19.4196 74.7801 20.3117 75.2948 20.9009C75.8096 21.49 76.6565 21.7762 77.8022 21.7762C78.2838 21.7762 78.7654 21.6415 79.2469 21.3554C79.7119 21.086 80.0772 20.7157 80.3097 20.2612H80.3429V21.5237H82.2359V12.4676H80.2931V17.7363C80.2931 18.0898 80.2598 18.4096 80.1768 18.7126C80.0938 19.0156 79.9776 19.2849 79.8115 19.4869C79.6454 19.7057 79.4296 19.8741 79.1473 20.0087C78.865 20.1434 78.5329 20.1939 78.1344 20.1939C77.603 20.1939 77.1878 20.0256 76.8889 19.7057C76.59 19.3691 76.4406 18.8136 76.4406 18.0224V12.4676H74.531V12.4676ZM91.9334 12.4676H91.95H91.9334ZM108.622 21.5405H110.548V12.4676L108.622 12.4676V21.5405ZM125.161 12.4676H125.177H125.161ZM71.7579 12.4002C71.4756 12.5181 71.2099 12.6696 70.9774 12.8716C70.745 13.0567 70.5457 13.2756 70.3796 13.5112C70.2136 13.7469 70.1139 13.9825 70.0475 14.235H70.0143V12.4676H68.2043V21.5237H70.1472V17.2145C70.1472 16.7095 70.2136 16.2718 70.3298 15.8847C70.4627 15.4975 70.6287 15.1777 70.8446 14.9084C71.0605 14.6559 71.3095 14.4539 71.5918 14.3192C71.8907 14.1845 72.1896 14.1172 72.5217 14.1172C72.6546 14.1172 72.804 14.134 72.9369 14.134C73.0863 14.1509 73.2192 14.1677 73.352 14.2014V12.2656C73.2524 12.2656 73.1693 12.2319 73.0863 12.2319C73.0033 12.2319 72.8372 12.2151 72.6214 12.2151C72.3225 12.2151 72.0402 12.2824 71.7579 12.4002ZM86.2212 12.3329C85.7894 12.4171 85.3909 12.5686 85.0256 12.7706C84.6769 12.9726 84.378 13.2419 84.1455 13.5786C83.913 13.9152 83.7968 14.3192 83.7968 14.8074C83.7968 15.2618 83.8798 15.649 84.0293 15.952C84.1787 16.255 84.3946 16.5243 84.6603 16.7095C84.926 16.9115 85.2249 17.063 85.557 17.1808C85.8891 17.2986 86.2378 17.3996 86.6031 17.4838C86.9518 17.568 87.3005 17.6353 87.6326 17.7194C87.9813 17.7868 88.2802 17.8878 88.5459 17.9719C88.8116 18.0729 89.0275 18.2076 89.1935 18.3759C89.3596 18.5443 89.4592 18.7463 89.4758 18.9988C89.4758 19.2512 89.426 19.4532 89.2932 19.6216C89.1603 19.7731 88.9943 19.9077 88.795 19.9751C88.5958 20.0592 88.3799 20.1097 88.1474 20.1434C87.9149 20.1771 87.7157 20.1939 87.533 20.1939C87.0016 20.1939 86.5699 20.0761 86.188 19.8404C85.8226 19.6047 85.6068 19.2007 85.5404 18.6116V18.6284H83.5975C83.6141 19.1671 83.7138 19.6384 83.913 20.0256C84.1123 20.4127 84.378 20.7325 84.7267 21.0019C85.0754 21.2544 85.4739 21.4564 85.9555 21.591C86.4204 21.7257 86.9352 21.793 87.4998 21.793C87.9481 21.793 88.4131 21.7425 88.878 21.6247C89.343 21.5237 89.7747 21.3385 90.1401 21.1197C90.522 20.884 90.8209 20.581 91.07 20.2107C91.3024 19.8236 91.4353 19.3859 91.4353 18.8473C91.4353 18.4096 91.3522 18.0224 91.1862 17.7194C91.0201 17.4165 90.8043 17.164 90.5386 16.962C90.2729 16.76 89.974 16.5916 89.6253 16.4906C89.2766 16.3896 88.9445 16.2718 88.5791 16.1877C88.2138 16.1035 87.8651 16.0193 87.533 15.952C87.1843 15.8847 86.8854 15.8005 86.6197 15.6995C86.354 15.5985 86.1382 15.4638 85.9721 15.3123C85.806 15.1608 85.723 14.9757 85.723 14.7232C85.723 14.5212 85.7894 14.3529 85.8891 14.235C86.0053 14.1172 86.1382 14.0162 86.3042 13.9489C86.4703 13.8815 86.6529 13.8479 86.8356 13.8142C87.0182 13.7805 87.1843 13.7805 87.3171 13.7805C87.7489 13.7805 88.1308 13.8647 88.4629 14.033C88.795 14.1845 88.9943 14.5212 89.0939 14.9925L91.1198 14.9925C91.0534 14.4875 90.9205 14.0499 90.7046 13.6964C90.4888 13.3429 90.2065 13.0567 89.8744 12.8379C89.5423 12.6022 89.1603 12.4507 88.7452 12.3497C88.3301 12.2488 87.8983 12.1983 87.45 12.1983C87.0847 12.2151 86.6529 12.2656 86.2212 12.3329ZM101.747 19.9582C101.448 19.7899 101.199 19.5711 100.983 19.3017C100.768 19.0156 100.601 18.6789 100.502 18.2918C100.386 17.9046 100.336 17.4838 100.336 17.0125C100.336 16.0362 100.535 15.2618 100.95 14.6727C101.365 14.0835 101.98 13.7974 102.793 13.7974C103.192 13.7974 103.541 13.8984 103.856 14.0667C104.155 14.235 104.404 14.4875 104.62 14.7737C104.819 15.0767 104.985 15.4133 105.085 15.8005C105.185 16.1877 105.234 16.5916 105.234 16.9956C105.234 17.3996 105.185 17.7868 105.118 18.1571C105.035 18.5443 104.886 18.8809 104.686 19.1671C104.487 19.4532 104.238 19.7057 103.939 19.8909C103.624 20.0761 103.258 20.1771 102.81 20.1771C102.395 20.2107 102.046 20.1266 101.747 19.9582ZM101.448 12.5686C100.967 12.8042 100.585 13.1746 100.303 13.6964H100.269V12.4676H98.4428V24.8903H100.386V20.3622H100.419C100.568 20.5979 100.751 20.8167 100.983 21.0019C101.199 21.187 101.448 21.3385 101.697 21.4564C101.946 21.5742 102.229 21.6584 102.511 21.7089C102.793 21.7593 103.076 21.793 103.358 21.793C104.006 21.793 104.57 21.6584 105.052 21.389C105.533 21.1197 105.932 20.783 106.231 20.3286C106.53 19.8909 106.762 19.3859 106.928 18.8136C107.078 18.2413 107.161 17.6521 107.161 17.0461C107.161 16.3896 107.078 15.75 106.912 15.1777C106.745 14.5885 106.496 14.0835 106.148 13.6459C105.799 13.2082 105.384 12.8547 104.869 12.6022C104.354 12.3497 103.756 12.2151 103.059 12.2151C102.461 12.2151 101.946 12.3329 101.448 12.5686ZM119.033 19.9246C118.718 19.7394 118.469 19.4869 118.253 19.1839C118.054 18.8809 117.888 18.5443 117.805 18.1571C117.705 17.7699 117.655 17.3828 117.655 16.9956C117.655 16.6085 117.705 16.2213 117.805 15.8342C117.904 15.447 118.054 15.1103 118.253 14.8074C118.469 14.5212 118.718 14.2687 119.033 14.0835C119.349 13.8984 119.731 13.7974 120.163 13.7974C120.594 13.7974 120.96 13.8984 121.292 14.0835C121.607 14.2687 121.873 14.5044 122.072 14.8074C122.271 15.1103 122.438 15.447 122.521 15.8342C122.62 16.2213 122.67 16.6085 122.67 16.9956C122.67 17.3996 122.62 17.7868 122.521 18.1571C122.421 18.5443 122.271 18.8809 122.072 19.1839C121.873 19.4869 121.607 19.7394 121.292 19.9246C120.976 20.1097 120.594 20.2107 120.163 20.2107C119.731 20.2107 119.349 20.1097 119.033 19.9246ZM118.286 12.5854C117.738 12.8211 117.273 13.1577 116.891 13.5786C116.509 13.9994 116.227 14.5044 116.028 15.0935C115.829 15.6827 115.729 16.3223 115.729 17.0125C115.729 17.7026 115.829 18.3591 116.028 18.9314C116.227 19.5206 116.509 20.0256 116.891 20.4464C117.273 20.8672 117.738 21.2039 118.286 21.4395C118.834 21.6752 119.465 21.793 120.163 21.793C120.86 21.793 121.491 21.6752 122.039 21.4395C122.587 21.2039 123.052 20.8672 123.434 20.4464C123.816 20.0256 124.098 19.5206 124.297 18.9314C124.497 18.3423 124.596 17.7026 124.596 17.0125C124.596 16.3223 124.497 15.6827 124.297 15.0935C124.098 14.5044 123.816 13.9994 123.434 13.5786C123.052 13.1577 122.587 12.8211 122.039 12.5854C121.491 12.3497 120.86 12.2151 120.163 12.2151C119.465 12.2151 118.834 12.3329 118.286 12.5854ZM93.3947 9.74065V12.4676H91.95V13.9825H93.4113V19.3354C93.4113 19.7057 93.4611 20.0424 93.5276 20.3286C93.594 20.6147 93.7102 20.8672 93.8929 21.0524C94.0589 21.2544 94.308 21.4059 94.6235 21.49C94.9224 21.591 95.3375 21.6415 95.8523 21.6415C96.0682 21.6415 96.2674 21.6247 96.4833 21.6079C96.6826 21.5742 96.8984 21.5574 97.1143 21.5405V19.9919C96.9815 20.0256 96.8486 20.0424 96.6992 20.0592C96.5663 20.0761 96.4335 20.0761 96.284 20.0761C96.0682 20.0761 95.9021 20.0424 95.7693 19.9919C95.6364 19.9414 95.5534 19.8572 95.487 19.7562C95.4206 19.6552 95.3874 19.5206 95.3708 19.3691C95.3541 19.2007 95.3375 19.0324 95.3375 18.8136V13.9657H97.0811V12.4676L95.3375 12.4676V9.74065H93.3947ZM126.622 9.74065V12.4676H125.177V13.9825H126.639V19.3354C126.655 19.7057 126.689 20.0424 126.755 20.3286C126.821 20.6147 126.938 20.8672 127.12 21.0524C127.286 21.2544 127.535 21.4059 127.851 21.49C128.166 21.591 128.565 21.6415 129.08 21.6415C129.296 21.6415 129.495 21.6247 129.711 21.6079C129.91 21.5742 130.126 21.5574 130.342 21.5405V19.9919C130.209 20.0256 130.059 20.0424 129.927 20.0592C129.794 20.0761 129.661 20.0761 129.511 20.0761C129.296 20.0761 129.13 20.0424 128.997 19.9919C128.864 19.9414 128.781 19.8572 128.714 19.7562C128.648 19.6552 128.615 19.5206 128.598 19.3691C128.582 19.2007 128.582 19.0324 128.582 18.8136V13.9657H130.325V12.4676H128.582V9.74065H126.622ZM58.8057 9L58.7891 10.9021H62.6415V21.5405H64.767V10.9021L68.6195 10.9021V9L58.8057 9ZM108.622 10.9021L110.548 10.9021V9.01683H108.622V10.9021ZM112.292 21.5405H114.234V9H112.292V21.5405Z"
          fill="#151D51"/>
    <path class="trust-pilot__logo-star"
          d="M42.3009 8.71945L33.4336 8.71945L40.6237 14.106L37.8672 22.8254L45.0574 17.4389L52.2309 22.8254L49.491 14.106L56.6645 8.71945L47.7973 8.71945L45.0574 0L42.3009 8.71945Z"
          fill="#51B27E"/>
    <path class="trust-pilot__logo-star-nick" d="M45.0576 17.4403L50.1057 16.0769L49.4913 14.1074L45.0576 17.4403Z" fill="#151D51"/>
</svg>
