<svg width="135" height="36" viewBox="0 0 135 36" fill="none" xmlns="http://www.w3.org/2000/svg">
    <path d="M110.936 8.13965C103.258 8.13965 97.0273 14.3704 97.0273 22.0487C97.0273 29.727 103.258 35.9578 110.936 35.9578C118.615 35.9578 124.845 29.727 124.845 22.0487C124.845 14.3704 118.615 8.13965 110.936 8.13965ZM110.936 30.4403C106.426 30.4403 102.755 26.6851 102.755 22.0487C102.755 17.4124 106.405 13.6571 110.936 13.6571C115.468 13.6571 119.118 17.4124 119.118 22.0487C119.097 26.6851 115.447 30.4403 110.936 30.4403Z"
          fill="#151D51"/>
    <path d="M93.5866 8.55957H87.8594V35.5595H93.5866V8.55957Z" fill="#151D51"/>
    <path d="M13.6783 13.6781C16.9091 13.6781 19.4475 15.3984 20.5594 18.3774H26.6433C25.028 12.0627 20.2447 8.13965 13.8042 8.13965C5.95804 8.13965 0 14.3704 0 22.0697C0 29.769 5.95804 35.9788 13.8042 35.9788C20.2447 35.9788 25.028 32.0557 26.6433 25.741H20.5594C19.4475 28.72 16.8881 30.4403 13.6783 30.4403C8.99999 30.4403 5.74825 26.6851 5.74825 22.0487C5.74825 17.4124 8.99999 13.6781 13.6783 13.6781Z"
          fill="#151D51"/>
    <path d="M74.5188 12.5879V8.5599H68.8125V35.5809H74.5188V23.8536C74.5188 16.8886 78.337 12.9865 84.5887 14.3081V8.5599C80.6866 7.30116 76.302 9.54591 74.5188 12.5879Z"
          fill="#151D51"/>
    <path d="M35.6648 28.7412V0H29.9375V29.2867C29.9375 32.3286 31.2592 35.5594 35.9165 35.5594H38.1822V30.986H37.3431C36.2312 30.8811 35.6648 30.3566 35.6648 28.7412Z"
          fill="#151D51"/>
    <path d="M62.9784 28.741V18.0208C62.9784 12.818 60.0623 8.13965 52.0273 8.13965C45.6497 8.13965 41.4749 12.6921 40.9294 17.1606H46.6147C47.1602 14.8739 49.0273 13.0068 51.9644 13.0068C55.384 13.0068 57.2511 14.811 57.2511 17.1606C57.2511 18.0627 56.8315 19.2166 54.9224 19.2166L50.349 19.3005C43.9294 19.3005 40.0273 22.1117 40.0273 27.4613C40.0273 32.3704 43.6148 35.9998 49.405 35.9998C52.9504 35.9998 55.7616 34.5732 57.8175 32.4333C58.5728 34.2165 60.1882 35.5802 63.2091 35.5802H65.1182V31.0068H64.6357C63.5448 30.8809 62.9784 30.3564 62.9784 28.741ZM50.2231 31.1117C47.2861 31.1117 45.8805 29.3914 45.8805 27.6082C45.8805 24.6291 48.335 23.748 51.0833 23.748L54.5029 23.6851C55.5308 23.6851 56.4329 23.5592 57.2301 23.2026V23.9159C57.2511 29.0138 53.7057 31.1117 50.2231 31.1117Z"
          fill="#151D51"/>
    <path d="M85.5302 0.0205078C85.4883 0.251277 85.4883 0.503025 85.4883 0.754773C85.4883 3.67085 87.8379 6.0205 90.754 6.0205C93.6701 6.0205 96.0197 3.67085 96.0197 0.754773C96.0197 0.503025 95.9988 0.251277 95.9778 0.0205078H85.5302Z"
          fill="#5CD6C0"/>
    <path d="M134.099 35.5801C134.141 35.3493 134.141 35.0976 134.141 34.8458C134.141 31.9297 131.791 29.5801 128.875 29.5801C125.959 29.5801 123.609 31.9297 123.609 34.8458C123.609 35.0976 123.63 35.3493 123.651 35.5801H134.099Z"
          fill="#5CD6C0"/>
</svg>
