<svg width="113" height="36" viewBox="0 0 113 36" fill="none" xmlns="http://www.w3.org/2000/svg">
    <path d="M11.2028 8.9547C11.2109 8.31918 11.3788 7.69605 11.6907 7.1433C12.0027 6.59055 12.4485 6.12613 12.9869 5.79326C12.6449 5.30203 12.1937 4.89776 11.6692 4.61257C11.1447 4.32738 10.5612 4.16913 9.96526 4.15037C8.69394 4.01617 7.46145 4.91547 6.8136 4.91547C6.15322 4.91547 5.15577 4.1637 4.08167 4.18592C3.38691 4.2085 2.70982 4.41168 2.11636 4.77569C1.5229 5.13969 1.03331 5.65209 0.695299 6.26296C-0.768899 8.8125 0.323261 12.5595 1.72584 14.6203C2.42758 15.6295 3.24771 16.7567 4.32084 16.7167C5.37096 16.6729 5.76316 16.0433 7.03074 16.0433C8.28656 16.0433 8.65453 16.7167 9.74943 16.6913C10.8763 16.6729 11.5862 15.6777 12.2633 14.659C12.7675 13.9399 13.1555 13.1452 13.4129 12.3043C12.7582 12.0258 12.1996 11.5597 11.8066 10.9641C11.4135 10.3684 11.2036 9.66957 11.2028 8.9547Z"
          fill="black"/>
    <path d="M9.13467 2.79551C9.74907 2.05373 10.0518 1.1003 9.97846 0.137695C9.0398 0.236847 8.17274 0.68803 7.55005 1.40135C7.2456 1.74982 7.01242 2.15523 6.86384 2.59439C6.71527 3.03355 6.65421 3.49785 6.68417 3.96076C7.15366 3.96562 7.61814 3.86328 8.04261 3.66144C8.46707 3.45959 8.84047 3.16352 9.13467 2.79551Z"
          fill="black"/>
    <path d="M27.538 12.821H22.4589L21.2392 16.4431H19.0879L23.8987 3.04199H26.1339L30.9447 16.4431H28.7567L27.538 12.821ZM22.985 11.1495H27.011L25.0263 5.27097H24.9707L22.985 11.1495Z"
          fill="black"/>
    <path d="M41.3338 11.5582C41.3338 14.5944 39.718 16.5451 37.2795 16.5451C36.6619 16.5776 36.0475 16.4345 35.507 16.1322C34.9664 15.8299 34.5214 15.3806 34.2229 14.8357H34.1767V19.6751H32.1826V6.67239H34.1128V8.29747H34.1495C34.4617 7.75523 34.9143 7.30824 35.459 7.00408C36.0037 6.69992 36.6202 6.54996 37.2429 6.57016C39.7085 6.57017 41.3338 8.53038 41.3338 11.5582ZM39.2841 11.5582C39.2841 9.58006 38.2677 8.27956 36.7168 8.27956C35.1932 8.27956 34.1684 9.60745 34.1684 11.5582C34.1684 13.5268 35.1932 14.8452 36.7168 14.8452C38.2677 14.8452 39.2841 13.5542 39.2841 11.5582Z"
          fill="black"/>
    <path d="M52.0272 11.5582C52.0272 14.5944 50.4113 16.5451 47.9729 16.5451C47.3552 16.5776 46.7409 16.4345 46.2003 16.1322C45.6597 15.8299 45.2147 15.3806 44.9162 14.8357H44.8701V19.6751H42.876V6.67238H44.8062V8.29746H44.8428C45.1551 7.75522 45.6076 7.30824 46.1523 7.00408C46.697 6.69992 47.3135 6.54996 47.9362 6.57016C50.4019 6.57016 52.0272 8.53037 52.0272 11.5582ZM49.9775 11.5582C49.9775 9.58005 48.9611 8.27955 47.4102 8.27955C45.8866 8.27955 44.8617 9.60744 44.8617 11.5582C44.8617 13.5268 45.8866 14.8452 47.4102 14.8452C48.9611 14.8452 49.9775 13.5542 49.9775 11.5582H49.9775Z"
          fill="black"/>
    <path d="M59.094 12.7091C59.2418 14.038 60.5255 14.9106 62.2796 14.9106C63.9604 14.9106 65.1697 14.038 65.1697 12.8397C65.1697 11.7995 64.4403 11.1767 62.7134 10.7499L60.9865 10.3315C58.5397 9.73708 57.4038 8.58624 57.4038 6.71877C57.4038 4.40655 59.4074 2.81836 62.2524 2.81836C65.068 2.81836 66.9982 4.40655 67.0632 6.71877H65.0502C64.9297 5.38139 63.8304 4.57413 62.224 4.57413C60.6176 4.57413 59.5184 5.39089 59.5184 6.57966C59.5184 7.5271 60.2205 8.0846 61.938 8.51138L63.406 8.87391C66.14 9.52416 67.2759 10.6286 67.2759 12.5888C67.2759 15.096 65.2901 16.6663 62.1318 16.6663C59.1768 16.6663 57.1816 15.1329 57.0527 12.709L59.094 12.7091Z"
          fill="black"/>
    <path d="M71.5792 4.36035V6.67256H73.4266V8.26076H71.5792V13.6471C71.5792 14.4839 71.9491 14.8738 72.7612 14.8738C72.9805 14.87 73.1995 14.8545 73.4172 14.8274V16.4062C73.0521 16.4748 72.6809 16.5058 72.3096 16.4989C70.3427 16.4989 69.5756 15.7559 69.5756 13.861V8.26076H68.1631V6.67256H69.5756V4.36035H71.5792Z"
          fill="black"/>
    <path d="M74.4971 11.5587C74.4971 8.48449 76.2973 6.55273 79.1046 6.55273C81.9213 6.55273 83.7132 8.48445 83.7132 11.5587C83.7132 14.6413 81.9308 16.5646 79.1046 16.5646C76.2795 16.5646 74.4971 14.6412 74.4971 11.5587ZM81.6814 11.5587C81.6814 9.44985 80.7205 8.20522 79.1046 8.20522C77.4888 8.20522 76.5289 9.45933 76.5289 11.5587C76.5289 13.6759 77.4888 14.911 79.1046 14.911C80.7205 14.911 81.6813 13.6759 81.6813 11.5587H81.6814Z"
          fill="black"/>
    <path d="M85.3574 6.6723H87.2593V8.3353H87.3055C87.4342 7.81591 87.7367 7.35691 88.1623 7.03544C88.5878 6.71397 89.1104 6.54963 89.6423 6.57006C89.8721 6.56925 90.1012 6.59435 90.3255 6.64489V8.52079C90.0354 8.43163 89.7327 8.3907 89.4295 8.3996C89.1398 8.38778 88.851 8.43915 88.5829 8.55018C88.3148 8.66121 88.0738 8.82928 87.8764 9.04284C87.679 9.25639 87.5299 9.51039 87.4393 9.78738C87.3487 10.0644 87.3187 10.3578 87.3515 10.6475V16.4428H85.3574L85.3574 6.6723Z"
          fill="black"/>
    <path d="M99.5193 13.5737C99.251 15.3473 97.5335 16.5646 95.3361 16.5646C92.51 16.5646 90.7559 14.6602 90.7559 11.605C90.7559 8.54035 92.5194 6.55273 95.2523 6.55273C97.9401 6.55273 99.6303 8.40966 99.6303 11.3721V12.0592H92.7688V12.1804C92.7372 12.54 92.7819 12.9023 92.9002 13.2431C93.0184 13.584 93.2074 13.8956 93.4545 14.1573C93.7017 14.4191 94.0014 14.625 94.3338 14.7613C94.6662 14.8976 95.0236 14.9612 95.3822 14.9479C95.8535 14.9923 96.3264 14.8826 96.7306 14.635C97.1348 14.3873 97.4488 14.0151 97.6257 13.5737L99.5193 13.5737ZM92.7783 10.6576H97.6352C97.6531 10.3343 97.6043 10.0107 97.492 9.70725C97.3797 9.40378 97.2062 9.12693 96.9825 8.89408C96.7587 8.66123 96.4895 8.47741 96.1918 8.35415C95.8941 8.23089 95.5742 8.17086 95.2523 8.17781C94.9276 8.17587 94.6057 8.23861 94.3052 8.36244C94.0047 8.48627 93.7315 8.66872 93.5015 8.89927C93.2715 9.12981 93.0892 9.40389 92.965 9.70568C92.8409 10.0075 92.7774 10.331 92.7783 10.6576V10.6576Z"
          fill="black"/>
    <path d="M3.83226 26.6133L4.69265 29.2765H7.47695L5.22441 30.9224L6.0848 33.5856L3.83226 31.9396L1.57971 33.5856L2.44011 30.9224L0.187564 29.2765H2.97186L3.83226 26.6133Z"
          fill="#F29937"/>
    <path d="M11.4963 26.6133L12.3567 29.2765H15.141L12.8885 30.9224L13.7489 33.5856L11.4963 31.9396L9.24378 33.5856L10.1042 30.9224L7.85163 29.2765H10.6359L11.4963 26.6133Z"
          fill="#F29937"/>
    <path d="M19.1614 26.6133L20.0218 29.2765H22.8061L20.5535 30.9224L21.4139 33.5856L19.1614 31.9396L16.9088 33.5856L17.7692 30.9224L15.5167 29.2765H18.301L19.1614 26.6133Z"
          fill="#F29937"/>
    <path d="M26.8264 26.6133L27.6868 29.2765H30.4711L28.2185 30.9224L29.0789 33.5856L26.8264 31.9396L24.5739 33.5856L25.4342 30.9224L23.1817 29.2765H25.966L26.8264 26.6133Z"
          fill="#F29937"/>
    <path d="M34.4905 26.6133L35.3509 29.2765H38.1352L35.8826 30.9224L36.743 33.5856L34.4905 31.9396L32.2379 33.5856L33.0983 30.9224L30.8458 29.2765H33.6301L34.4905 26.6133Z"
          fill="#BFBFBF"/>
    <mask id="mask0_3744_43163" style="mask-type:alpha" maskUnits="userSpaceOnUse" x="30" y="25" width="6" height="11">
        <rect x="30.6582" y="25.0713" width="4.59871" height="10.7917" fill="#C4C4C4"/>
    </mask>
    <g mask="url(#mask0_3744_43163)">
        <path d="M34.4905 26.6133L35.3509 29.2765H38.1352L35.8826 30.9224L36.743 33.5856L34.4905 31.9396L32.2379 33.5856L33.0983 30.9224L30.8458 29.2765H33.6301L34.4905 26.6133Z"
              fill="#F29937"/>
    </g>
    <path d="M48.2384 33.0996H48.8963V31.982H49.6626V31.3801H48.8963V27.7057H47.9207C47.7687 27.93 47.6142 28.1617 47.4572 28.401C47.3027 28.6402 47.1469 28.8832 46.9899 29.1299C46.8329 29.3766 46.6759 29.6258 46.5189 29.8775C46.3644 30.1267 46.2112 30.3771 46.0592 30.6288C45.9072 30.878 45.7576 31.1247 45.6106 31.3689V31.982H48.2384V33.0996ZM46.2984 31.3839V31.339C46.4155 31.1397 46.5364 30.9378 46.661 30.7335C46.7881 30.5266 46.9164 30.3198 47.046 30.113C47.1756 29.9061 47.3052 29.7005 47.4347 29.4962C47.5668 29.2918 47.6964 29.0925 47.8235 28.8981C47.9506 28.7012 48.0752 28.5119 48.1973 28.3299H48.2422V31.3839H46.2984ZM50.7841 33.137C50.9187 33.137 51.0333 33.0896 51.128 32.9949C51.2227 32.8978 51.27 32.7831 51.27 32.6511C51.27 32.5165 51.2227 32.4019 51.128 32.3072C51.0333 32.2125 50.9187 32.1651 50.7841 32.1651C50.652 32.1651 50.5374 32.2125 50.4402 32.3072C50.3455 32.4019 50.2981 32.5165 50.2981 32.6511C50.2981 32.7831 50.3455 32.8978 50.4402 32.9949C50.5374 33.0896 50.652 33.137 50.7841 33.137ZM52.2943 33.0996H53.0008L55.4006 28.3299V27.7057H51.8308V28.3075H54.7166V28.3598L52.2943 33.0996Z"
          fill="black"/>
    <path d="M68.6517 33.0977H69.3245V27.7037H68.6554L67.2201 28.7354V29.4456L68.5919 28.4513H68.6517V33.0977ZM70.917 33.0977H71.6235L74.0233 28.328V27.7037H70.4535V28.3056H73.3392V28.3579L70.917 33.0977ZM76.554 33.2247C76.9527 33.2247 77.2941 33.1101 77.5782 32.8809C77.8623 32.6516 78.0804 32.3264 78.2324 31.9052C78.3869 31.4816 78.4641 30.9807 78.4641 30.4026V30.3951C78.4641 29.8169 78.3869 29.3173 78.2324 28.8962C78.0804 28.475 77.8623 28.1498 77.5782 27.9205C77.2941 27.6913 76.9527 27.5766 76.554 27.5766C76.1553 27.5766 75.8139 27.6913 75.5298 27.9205C75.2482 28.1498 75.0314 28.475 74.8794 28.8962C74.7274 29.3173 74.6514 29.8169 74.6514 30.3951V30.4026C74.6514 30.9807 74.7274 31.4816 74.8794 31.9052C75.0314 32.3264 75.2482 32.6516 75.5298 32.8809C75.8139 33.1101 76.1553 33.2247 76.554 33.2247ZM76.554 32.6379C76.2973 32.6379 76.0768 32.5469 75.8924 32.365C75.7105 32.1831 75.5709 31.9252 75.4737 31.5912C75.3765 31.2573 75.328 30.8611 75.328 30.4026V30.3951C75.328 29.9366 75.3765 29.5416 75.4737 29.2101C75.5709 28.8762 75.7105 28.6195 75.8924 28.4401C76.0768 28.2582 76.2973 28.1673 76.554 28.1673C76.8132 28.1673 77.0337 28.2582 77.2156 28.4401C77.4 28.6195 77.5408 28.8762 77.638 29.2101C77.7377 29.5416 77.7875 29.9366 77.7875 30.3951V30.4026C77.7875 30.8611 77.7377 31.2573 77.638 31.5912C77.5408 31.9252 77.4 32.1831 77.2156 32.365C77.0337 32.5469 76.8132 32.6379 76.554 32.6379ZM81.1855 33.2247C81.5842 33.2247 81.9256 33.1101 82.2097 32.8809C82.4938 32.6516 82.7118 32.3264 82.8638 31.9052C83.0183 31.4816 83.0956 30.9807 83.0956 30.4026V30.3951C83.0956 29.8169 83.0183 29.3173 82.8638 28.8962C82.7118 28.475 82.4938 28.1498 82.2097 27.9205C81.9256 27.6913 81.5842 27.5766 81.1855 27.5766C80.7868 27.5766 80.4454 27.6913 80.1613 27.9205C79.8797 28.1498 79.6629 28.475 79.5109 28.8962C79.3589 29.3173 79.2828 29.8169 79.2828 30.3951V30.4026C79.2828 30.9807 79.3589 31.4816 79.5109 31.9052C79.6629 32.3264 79.8797 32.6516 80.1613 32.8809C80.4454 33.1101 80.7868 33.2247 81.1855 33.2247ZM81.1855 32.6379C80.9288 32.6379 80.7083 32.5469 80.5239 32.365C80.3419 32.1831 80.2024 31.9252 80.1052 31.5912C80.008 31.2573 79.9594 30.8611 79.9594 30.4026V30.3951C79.9594 29.9366 80.008 29.5416 80.1052 29.2101C80.2024 28.8762 80.3419 28.6195 80.5239 28.4401C80.7083 28.2582 80.9288 28.1673 81.1855 28.1673C81.4446 28.1673 81.6652 28.2582 81.8471 28.4401C82.0315 28.6195 82.1723 28.8762 82.2695 29.2101C82.3692 29.5416 82.419 29.9366 82.419 30.3951V30.4026C82.419 30.8611 82.3692 31.2573 82.2695 31.5912C82.1723 31.9252 82.0315 32.1831 81.8471 32.365C81.6652 32.5469 81.4446 32.6379 81.1855 32.6379ZM86.06 33.0977H86.7329V30.9633H88.0225C88.0274 30.9633 88.0337 30.9633 88.0412 30.9633C88.0486 30.9633 88.0549 30.9633 88.0598 30.9633L89.2149 33.0977H90.0036L88.7551 30.8586C89.094 30.7514 89.3594 30.5608 89.5513 30.2867C89.7432 30.0126 89.8391 29.6886 89.8391 29.3148V29.3073C89.8391 28.9834 89.7681 28.7018 89.6261 28.4626C89.484 28.2233 89.2834 28.0377 89.0242 27.9056C88.7676 27.771 88.466 27.7037 88.1197 27.7037H86.06V33.0977ZM86.7329 30.3652V28.3018H88.0299C88.3788 28.3018 88.6517 28.3928 88.8486 28.5747C89.0454 28.7566 89.1439 29.0083 89.1439 29.3298V29.3372C89.1439 29.6662 89.0492 29.9204 88.8598 30.0998C88.6729 30.2767 88.4062 30.3652 88.0598 30.3652H86.7329ZM91.8951 33.1687C92.077 33.1687 92.244 33.1438 92.396 33.0939C92.548 33.0416 92.6838 32.9656 92.8035 32.8659C92.9256 32.7662 93.029 32.6454 93.1137 32.5033H93.1735V33.0977H93.8239V30.339C93.8239 30.0599 93.7641 29.8207 93.6445 29.6213C93.5274 29.4195 93.3542 29.265 93.1249 29.1578C92.8981 29.0507 92.6203 28.9971 92.2913 28.9971C92.0048 28.9971 91.7493 29.0419 91.5251 29.1317C91.3008 29.2189 91.1176 29.3422 90.9756 29.5017C90.836 29.6587 90.7488 29.8431 90.7139 30.0549L90.7102 30.0774H91.3606L91.3643 30.0661C91.4167 29.9092 91.5201 29.7883 91.6746 29.7036C91.8291 29.6163 92.0272 29.5727 92.2689 29.5727C92.5705 29.5727 92.796 29.6388 92.9455 29.7708C93.0975 29.9004 93.1735 30.0898 93.1735 30.339V31.595C93.1735 31.7869 93.1237 31.9588 93.024 32.1108C92.9268 32.2628 92.7922 32.3837 92.6203 32.4734C92.4483 32.5606 92.2515 32.6042 92.0297 32.6042C91.7954 32.6042 91.6011 32.5482 91.4466 32.436C91.2921 32.3214 91.2148 32.1619 91.2148 31.9576V31.9501C91.2148 31.7507 91.2846 31.5962 91.4241 31.4866C91.5662 31.3769 91.7905 31.3134 92.097 31.2959L93.4987 31.2062V30.6867L92.0185 30.7764C91.55 30.8038 91.1874 30.9197 90.9307 31.124C90.6765 31.3259 90.5494 31.6062 90.5494 31.965V31.9725C90.5494 32.2167 90.608 32.4286 90.7251 32.608C90.8447 32.7874 91.0055 32.9257 91.2073 33.0229C91.4117 33.1201 91.6409 33.1687 91.8951 33.1687ZM96.2537 33.1276C96.3185 33.1276 96.3821 33.1238 96.4444 33.1163C96.5067 33.1089 96.569 33.1001 96.6313 33.0902V32.537C96.5714 32.5419 96.5204 32.5457 96.478 32.5482C96.4381 32.5507 96.3895 32.5519 96.3322 32.5519C96.1229 32.5519 95.9734 32.5008 95.8837 32.3987C95.7939 32.294 95.7491 32.1233 95.7491 31.8865V29.6064H96.6313V29.0681H95.7491V28.0252H95.0763V29.0681H94.4408V29.6064H95.0763V32.051C95.0763 32.4348 95.1685 32.7102 95.3529 32.8771C95.5398 33.0441 95.84 33.1276 96.2537 33.1276ZM97.4276 33.0977H98.078V29.0681H97.4276V33.0977ZM97.7565 28.2906C97.8811 28.2906 97.987 28.247 98.0742 28.1598C98.1614 28.0701 98.2051 27.9642 98.2051 27.842C98.2051 27.7174 98.1614 27.6115 98.0742 27.5243C97.987 27.4371 97.8811 27.3935 97.7565 27.3935C97.6344 27.3935 97.5285 27.4371 97.4388 27.5243C97.3515 27.6115 97.3079 27.7174 97.3079 27.842C97.3079 27.9642 97.3515 28.0701 97.4388 28.1598C97.5285 28.247 97.6344 28.2906 97.7565 28.2906ZM99.1135 33.0977H99.7639V30.7128C99.7639 30.4761 99.8063 30.273 99.891 30.1035C99.9782 29.9341 100.1 29.8032 100.257 29.711C100.414 29.6188 100.6 29.5727 100.814 29.5727C101.136 29.5727 101.372 29.6612 101.524 29.8381C101.679 30.0126 101.756 30.2817 101.756 30.6455V33.0977H102.407V30.4885C102.407 30.0101 102.285 29.6425 102.04 29.3858C101.799 29.1267 101.451 28.9971 100.997 28.9971C100.701 28.9971 100.457 29.0569 100.265 29.1765C100.073 29.2936 99.9259 29.4593 99.8237 29.6737H99.7639V29.0681H99.1135V33.0977ZM105.053 34.5181C105.42 34.5181 105.737 34.457 106.006 34.3349C106.276 34.2153 106.482 34.0446 106.627 33.8228C106.774 33.601 106.847 33.3406 106.847 33.0416V29.0681H106.197V29.7335H106.152C106.07 29.5815 105.967 29.4506 105.842 29.341C105.72 29.2313 105.579 29.1466 105.42 29.0868C105.26 29.027 105.086 28.9971 104.896 28.9971C104.545 28.9971 104.242 29.0818 103.988 29.2513C103.734 29.4182 103.537 29.6487 103.397 29.9428C103.26 30.2344 103.192 30.5683 103.192 30.9446V30.9521C103.192 31.3283 103.26 31.6623 103.397 31.9538C103.534 32.2454 103.729 32.4747 103.98 32.6416C104.235 32.8061 104.535 32.8883 104.881 32.8883C105.066 32.8883 105.238 32.8622 105.397 32.8098C105.557 32.755 105.7 32.6753 105.827 32.5706C105.954 32.4659 106.06 32.3401 106.145 32.1931H106.205V33.0079C106.205 33.3045 106.102 33.5338 105.898 33.6957C105.696 33.8602 105.415 33.9424 105.053 33.9424C104.764 33.9424 104.532 33.8926 104.358 33.7929C104.184 33.6957 104.079 33.5711 104.044 33.4191L104.04 33.4154H103.367L103.36 33.4191C103.395 33.6384 103.483 33.8303 103.625 33.9948C103.77 34.1617 103.963 34.2901 104.205 34.3798C104.446 34.472 104.729 34.5181 105.053 34.5181ZM105.023 32.3127C104.774 32.3127 104.562 32.2554 104.388 32.1407C104.216 32.0236 104.084 31.8629 103.992 31.6585C103.902 31.4542 103.857 31.2187 103.857 30.9521V30.9446C103.857 30.6779 103.902 30.4412 103.992 30.2344C104.084 30.0275 104.216 29.8655 104.388 29.7484C104.562 29.6313 104.774 29.5727 105.023 29.5727C105.273 29.5727 105.486 29.6313 105.663 29.7484C105.842 29.8655 105.979 30.0275 106.074 30.2344C106.171 30.4412 106.22 30.6779 106.22 30.9446V30.9521C106.22 31.2187 106.171 31.4542 106.074 31.6585C105.979 31.8629 105.842 32.0236 105.663 32.1407C105.486 32.2554 105.273 32.3127 105.023 32.3127ZM109.251 33.1687C109.558 33.1687 109.832 33.1176 110.073 33.0154C110.318 32.9132 110.511 32.7712 110.653 32.5893C110.795 32.4049 110.866 32.1931 110.866 31.9538V31.9464C110.866 31.6573 110.772 31.4268 110.586 31.2548C110.401 31.0829 110.12 30.9508 109.741 30.8586L109.12 30.7091C108.884 30.6518 108.712 30.5783 108.604 30.4885C108.497 30.3988 108.444 30.2854 108.444 30.1484V30.1409C108.444 30.0213 108.48 29.9166 108.552 29.8269C108.624 29.7372 108.723 29.6674 108.847 29.6176C108.972 29.5653 109.114 29.5391 109.274 29.5391C109.518 29.5391 109.716 29.5889 109.868 29.6886C110.02 29.7883 110.117 29.9179 110.159 30.0774H110.799C110.769 29.8581 110.687 29.6674 110.552 29.5055C110.42 29.3435 110.244 29.2189 110.025 29.1317C109.808 29.0419 109.559 28.9971 109.277 28.9971C108.993 28.9971 108.738 29.0482 108.511 29.1503C108.284 29.2525 108.105 29.3921 107.973 29.569C107.843 29.7459 107.778 29.9465 107.778 30.1708V30.1746C107.778 30.4636 107.867 30.6954 108.044 30.8698C108.221 31.0418 108.497 31.1726 108.874 31.2623L109.498 31.4118C109.747 31.4716 109.926 31.5501 110.036 31.6473C110.146 31.742 110.201 31.8579 110.201 31.995V32.0024C110.201 32.1245 110.161 32.2329 110.081 32.3276C110.001 32.4198 109.892 32.4933 109.752 32.5482C109.615 32.6005 109.455 32.6267 109.274 32.6267C109.017 32.6267 108.809 32.5756 108.649 32.4734C108.49 32.3712 108.383 32.2367 108.328 32.0697H107.662C107.687 32.2915 107.768 32.4846 107.905 32.6491C108.045 32.8136 108.229 32.9419 108.459 33.0341C108.688 33.1238 108.952 33.1687 109.251 33.1687Z"
          fill="black"/>
    <ellipse cx="60.9339" cy="31.6231" rx="1.14968" ry="1.15626" fill="black"/>
</svg>
