<svg width="32" height="32" viewBox="0 0 32 32" fill="none" xmlns="http://www.w3.org/2000/svg">
<rect width="32" height="32" rx="8.34783" fill="#5CD6C0"/>
<rect x="1.56934" y="1.56927" width="28.8614" height="28.8614" rx="6.95652" fill="#5FE1CA"/>
<path d="M19.2472 4.93124C19.2472 4.15815 18.618 3.53143 17.8418 3.53143H14.0943C13.3181 3.53143 12.6889 4.15815 12.6889 4.93124V9.97042C12.6889 10.7435 12.0597 11.3702 11.2836 11.3702H9.41497C8.17864 11.3702 7.54476 12.8458 8.39841 13.7366L14.9515 20.5747C15.5051 21.1524 16.431 21.1524 16.9846 20.5747L23.5377 13.7366C24.3913 12.8458 23.7574 11.3702 22.5211 11.3702H20.6525C19.8763 11.3702 19.2472 10.7435 19.2472 9.97042V4.93124Z" fill="#483FDD"/>
<rect x="4.21484" y="19.9966" width="23.7645" height="5.944" rx="1.02447" fill="#7C42D5"/>
<path d="M5.77932 18.9507H7.08407V12.6246H5.91771V12.9212C5.91771 13.4154 5.70025 13.7811 5.03799 13.7811H4.39551V14.819H5.77932V18.9507Z" fill="white"/>
<path d="M10.3797 19.0495C11.8722 19.0495 12.8606 17.9919 12.8606 15.7877C12.8606 13.5933 11.8722 12.5159 10.3698 12.5159C8.87723 12.5159 7.84926 13.5933 7.84926 15.7778C7.84926 17.982 8.87723 19.0495 10.3797 19.0495ZM10.3797 17.9721C9.72729 17.9721 9.19354 17.379 9.19354 15.7877C9.19354 14.1963 9.72729 13.5933 10.3797 13.5933C11.0419 13.5933 11.5263 14.216 11.5263 15.7975C11.5263 17.3593 11.0518 17.9721 10.3797 17.9721Z" fill="white"/>
<path d="M15.9474 19.0495C17.4399 19.0495 18.4283 17.9919 18.4283 15.7877C18.4283 13.5933 17.4399 12.5159 15.9375 12.5159C14.4449 12.5159 13.417 13.5933 13.417 15.7778C13.417 17.982 14.4449 19.0495 15.9474 19.0495ZM15.9474 17.9721C15.295 17.9721 14.7612 17.379 14.7612 15.7877C14.7612 14.1963 15.295 13.5933 15.9474 13.5933C16.6096 13.5933 17.094 14.216 17.094 15.7975C17.094 17.3593 16.6195 17.9721 15.9474 17.9721Z" fill="white"/>
<path d="M23.7275 14.0085H22.2053L20.4262 15.7185H20.3471V11.9327H19.0819V18.9507H20.3471V17.3L20.8611 16.8058L22.3338 18.9507H23.7275L21.7111 15.9755L23.7275 14.0085Z" fill="white"/>
<path d="M28.2911 15.669H26.5416V14.0085H25.4345V15.669H23.6652V16.697H25.4345V18.3576H26.5416V16.697H28.2911V15.669Z" fill="white"/>
<path d="M7.07445 21.0083V22.1187C6.95779 21.9891 6.74176 21.8724 6.44796 21.8724C5.88196 21.8724 5.43262 22.2872 5.43262 22.9915C5.43262 23.6784 5.869 24.1191 6.44796 24.1191C6.78497 24.1191 6.98804 23.9593 7.09173 23.821H7.13062L7.17814 24.0759H7.62749V21.0083H7.07445ZM6.53437 23.6396C6.20601 23.6396 5.98566 23.3803 5.98566 22.9915C5.98566 22.6112 6.20601 22.352 6.53437 22.352C6.86274 22.352 7.07445 22.6112 7.07445 22.9915C7.07445 23.3803 6.86274 23.6396 6.53437 23.6396Z" fill="white"/>
<path d="M9.16384 24.1191C9.81625 24.1191 10.3045 23.6612 10.3045 22.9915C10.3045 22.3304 9.81193 21.8724 9.16384 21.8724C8.51575 21.8724 8.0232 22.3261 8.0232 22.9915C8.0232 23.6568 8.52007 24.1191 9.16384 24.1191ZM9.16384 23.6396C8.80955 23.6396 8.57623 23.3544 8.57623 22.9915C8.57623 22.6329 8.80955 22.352 9.16384 22.352C9.51813 22.352 9.75576 22.6329 9.75576 22.9915C9.75576 23.3544 9.52245 23.6396 9.16384 23.6396Z" fill="white"/>
<path d="M11.0426 24.0759H11.6475L12.0537 22.6674H12.0882L12.4857 24.0759H13.0906L13.6739 21.9156H13.1597L12.7968 23.4494H12.7622L12.3604 22.0539H11.7858L11.3796 23.4451H11.3451L10.9778 21.9156H10.468L11.0426 24.0759Z" fill="white"/>
<path d="M13.957 24.0759H14.5101V22.905C14.5101 22.5205 14.7434 22.352 15.0069 22.352C15.2662 22.352 15.4692 22.5248 15.4692 22.8791V24.0759H16.0223V22.7668C16.0223 22.2008 15.6939 21.8724 15.1797 21.8724C14.8557 21.8724 14.6742 22.002 14.5446 22.1705H14.5101L14.4625 21.9156H13.957V24.0759Z" fill="white"/>
<path d="M16.5055 24.0759H17.0585V21.0083H16.5055V24.0759Z" fill="white"/>
<path d="M18.5941 24.1191C19.2465 24.1191 19.7347 23.6612 19.7347 22.9915C19.7347 22.3304 19.2422 21.8724 18.5941 21.8724C17.946 21.8724 17.4534 22.3261 17.4534 22.9915C17.4534 23.6568 17.9503 24.1191 18.5941 24.1191ZM18.5941 23.6396C18.2398 23.6396 18.0065 23.3544 18.0065 22.9915C18.0065 22.6329 18.2398 22.352 18.5941 22.352C18.9484 22.352 19.186 22.6329 19.186 22.9915C19.186 23.3544 18.9527 23.6396 18.5941 23.6396Z" fill="white"/>
<path d="M22.1219 23.6612C22.0182 23.6612 21.9664 23.6093 21.9664 23.497V22.7063C21.9664 22.1273 21.5559 21.8724 21.0504 21.8724C20.4974 21.8724 20.1517 22.1878 20.1085 22.6372H20.6616C20.6961 22.4427 20.8171 22.3131 21.0504 22.3131C21.2621 22.3131 21.4133 22.4298 21.4133 22.6674V22.7581L20.7393 22.8273C20.3418 22.8662 20.0264 23.0692 20.0264 23.484C20.0264 23.9118 20.3505 24.1191 20.7912 24.1191C21.1325 24.1191 21.3572 24.0025 21.5041 23.8167C21.5775 24.0154 21.7374 24.0759 21.9405 24.0759H22.1738V23.6612H22.1219ZM21.4133 23.2421C21.4133 23.5834 21.1195 23.6957 20.8862 23.6957C20.7134 23.6957 20.5795 23.6352 20.5795 23.4624C20.5795 23.2939 20.7307 23.2118 20.9294 23.1902L21.4133 23.1384V23.2421Z" fill="white"/>
<path d="M24.0194 21.0083V22.1187C23.9027 21.9891 23.6867 21.8724 23.3929 21.8724C22.8269 21.8724 22.3775 22.2872 22.3775 22.9915C22.3775 23.6784 22.8139 24.1191 23.3929 24.1191C23.7299 24.1191 23.9329 23.9593 24.0366 23.821H24.0755L24.123 24.0759H24.5724V21.0083H24.0194ZM23.4793 23.6396C23.1509 23.6396 22.9306 23.3803 22.9306 22.9915C22.9306 22.6112 23.1509 22.352 23.4793 22.352C23.8076 22.352 24.0194 22.6112 24.0194 22.9915C24.0194 23.3803 23.8076 23.6396 23.4793 23.6396Z" fill="white"/>
<path d="M25.9231 24.1191C26.381 24.1191 26.7612 23.9204 26.7612 23.4754C26.7612 23.0692 26.4934 22.8964 26.1175 22.8014L25.9144 22.7495C25.707 22.6933 25.5601 22.6545 25.5601 22.5032C25.5601 22.365 25.6768 22.2829 25.8453 22.2829C26.0483 22.2829 26.1693 22.3779 26.1909 22.5335H26.7224C26.6921 22.1792 26.4242 21.8724 25.841 21.8724C25.4132 21.8724 25.033 22.1014 25.033 22.5335C25.033 22.9569 25.3614 23.0736 25.6509 23.1427L25.8539 23.1945C26.0872 23.255 26.2341 23.3241 26.2341 23.4883C26.2341 23.6439 26.0872 23.7087 25.9187 23.7087C25.6984 23.7087 25.5256 23.618 25.4953 23.3846H24.9639C24.9941 23.8297 25.3138 24.1191 25.9231 24.1191Z" fill="white"/>
</svg>
