<svg class="icon" width="109" height="37" viewBox="0 0 109 37" fill="none" xmlns="http://www.w3.org/2000/svg">
    <path d="M5.954 12.569h3.339v10.117H6.789l-.835-10.117zm6.678 5.058l2.086-.422-.834 7.167h-2.087l.835-6.745zm-6.677 9.274H4.703l-.418 2.53c.14.42.418 1.348.418 1.685 0 .338 1.112.141 1.669 0l-.417-4.215z"
          fill="#fff"></path>
    <path fill="#D74A15" d="M5.954 4.137h8.347v5.902H5.954z"></path>
    <path d="M18.763 34.126l1.33.077c.281.016.45.17.563.423.284.657.211 1.297-.095 1.914-.068.138-.258.234-.411.304-.131.046-.27.065-.409.055-4.677.024-9.355.045-14.033.063-1.138 0-2.277-.04-3.415-.06-.989-.015-1.416-.49-1.336-1.507a2.63 2.63 0 01.083-.498c.149-.532.334-.678.879-.733.245-.023.49-.058.735-.084.163.027.327.045.492.051.957-.02 1.913-.064 2.87-.072 1.862-.014 3.723-.023 5.585-.012 2.386.015 4.775.052 7.162.08z"
          fill="#F5DB0A"></path>
    <path d="M18.763 34.126c-2.387-.027-4.775-.064-7.163-.079-1.86-.01-3.722 0-5.583.012-.958.008-1.914.052-2.871.072a3.869 3.869 0 01-.492-.051c-.102-.21-.242-.41-.3-.631a3.434 3.434 0 01.074-2.035c.095-.271.263-.419.548-.432.513-.026 1.027-.055 1.54-.085 1.887-.025 3.774-.063 5.662-.073 1.736-.01 3.472 0 5.209.019.54.004 1.08.04 1.62.063.484.026.972.026 1.45.09.177.023.425.159.484.307.38.96.357 1.914-.178 2.823zM6.517 23.89l.058.17c-.022-.06-.04-.115-.058-.17zm.085.33l.055.174c-.021-.058-.036-.116-.055-.174zm.088.327l.043.099-.044-.099zm.407 1.132l.038.063a.136.136 0 01-.038-.063zm.083.56l-.039.013-.039-.01.077-.003z"
          fill="#F5DB0A"></path>
    <path fill-rule="evenodd" clip-rule="evenodd"
          d="M5.538 7.241c-.231 4.712-.154 9.417.501 14.1l.06.347.035.239.06.295-.051.286H6.14l.05-.28-.159-.055.002-.004-.012-.147-.084-.085-.054-.104-.062-.12-.058-.11-.035-.093-.046-.08-.005-.003-.33-.752-.165.335-.002-.001.167-.34a7.87 7.87 0 01-.06-.145l-.023-.056-.055-.146.001.001-.03-.066a.136.136 0 00.009.032.136.136 0 01-.012-.037l-.076-.202.011-.016-.02-.012.007.022-.009-.027-.032-.108a39.939 39.939 0 01-.132-.334v.001L4.51 18.49a1.65 1.65 0 00-.001 0 4.668 4.668 0 00-.05-.113c.012-.029.002-.048-.03-.058h-.001l-.023-.045a4.127 4.127 0 00-.033-.066l.001-.03-.029-.011v-.001l-.278-.28h-.002l-.007-.022-.016.012-.277-.038-.002.004c-.363.006-.62.215-.705.548-.064.245-.08.506-.095.767-.007.11-.013.22-.024.329v.006-.001l.022.25.06.255.035.17c.216.075.324.145.351.286-.028-.14-.135-.21-.35-.286l.289.762.036.09.049.076.027.055.015.03c.233-.022.402.025.39.323.011.11.038.217.078.32-.002.022.008.034.03.034a.239.239 0 01.045.055l.103.124.064.066.013.015h.01l.313.315v.01l.015.012h.011l.475.406-.001.01.017.01a.217.217 0 01.062.053.038.038 0 00.042.035l.003.002.002.01.005-.006.003.002.121.076.075.056c.003.01.009.018.017.024a.038.038 0 00.029.006l.003.002.134.075h.01l.56.318.002.007.011.018h.027l.003.006-.001-.005.2.084.083.049.095.195.038.11.02.06.028.163.022.071.033.103.032.153.044.1a78.407 78.407 0 00.119.42l.038.085.048.162.048.095.029.094.042.072.04.104.037.064.22.339c.383.139.707.028.894-.356.082-.168.135-.352.191-.545.026-.09.053-.18.083-.273l.269.036h.003c.204.027.412.055.619.078.944.106 1.89.114 2.822-.085.31-.067.465.035.584.3.095.22.204.433.328.637.168.27.395.393.7.197.354-.475.58-1.036.656-1.627l.2-1.42c.237-1.662.473-3.324.624-4.993.296-3.175.336-6.369.12-9.55a23.777 23.777 0 00-1.539-6.901 4.88 4.88 0 00-.534-1c-.236-.339-.491-.31-.642.085a7.17 7.17 0 00-.284 1.102c-.04.193-.063.39-.087.595-.011.094-.022.191-.035.29-1.15-.256-2.268-.156-3.37-.058-.268.024-.536.048-.803.066-.05-.186-.096-.37-.142-.55a15.875 15.875 0 00-.334-1.19C7.517.429 7.224.392 6.958.83c-.236.398-.431.82-.585 1.257-.603 1.662-.751 3.409-.835 5.155zm-.362 13.777l.005-.01-.123.078.003.003.115-.071zm1.58-4.273c-.026-.344-.052-.696-.082-1.057l.013-.298c.027-.603.057-1.277.094-1.951.01-.189.047-.392.297-.37.273.022.263.232.245.442-.159 1.748-.05 3.491.152 5.228.085.748.214 1.49.342 2.231l.076.435c.036.21.024.403-.197.42-.107.007-.303-.165-.325-.282-.16-.828-.316-1.66-.411-2.497a60.98 60.98 0 01-.204-2.301zm5.194-7.236c-.618.06-1.107-.178-1.525-.654-.914 1.07-2.113.933-2.786-.254-.116-.21-.197-.4.035-.549.214-.136.32.01.425.152.021.03.042.058.064.085.038.045.074.093.11.14.109.142.217.285.357.382.48.337.98.198 1.262-.32a1.9 1.9 0 00.1-.224c.036-.094.072-.188.125-.272.094-.123.201-.237.318-.339.118.1.225.211.32.333.063.094.112.198.162.302.053.109.105.218.172.317.32.462 1.375.412 1.572-.292a.53.53 0 01.265-.322c.239-.085.388.116.334.413-.107.593-.642 1.037-1.31 1.102zm2.138 9.516v.463a16.337 16.337 0 01-.575 3.78c-.052.196-.115.415-.376.347-.262-.067-.207-.289-.153-.486.365-1.348.58-2.717.543-4.12-.005-.215.04-.43.286-.424.246.006.275.228.275.44zm-1.89-13.896c.203-.127.436-.197.675-.2.425.016.766.16 1.023.46.143.168.214.38 0 .558-.187.153-.323.035-.464-.101-.41-.396-.84-.344-1.18.136-.131.183-.275.352-.511.193-.22-.148-.12-.345-.023-.522.11-.215.276-.396.48-.524zM6.7 6.09c-.033-.045-.068-.095-.109-.143v-.004c.055-.07.105-.14.153-.206.1-.136.19-.262.3-.365.536-.504 1.644-.3 1.941.359.036.08.022.184.009.285a1.405 1.405 0 00-.014.138 3.077 3.077 0 00-.138-.012.937.937 0 01-.31-.055c-.063-.027-.113-.082-.164-.136a.607.607 0 00-.15-.13c-.39-.207-.606-.122-.961.287a.514.514 0 01-.378.157c-.06-.007-.114-.082-.18-.175z"
          fill="#F5DB0A"></path>
    <path d="M3.47 21.181c.234-.021.404.026.391.324.012.11.038.217.079.32l-.47-.644zm.5.677a.23.23 0 01.044.053.043.043 0 01-.035-.015.046.046 0 01-.01-.038zm1.291-1.402l.006.016.013-.01-.019-.006z"
          fill="#F5DB0A"></path>
    <path fill-rule="evenodd" clip-rule="evenodd"
          d="M4.21 28.226c-.073.96-.015 1.905.291 2.824.656-.008 1.313-.018 1.97-.028 1.23-.018 2.46-.037 3.69-.044 1.736-.01 3.473.004 5.21.018.373.003.745.021 1.118.04l.502.023c.368-1.31.37-2.634.138-3.967-.06-.34-.24-.506-.59-.526-.658-.035-1.314-.083-1.97-.13l-.728-.052-1.428-.015a466.217 466.217 0 00-3.217-.027 35.94 35.94 0 00-1.288.027l-.576.018-.167.005-.039.014-.039-.01-.633.052c-.52.043-1.038.086-1.558.123-.291.02-.468.16-.514.45l-.04.235c-.054.322-.108.645-.132.97zm1.338 2.173c-.02.12-.107.27-.19.305-.215.092-.328-.094-.354-.29a63.49 63.49 0 01-.158-1.255l-.051-.422c.014-.16.025-.31.036-.452.025-.339.048-.634.097-.925v-.003c.021-.125.184-.31.293-.318.217-.016.287.177.26.386a8.95 8.95 0 00.07 2.889.24.24 0 01-.003.085z"
          fill="#F5DB0A"></path>
    <path d="M18.763 34.126l1.33.077c.281.016.45.17.563.423.284.657.211 1.297-.095 1.914-.068.138-.258.234-.411.304-.131.046-.27.065-.409.055-4.677.024-9.355.045-14.033.063-1.138 0-2.277-.04-3.415-.06-.989-.015-1.416-.49-1.336-1.507a2.63 2.63 0 01.083-.498c.149-.532.334-.678.879-.733.245-.023.49-.058.735-.084.163.027.327.045.492.051.957-.02 1.913-.064 2.87-.072 1.862-.014 3.723-.023 5.585-.012 2.386.015 4.775.052 7.162.08z"
          fill="#D74A15"></path>
    <path fill-rule="evenodd" clip-rule="evenodd"
          d="M4.21 28.226c-.073.96-.015 1.905.291 2.824.656-.008 1.313-.018 1.97-.028 1.23-.018 2.46-.037 3.69-.044 1.736-.01 3.473.004 5.21.018.373.003.745.021 1.118.04l.502.023c.368-1.31.37-2.634.138-3.967-.06-.34-.24-.506-.59-.526-.658-.035-1.314-.083-1.97-.13l-.728-.052-1.428-.015a466.217 466.217 0 00-3.217-.027 35.94 35.94 0 00-1.288.027l-.576.018-.167.005-.039.014-.039-.01-.633.052c-.52.043-1.038.086-1.558.123-.291.02-.468.16-.514.45l-.04.235c-.054.322-.108.645-.132.97zm1.338 2.173c-.02.12-.107.27-.19.305-.215.092-.328-.094-.354-.29a63.49 63.49 0 01-.158-1.255l-.051-.422c.014-.16.025-.31.036-.452.025-.339.048-.634.097-.925v-.003c.021-.125.184-.31.293-.318.217-.016.287.177.26.386a8.95 8.95 0 00.07 2.889.24.24 0 01-.003.085z"
          fill="#D74A15"></path>
    <path d="M28.252 8.569v7.69h1.585v-2.425h1.418c1.596 0 2.704-1.055 2.704-2.632 0-1.583-1.071-2.633-2.625-2.633h-3.082zm1.585 1.273h1.077c.908 0 1.433.49 1.433 1.365 0 .88-.53 1.37-1.439 1.37h-1.07V9.842zm4.801 6.418h1.533v-3.193c0-.805.441-1.274 1.197-1.274.22 0 .43.038.557.09v-1.369a1.54 1.54 0 00-.436-.059c-.662 0-1.14.395-1.34 1.12h-.03v-1.029h-1.481v5.714zm3.813 0h1.533v-5.714h-1.533v5.714zm.767-6.343a.804.804 0 00.819-.805.8.8 0 00-.82-.805.8.8 0 00-.819.805c0 .448.357.805.82.805zm6.806.629h-1.602l-1.165 4.338h-.032l-1.17-4.338H40.41l1.948 5.714h1.733l1.932-5.714zm2.443 4.68c-.52 0-.867-.267-.867-.693 0-.405.326-.666.898-.71l1.187-.074v.416c0 .618-.552 1.06-1.218 1.06zm-.504 1.124c.703 0 1.401-.357 1.717-.965h.031v.875h1.48v-3.93c0-1.15-.94-1.908-2.383-1.908-1.491 0-2.42.763-2.478 1.871h1.401c.074-.42.436-.709 1.009-.709.577 0 .945.31.945.842v.379l-1.418.085c-1.402.085-2.19.688-2.19 1.727 0 1.029.814 1.732 1.886 1.732zm9.205-3.677c-.068-1.296-1.034-2.25-2.557-2.25-1.685 0-2.762 1.141-2.762 2.975 0 1.865 1.077 2.984 2.773 2.984 1.48 0 2.473-.869 2.552-2.217h-1.428c-.095.624-.494.997-1.108.997-.762 0-1.234-.64-1.234-1.764 0-1.104.472-1.754 1.228-1.754.63 0 1.024.426 1.114 1.029h1.422zm1.335 5.703c1.439 0 2.143-.523 2.626-1.988l1.937-5.842H61.45l-1.197 4.466h-.026l-1.198-4.466h-1.685l1.958 5.719c.01.021-.047.25-.047.272-.105.453-.383.634-.945.634-.058 0-.336 0-.383-.01v1.199c.047.01.525.016.577.016zm8.507-4.563v-1.359h-3.449v1.36h3.45zm2.743 2.447v-3.028h3.082v-1.274h-3.082V9.896h3.376V8.569h-4.962v7.69h1.586zm6.481.122c1.7 0 2.788-1.103 2.788-2.985 0-1.854-1.103-2.974-2.788-2.974-1.686 0-2.789 1.125-2.789 2.975 0 1.876 1.087 2.984 2.789 2.984zm0-1.188c-.756 0-1.234-.645-1.234-1.791 0-1.136.488-1.791 1.234-1.791.745 0 1.228.655 1.228 1.79 0 1.147-.478 1.792-1.228 1.792zm8.565-2.521c-.068-1.296-1.035-2.25-2.557-2.25-1.686 0-2.762 1.141-2.762 2.975 0 1.865 1.076 2.984 2.772 2.984 1.481 0 2.473-.869 2.552-2.217h-1.428c-.095.624-.494.997-1.108.997-.761 0-1.234-.64-1.234-1.764 0-1.104.473-1.754 1.229-1.754.63 0 1.024.426 1.113 1.029h1.423zm5.814-2.127h-1.534v3.273c0 .756-.425 1.252-1.107 1.252-.678 0-1.05-.405-1.05-1.167v-3.358h-1.534v3.683c0 1.332.809 2.137 2.027 2.137.85 0 1.407-.415 1.685-1.135h.032v1.029h1.48v-5.714zm.773 1.679c0 .842.546 1.407 1.612 1.652l1.04.235c.504.122.693.282.693.57 0 .373-.352.608-.935.608-.61 0-.982-.278-1.056-.757h-1.496c.084 1.114 1.008 1.85 2.51 1.85 1.486 0 2.504-.742 2.504-1.866 0-.853-.456-1.306-1.585-1.562l-1.077-.234c-.493-.118-.735-.31-.735-.592 0-.368.347-.613.877-.613.567 0 .93.283.961.74h1.413c-.021-1.108-.94-1.833-2.353-1.833-1.444 0-2.373.715-2.373 1.802zm8.034-.65c.683 0 1.151.5 1.182 1.23h-2.389c.053-.713.536-1.23 1.208-1.23zm1.203 2.936c-.142.438-.572.72-1.134.72-.782 0-1.292-.56-1.292-1.375v-.096h3.881v-.474c0-1.738-1.035-2.863-2.673-2.863-1.665 0-2.715 1.184-2.715 3.007 0 1.828 1.04 2.952 2.773 2.952 1.391 0 2.399-.751 2.567-1.87h-1.407zm4.207 1.839c.83 0 1.481-.442 1.754-1.071h.026v.98h1.512V8.57h-1.533v2.958h-.031c-.273-.635-.903-1.072-1.717-1.072-1.413 0-2.305 1.125-2.305 2.937 0 1.828.887 2.958 2.294 2.958zm.52-4.647c.761 0 1.25.66 1.25 1.7 0 1.044-.489 1.695-1.25 1.695-.772 0-1.244-.645-1.244-1.695 0-1.045.472-1.7 1.244-1.7zM34.747 26.325v-.73h-3.082v.842h2.137v.138c0 1.29-.925 2.175-2.269 2.175-1.543 0-2.5-1.2-2.5-3.134 0-1.903.94-3.044 2.5-3.044 1.066 0 1.86.592 2.174 1.631h.993c-.284-1.53-1.528-2.515-3.167-2.515-2.121 0-3.47 1.53-3.47 3.933 0 2.447 1.354 4.014 3.47 4.014 2.022 0 3.214-1.232 3.214-3.31zm3.204 3.278c1.507 0 2.526-1.104 2.526-2.868 0-1.77-1.019-2.867-2.526-2.867-1.512 0-2.53 1.098-2.53 2.867 0 1.764 1.018 2.868 2.53 2.868zm0-.816c-.966 0-1.602-.746-1.602-2.052s.636-2.052 1.602-2.052c.966 0 1.596.746 1.596 2.052s-.63 2.052-1.596 2.052zm3.367.72h.914v-7.691h-.914v7.69zm4.086.096c.788 0 1.413-.395 1.764-1.034h.016v.938h.872v-7.691h-.914v3.048h-.02c-.326-.607-.956-.996-1.739-.996-1.376 0-2.315 1.13-2.315 2.867 0 1.738.945 2.868 2.336 2.868zm.173-4.92c.94 0 1.57.816 1.57 2.052 0 1.242-.63 2.052-1.57 2.052-.966 0-1.575-.794-1.575-2.052 0-1.252.61-2.052 1.575-2.052zm5.773-.011c.86 0 1.433.661 1.454 1.589h-2.967c.058-.922.656-1.589 1.512-1.589zm1.433 3.246c-.153.523-.662.88-1.355.88-.982 0-1.596-.698-1.596-1.76v-.052h3.917v-.352c0-1.68-.908-2.766-2.384-2.766-1.507 0-2.473 1.167-2.473 2.888 0 1.743.95 2.847 2.515 2.847 1.192 0 2.116-.715 2.274-1.685h-.898zm1.76 1.589h.914v-3.262c0-.938.562-1.557 1.423-1.557.84 0 1.255.49 1.255 1.386v3.433h.913v-3.598c0-1.258-.693-2.041-1.89-2.041-.846 0-1.428.383-1.733.98h-.02v-.884h-.862v5.543zm8.703 0V26.82l.82-.916 2.84 3.603h1.207l-3.391-4.286 3.113-3.405h-1.192l-3.345 3.752h-.052v-3.752h-.945v7.69h.945zm5.446 0h.914v-5.543h-.914v5.543zm.457-6.476a.577.577 0 000-1.151.576.576 0 000 1.151zm1.855-.405v1.338h-.814v.762h.814v3.342c0 1.066.388 1.481 1.391 1.481.216 0 .468-.016.578-.042v-.779a3.49 3.49 0 01-.378.027c-.468 0-.678-.229-.678-.735v-3.294h1.061v-.762h-1.06v-1.338h-.914zm3.115 0v1.338h-.814v.762h.814v3.342c0 1.066.388 1.481 1.391 1.481.215 0 .468-.016.578-.042v-.779a3.49 3.49 0 01-.378.027c-.468 0-.678-.229-.678-.735v-3.294h1.061v-.762h-1.06v-1.338h-.914zm3.272 8.954c.987 0 1.439-.39 1.906-1.684l2.148-5.932h-.961l-1.512 4.615h-.016l-1.512-4.615h-.977l2.016 5.548-.126.39c-.21.644-.493.895-1.003.895a1.91 1.91 0 01-.357-.027v.778c.1.021.284.032.394.032zm6.697-7.547v.005h.914v-.005c0-.858.672-1.509 1.56-1.509.834 0 1.501.592 1.501 1.333 0 .64-.241 1.05-1.26 2.137l-2.668 2.852v.66h5v-.852h-3.692v-.021l1.916-2.01c1.266-1.327 1.65-1.967 1.65-2.825 0-1.178-1.067-2.11-2.421-2.11-1.429 0-2.5 1.002-2.5 2.345zm8.66 5.602c1.764 0 2.783-1.551 2.783-3.982 0-2.414-1.024-3.965-2.783-3.965s-2.793 1.561-2.793 3.97c0 2.43 1.023 3.977 2.793 3.977zm0-.837c-1.187 0-1.843-1.226-1.843-3.145 0-1.876.672-3.123 1.843-3.123 1.171 0 1.833 1.236 1.833 3.128 0 1.92-.651 3.14-1.833 3.14zm3.587-4.765v.005h.914v-.005c0-.858.672-1.509 1.56-1.509.835 0 1.501.592 1.501 1.333 0 .64-.241 1.05-1.26 2.137l-2.667 2.852v.66h4.999v-.852H97.69v-.021l1.917-2.01c1.265-1.327 1.649-1.967 1.649-2.825 0-1.178-1.066-2.11-2.421-2.11-1.428 0-2.5 1.002-2.5 2.345zm8.66 5.602c1.765 0 2.783-1.551 2.783-3.982 0-2.414-1.024-3.965-2.783-3.965s-2.793 1.561-2.793 3.97c0 2.43 1.024 3.977 2.793 3.977zm0-.837c-1.186 0-1.843-1.226-1.843-3.145 0-1.876.672-3.123 1.843-3.123 1.171 0 1.833 1.236 1.833 3.128 0 1.92-.651 3.14-1.833 3.14z"
          fill="#2F3040"></path>
</svg>