<svg width="103" height="36" viewBox="0 0 103 36" fill="none" xmlns="http://www.w3.org/2000/svg">
    <g clip-path="url(#clip0_3744_43192)">
        <path fill-rule="evenodd" clip-rule="evenodd" d="M0.28173 0.56656C0.102827 0.764387 0 1.06887 0 1.46452V15.5378C0 15.9334 0.102827 16.2379 0.288417 16.4288L0.336905 16.471L8.00129 8.58543V8.40825L0.330217 0.524414L0.28173 0.56656Z" fill="url(#paint0_linear_3744_43192)"/>
        <path fill-rule="evenodd" clip-rule="evenodd" d="M10.5487 11.2246L7.99219 8.59348V8.40942L10.5495 5.77832L10.6047 5.81359L13.6293 7.58199C14.4954 8.08429 14.4954 8.91173 13.6293 9.42092L10.6047 11.1893C10.6038 11.1893 10.5487 11.2246 10.5487 11.2246Z" fill="url(#paint1_linear_3744_43192)"/>
        <path fill-rule="evenodd" clip-rule="evenodd" d="M10.6058 11.1888L7.99412 8.50098L0.28125 16.4364C0.562979 16.7478 1.03699 16.783 1.56701 16.4786L10.6058 11.1888Z" fill="url(#paint2_linear_3744_43192)"/>
        <path fill-rule="evenodd" clip-rule="evenodd" d="M10.6058 5.81471L1.56701 0.531875C1.03782 0.220512 0.562979 0.262658 0.28125 0.57402L7.99328 8.50172L10.6058 5.81471Z" fill="url(#paint3_linear_3744_43192)"/>
        <path opacity="0.2" fill-rule="evenodd" clip-rule="evenodd" d="M10.5517 11.1318L1.57482 16.3794C1.07322 16.6762 0.625968 16.6555 0.33755 16.3863L0.289062 16.4362L0.33755 16.4783C0.625968 16.7467 1.07322 16.7682 1.57482 16.4714L10.6136 11.1886L10.5517 11.1318Z" fill="black"/>
        <path opacity="0.12" fill-rule="evenodd" clip-rule="evenodd" d="M13.6295 9.32841L10.543 11.1321L10.5981 11.1888L13.6228 9.42044C14.0558 9.16585 14.269 8.83384 14.269 8.50098C14.2414 8.80546 14.0215 9.09532 13.6295 9.32841Z" fill="black"/>
        <path opacity="0.25" fill-rule="evenodd" clip-rule="evenodd" d="M1.56749 0.624257L13.6309 7.6755C14.0229 7.90171 14.2428 8.19845 14.2771 8.50293C14.2771 8.17092 14.0639 7.83806 13.6309 7.58346L1.56749 0.532224C0.701398 0.0230351 0 0.447073 0 1.46545V1.55748C0 0.539105 0.701398 0.121949 1.56749 0.624257Z" fill="white"/>
        <path fill-rule="evenodd" clip-rule="evenodd" d="M17.2204 8.0547C17.2204 5.80033 19.0621 3.96484 21.2532 3.96484C22.4646 3.96484 23.3265 4.45425 23.9769 5.0916L23.2111 5.87946C22.7463 5.43048 22.116 5.08214 21.2524 5.08214C19.6523 5.08214 18.4017 6.40758 18.4017 8.05384C18.4017 9.7001 19.6523 11.0273 21.2516 11.0273C22.289 11.0273 22.8793 10.5989 23.258 10.2084C23.5681 9.88933 23.7713 9.43089 23.8498 8.80214H21.2532V7.68743H24.9082C24.9467 7.88698 24.9667 8.12609 24.9667 8.38498C24.9667 9.22188 24.7435 10.26 24.0254 10.9989C23.3265 11.7472 22.4353 12.1463 21.2524 12.1463C19.0604 12.1463 17.2188 10.3125 17.2188 8.05642L17.2204 8.0547ZM27.9211 6.87806C26.5058 6.87806 25.3504 7.98589 25.3504 9.51088C25.3504 11.0281 26.505 12.1437 27.9211 12.1437C29.3373 12.1437 30.4901 11.0264 30.4901 9.51002C30.4901 7.98503 29.3365 6.8772 27.9211 6.87806ZM27.9211 11.1081C27.1462 11.1081 26.4765 10.4501 26.4765 9.51174C26.4765 8.56389 27.1453 7.91536 27.9211 7.91536C28.6961 7.91536 29.3649 8.56303 29.3649 9.51174C29.3649 10.4493 28.6969 11.1081 27.9211 11.1081ZM33.5265 6.87806C32.1111 6.87806 30.9574 7.98589 30.9574 9.51088C30.9574 11.0281 32.1111 12.1437 33.5265 12.1437C34.9418 12.1437 36.0955 11.0264 36.0955 9.51002C36.0955 7.98503 34.9426 6.8772 33.5265 6.87806ZM33.5265 11.1081C32.7515 11.1081 32.0819 10.4501 32.0819 9.51174C32.0819 8.56389 32.7507 7.91536 33.5265 7.91536C34.3014 7.91536 34.971 8.56303 34.971 9.51174C34.971 10.4493 34.3014 11.1081 33.5265 11.1081ZM40.4058 7.03804V7.46638H40.3674C40.1157 7.15588 39.6309 6.8772 39.0206 6.8772C37.7407 6.8772 36.5661 8.03492 36.5661 9.52206C36.5661 10.9972 37.7399 12.1454 39.0206 12.1454C39.6309 12.1454 40.1157 11.8667 40.3674 11.5476H40.4058V11.9261C40.4058 12.9333 39.8825 13.4726 39.039 13.4726C38.3501 13.4726 37.9238 12.9634 37.7491 12.5359L36.7693 12.9548C37.0502 13.6523 37.7975 14.5107 39.0381 14.5107C40.3557 14.5107 41.4709 13.7117 41.4709 11.767V7.03718L40.4058 7.03804ZM39.1167 11.1081C38.3418 11.1081 37.6905 10.4389 37.6905 9.52206C37.6905 8.59485 38.3409 7.91622 39.1167 7.91622C39.8825 7.91622 40.4836 8.59399 40.4836 9.52206C40.4844 10.4389 39.8833 11.1081 39.1167 11.1081ZM42.2475 4.24438H43.3728V11.9854H42.2475V4.24438ZM46.4567 11.1081C45.8849 11.1081 45.477 10.838 45.217 10.3108L48.6395 8.85289L48.5217 8.55357C48.3093 7.96611 47.6589 6.87806 46.3305 6.87806C45.0122 6.87806 43.9162 7.94546 43.9162 9.51174C43.9162 10.9868 45.0021 12.1446 46.4567 12.1446C47.6305 12.1446 48.3093 11.4074 48.5902 10.9774L47.7174 10.3796C47.4257 10.8191 47.0277 11.109 46.4567 11.1081ZM46.369 7.89558C46.8146 7.89558 47.1924 8.12523 47.3187 8.45379L45.0297 9.43175C45.0013 8.41423 45.7963 7.89558 46.369 7.89558ZM53.5769 4.24438H50.8867V11.9854H52.0094V9.0533H53.5777C54.8225 9.0533 56.0464 8.12609 56.0464 6.64841C56.0464 5.17331 54.8234 4.24524 53.5794 4.24524L53.5769 4.24438ZM53.6062 7.97557H52.0094V5.32125H53.6062C54.4455 5.32125 54.9237 6.03773 54.9237 6.64841C54.9237 7.24877 54.4455 7.97557 53.6062 7.97557ZM57.7878 11.9854V4.24438H56.6651V11.9854H57.7878ZM62.8313 11.9717V9.00427C62.8313 7.6298 61.8332 6.86344 60.5449 6.86344C59.7331 6.86344 58.8913 7.23243 58.5427 8.04868L59.5392 8.47616C59.7524 8.04868 60.1486 7.90848 60.5658 7.90848C61.146 7.90848 61.7362 8.26715 61.7454 8.90536V8.98535C61.5422 8.86579 61.1075 8.68603 60.5742 8.68603C59.4999 8.68603 58.4064 9.29327 58.4064 10.4286C58.4064 11.4651 59.2876 12.1317 60.2749 12.1317C61.0306 12.1317 61.4461 11.7833 61.7069 11.3756H61.7454V11.9734H62.8305L62.8313 11.9717ZM60.4111 11.1064C60.0433 11.1064 59.53 10.9172 59.53 10.4501C59.53 9.85234 60.1695 9.62183 60.7213 9.62183C61.2154 9.62183 61.4469 9.73107 61.7479 9.88073C61.6618 10.5757 61.0908 11.0978 60.4111 11.1064ZM66.7797 7.03288L65.4923 10.3882H65.4538L64.1179 7.03288H62.9082L64.9113 11.724L63.7685 14.3327H64.9397L68.027 7.03288H66.7797Z" fill="#808285"/>
    </g>
    <path d="M5.53264 28.9817V30.0981H0.35073L0.281572 29.2336L3.28006 24.4765H4.41129L3.18621 26.5266L1.69437 28.9817H5.53264ZM4.71756 24.4765V31.6689H3.29488V24.4765H4.71756ZM6.25904 30.9823C6.25904 30.7715 6.33149 30.5954 6.47639 30.4537C6.62459 30.3121 6.82053 30.2413 7.06423 30.2413C7.30793 30.2413 7.50223 30.3121 7.64714 30.4537C7.79533 30.5954 7.86943 30.7715 7.86943 30.9823C7.86943 31.1931 7.79533 31.3693 7.64714 31.5109C7.50223 31.6525 7.30793 31.7233 7.06423 31.7233C6.82053 31.7233 6.62459 31.6525 6.47639 31.5109C6.33149 31.3693 6.25904 31.1931 6.25904 30.9823ZM13.9309 28.9817V30.0981H8.74897L8.67981 29.2336L11.6783 24.4765H12.8095L11.5844 26.5266L10.0926 28.9817H13.9309ZM13.1158 24.4765V31.6689H11.6931V24.4765H13.1158Z" fill="black"/>
    <path d="M74.7986 27.7053V31.3213H74.3417V28.2759L73.4204 28.6118V28.1993L74.727 27.7053H74.7986ZM77.4713 27.7053V31.3213H77.0144V28.2759L76.0931 28.6118V28.1993L77.3997 27.7053H77.4713ZM80.9665 27.7251V27.9819L79.4772 31.3213H78.9955L80.4824 28.1005H78.5361V27.7251H80.9665ZM83.5725 29.2367V29.785C83.5725 30.0797 83.5462 30.3284 83.4935 30.5309C83.4408 30.7334 83.3651 30.8965 83.2663 31.02C83.1675 31.1435 83.0481 31.2332 82.9081 31.2892C82.7698 31.3435 82.6134 31.3707 82.4388 31.3707C82.3005 31.3707 82.1729 31.3534 82.056 31.3188C81.9391 31.2842 81.8337 31.2291 81.7398 31.1533C81.6476 31.0759 81.5686 30.9755 81.5027 30.852C81.4369 30.7285 81.3866 30.5787 81.3521 30.4025C81.3175 30.2263 81.3002 30.0205 81.3002 29.785V29.2367C81.3002 28.9419 81.3265 28.6949 81.3792 28.4957C81.4336 28.2965 81.5101 28.1367 81.6089 28.0165C81.7077 27.8947 81.8263 27.8074 81.9646 27.7547C82.1046 27.702 82.261 27.6757 82.4339 27.6757C82.5739 27.6757 82.7023 27.693 82.8192 27.7275C82.9378 27.7605 83.0431 27.814 83.1354 27.8881C83.2276 27.9605 83.3058 28.0577 83.37 28.1795C83.4359 28.2997 83.4861 28.4471 83.5207 28.6217C83.5552 28.7962 83.5725 29.0012 83.5725 29.2367ZM83.1131 29.8591V29.1601C83.1131 28.9987 83.1032 28.8571 83.0835 28.7353C83.0654 28.6118 83.0382 28.5064 83.002 28.4191C82.9658 28.3319 82.9196 28.261 82.8637 28.2067C82.8093 28.1524 82.7459 28.1129 82.6735 28.0882C82.6027 28.0618 82.5228 28.0486 82.4339 28.0486C82.3252 28.0486 82.2289 28.0692 82.1449 28.1104C82.0609 28.1499 81.9901 28.2133 81.9325 28.3006C81.8765 28.3878 81.8337 28.5023 81.8041 28.6439C81.7744 28.7855 81.7596 28.9576 81.7596 29.1601V29.8591C81.7596 30.0205 81.7687 30.1629 81.7868 30.2864C81.8065 30.4099 81.8354 30.5169 81.8732 30.6075C81.9111 30.6964 81.9572 30.7697 82.0115 30.8273C82.0659 30.8849 82.1284 30.9277 82.1993 30.9557C82.2717 30.9821 82.3516 30.9953 82.4388 30.9953C82.5508 30.9953 82.6488 30.9739 82.7328 30.931C82.8167 30.8882 82.8867 30.8215 82.9427 30.731C83.0003 30.6388 83.0431 30.521 83.0711 30.3778C83.0991 30.2329 83.1131 30.06 83.1131 29.8591ZM85.5761 29.0687V31.3213H85.1192V28.6488H85.5638L85.5761 29.0687ZM86.411 28.634L86.4085 29.0588C86.3706 29.0506 86.3344 29.0457 86.2998 29.044C86.2669 29.0407 86.229 29.0391 86.1862 29.0391C86.0808 29.0391 85.9878 29.0555 85.9071 29.0885C85.8264 29.1214 85.7581 29.1675 85.7021 29.2268C85.6461 29.2861 85.6017 29.3569 85.5687 29.4392C85.5374 29.5199 85.5169 29.6088 85.507 29.706L85.3785 29.7801C85.3785 29.6187 85.3942 29.4672 85.4255 29.3256C85.4584 29.184 85.5086 29.0588 85.5761 28.9502C85.6436 28.8398 85.7293 28.7542 85.833 28.6933C85.9384 28.6307 86.0635 28.5994 86.2084 28.5994C86.2414 28.5994 86.2792 28.6035 86.322 28.6118C86.3649 28.6184 86.3945 28.6258 86.411 28.634ZM87.7203 31.3707C87.5342 31.3707 87.3654 31.3394 87.2139 31.2768C87.0641 31.2126 86.9348 31.1229 86.8262 31.0076C86.7191 30.8923 86.6368 30.7557 86.5792 30.5976C86.5215 30.4395 86.4927 30.2666 86.4927 30.0789V29.9752C86.4927 29.7578 86.5248 29.5643 86.589 29.3947C86.6533 29.2235 86.7405 29.0786 86.8509 28.96C86.9612 28.8415 87.0863 28.7517 87.2263 28.6908C87.3662 28.6299 87.5111 28.5994 87.661 28.5994C87.852 28.5994 88.0167 28.6324 88.155 28.6982C88.2949 28.7641 88.4094 28.8563 88.4983 28.9749C88.5872 29.0918 88.6531 29.2301 88.6959 29.3898C88.7387 29.5479 88.7601 29.7208 88.7601 29.9085V30.1135H86.7644V29.7405H88.3032V29.706C88.2966 29.5874 88.2719 29.4721 88.2291 29.3602C88.1879 29.2482 88.122 29.156 88.0315 29.0835C87.9409 29.0111 87.8174 28.9749 87.661 28.9749C87.5573 28.9749 87.4617 28.9971 87.3745 29.0415C87.2872 29.0844 87.2123 29.1486 87.1497 29.2342C87.0871 29.3198 87.0386 29.4244 87.004 29.5479C86.9694 29.6714 86.9521 29.8138 86.9521 29.9752V30.0789C86.9521 30.2057 86.9694 30.3251 87.004 30.4371C87.0402 30.5474 87.0921 30.6445 87.1596 30.7285C87.2288 30.8125 87.3119 30.8783 87.4091 30.9261C87.5079 30.9739 87.6198 30.9977 87.745 30.9977C87.9063 30.9977 88.043 30.9648 88.155 30.8989C88.2669 30.8331 88.3649 30.745 88.4489 30.6346L88.7255 30.8545C88.6679 30.9417 88.5946 31.0249 88.5057 31.1039C88.4168 31.183 88.3073 31.2472 88.1772 31.2966C88.0488 31.346 87.8965 31.3707 87.7203 31.3707ZM89.899 30.9088L90.6301 28.6488H91.0969L90.1361 31.3213H89.8298L89.899 30.9088ZM89.2889 28.6488L90.0422 30.9212L90.0941 31.3213H89.7878L88.8196 28.6488H89.2889ZM91.8603 28.6488V31.3213H91.4009V28.6488H91.8603ZM91.3664 27.94C91.3664 27.8659 91.3886 27.8033 91.4331 27.7522C91.4792 27.7012 91.5467 27.6757 91.6356 27.6757C91.7229 27.6757 91.7895 27.7012 91.8357 27.7522C91.8834 27.8033 91.9073 27.8659 91.9073 27.94C91.9073 28.0108 91.8834 28.0717 91.8357 28.1227C91.7895 28.1721 91.7229 28.1968 91.6356 28.1968C91.5467 28.1968 91.4792 28.1721 91.4331 28.1227C91.3886 28.0717 91.3664 28.0108 91.3664 27.94ZM93.5303 31.3707C93.3442 31.3707 93.1754 31.3394 93.0239 31.2768C92.8741 31.2126 92.7448 31.1229 92.6361 31.0076C92.5291 30.8923 92.4468 30.7557 92.3892 30.5976C92.3315 30.4395 92.3027 30.2666 92.3027 30.0789V29.9752C92.3027 29.7578 92.3348 29.5643 92.399 29.3947C92.4633 29.2235 92.5505 29.0786 92.6608 28.96C92.7712 28.8415 92.8963 28.7517 93.0363 28.6908C93.1762 28.6299 93.3211 28.5994 93.471 28.5994C93.662 28.5994 93.8267 28.6324 93.965 28.6982C94.1049 28.7641 94.2194 28.8563 94.3083 28.9749C94.3972 29.0918 94.4631 29.2301 94.5059 29.3898C94.5487 29.5479 94.5701 29.7208 94.5701 29.9085V30.1135H92.5744V29.7405H94.1132V29.706C94.1066 29.5874 94.0819 29.4721 94.0391 29.3602C93.9979 29.2482 93.932 29.156 93.8415 29.0835C93.7509 29.0111 93.6274 28.9749 93.471 28.9749C93.3672 28.9749 93.2717 28.9971 93.1845 29.0415C93.0972 29.0844 93.0223 29.1486 92.9597 29.2342C92.8971 29.3198 92.8486 29.4244 92.814 29.5479C92.7794 29.6714 92.7621 29.8138 92.7621 29.9752V30.0789C92.7621 30.2057 92.7794 30.3251 92.814 30.4371C92.8502 30.5474 92.9021 30.6445 92.9696 30.7285C93.0387 30.8125 93.1219 30.8783 93.2191 30.9261C93.3178 30.9739 93.4298 30.9977 93.555 30.9977C93.7163 30.9977 93.853 30.9648 93.965 30.8989C94.0769 30.8331 94.1749 30.745 94.2589 30.6346L94.5355 30.8545C94.4779 30.9417 94.4046 31.0249 94.3157 31.1039C94.2268 31.183 94.1173 31.2472 93.9872 31.2966C93.8588 31.346 93.7065 31.3707 93.5303 31.3707ZM95.6077 30.8471L96.2944 28.6488H96.5957L96.5364 29.086L95.8374 31.3213H95.5435L95.6077 30.8471ZM95.1458 28.6488L95.7312 30.8718L95.7732 31.3213H95.4645L94.6889 28.6488H95.1458ZM97.2527 30.8545L97.8109 28.6488H98.2654L97.4898 31.3213H97.1835L97.2527 30.8545ZM96.6624 28.6488L97.3342 30.81L97.4108 31.3213H97.1193L96.4006 29.0811L96.3413 28.6488H96.6624ZM100.118 30.6124C100.118 30.5466 100.103 30.4856 100.074 30.4296C100.046 30.372 99.9871 30.3201 99.8982 30.274C99.8109 30.2263 99.6792 30.1851 99.503 30.1505C99.3548 30.1193 99.2206 30.0822 99.1004 30.0394C98.9819 29.9966 98.8806 29.9447 98.7966 29.8838C98.7143 29.8229 98.6509 29.7512 98.6064 29.6689C98.562 29.5866 98.5398 29.4902 98.5398 29.3799C98.5398 29.2745 98.5628 29.1749 98.6089 29.0811C98.6567 28.9872 98.7234 28.9041 98.809 28.8316C98.8963 28.7592 99.0008 28.7023 99.1227 28.6612C99.2445 28.62 99.3804 28.5994 99.5302 28.5994C99.7443 28.5994 99.927 28.6373 100.079 28.713C100.23 28.7888 100.346 28.8901 100.427 29.0168C100.507 29.142 100.548 29.2811 100.548 29.4343H100.091C100.091 29.3602 100.069 29.2885 100.024 29.2194C99.9814 29.1486 99.918 29.0901 99.834 29.044C99.7517 28.9979 99.6504 28.9749 99.5302 28.9749C99.4034 28.9749 99.3005 28.9946 99.2215 29.0341C99.1441 29.072 99.0873 29.1206 99.051 29.1799C99.0165 29.2391 98.9992 29.3017 98.9992 29.3676C98.9992 29.417 99.0074 29.4614 99.0239 29.501C99.042 29.5388 99.0733 29.5742 99.1177 29.6072C99.1622 29.6384 99.2248 29.6681 99.3054 29.6961C99.3861 29.7241 99.489 29.7521 99.6142 29.7801C99.8332 29.8295 100.013 29.8887 100.155 29.9579C100.297 30.027 100.402 30.1118 100.471 30.2123C100.54 30.3127 100.575 30.4346 100.575 30.5778C100.575 30.6948 100.55 30.8018 100.501 30.8989C100.453 30.9961 100.383 31.0801 100.291 31.1509C100.2 31.22 100.092 31.2744 99.9649 31.3139C99.8398 31.3518 99.699 31.3707 99.5426 31.3707C99.3071 31.3707 99.1078 31.3287 98.9448 31.2447C98.7818 31.1607 98.6583 31.0521 98.5743 30.9187C98.4904 30.7853 98.4484 30.6445 98.4484 30.4963H98.9078C98.9144 30.6215 98.9506 30.7211 99.0165 30.7952C99.0823 30.8676 99.163 30.9195 99.2585 30.9508C99.354 30.9804 99.4487 30.9953 99.5426 30.9953C99.6677 30.9953 99.7723 30.9788 99.8562 30.9459C99.9419 30.9129 100.007 30.8676 100.051 30.81C100.096 30.7524 100.118 30.6865 100.118 30.6124Z" fill="black"/>
    <path d="M71.8481 4.32923H74.4172C74.9999 4.32923 75.4921 4.41806 75.8936 4.59573C76.2987 4.7734 76.606 5.03635 76.8157 5.38459C77.0289 5.72927 77.1355 6.1539 77.1355 6.65848C77.1355 7.01382 77.0627 7.33895 76.917 7.63389C76.7748 7.92526 76.5687 8.174 76.2987 8.3801C76.0322 8.58264 75.7124 8.73366 75.3393 8.83316L75.0514 8.94509H72.6369L72.6262 8.10826H74.4491C74.8187 8.10826 75.1261 8.0443 75.3712 7.91638C75.6164 7.78491 75.8012 7.60901 75.9256 7.3887C76.0499 7.16839 76.1121 6.92498 76.1121 6.65848C76.1121 6.35999 76.0535 6.09882 75.9362 5.87496C75.819 5.65109 75.6342 5.47875 75.3819 5.35794C75.1332 5.23357 74.8116 5.17138 74.4172 5.17138H72.8768V12.0898H71.8481V4.32923ZM76.384 12.0898L74.4971 8.57198L75.5685 8.56665L77.482 12.0259V12.0898H76.384ZM81.5465 11.1038V8.13491C81.5465 7.9075 81.5004 7.71028 81.408 7.54327C81.3191 7.37271 81.1841 7.24124 81.0029 7.14885C80.8217 7.05646 80.5978 7.01026 80.3313 7.01026C80.0825 7.01026 79.864 7.05291 79.6757 7.13819C79.4909 7.22347 79.3452 7.3354 79.2386 7.47398C79.1356 7.61257 79.084 7.76181 79.084 7.92171H78.098C78.098 7.71561 78.1513 7.51129 78.2579 7.30875C78.3645 7.10621 78.5173 6.92321 78.7163 6.75975C78.9188 6.59274 79.1604 6.46127 79.4412 6.36532C79.7254 6.26583 80.0417 6.21608 80.3899 6.21608C80.8092 6.21608 81.1788 6.28715 81.4986 6.42928C81.8219 6.57142 82.0742 6.7864 82.2555 7.07423C82.4402 7.3585 82.5326 7.71561 82.5326 8.14557V10.8319C82.5326 11.0238 82.5486 11.2281 82.5806 11.4449C82.6161 11.6617 82.6676 11.8482 82.7352 12.0046V12.0898H81.7065C81.6567 11.9761 81.6176 11.8251 81.5892 11.6368C81.5608 11.4449 81.5465 11.2672 81.5465 11.1038ZM81.7171 8.5933L81.7278 9.28621H80.731C80.4503 9.28621 80.1998 9.30931 79.9795 9.35551C79.7592 9.39815 79.5744 9.46388 79.4252 9.55272C79.2759 9.64155 79.1622 9.75349 79.084 9.88852C79.0059 10.02 78.9668 10.1746 78.9668 10.3522C78.9668 10.5335 79.0076 10.6987 79.0894 10.8479C79.1711 10.9972 79.2937 11.1162 79.4572 11.205C79.6242 11.2903 79.8285 11.333 80.0701 11.333C80.3722 11.333 80.6387 11.269 80.8696 11.1411C81.1006 11.0132 81.2836 10.8568 81.4186 10.672C81.5572 10.4873 81.6318 10.3078 81.6425 10.1337L82.0636 10.6081C82.0387 10.7573 81.9712 10.9226 81.861 11.1038C81.7509 11.285 81.6034 11.4591 81.4186 11.6261C81.2374 11.7896 81.0206 11.9264 80.7684 12.0365C80.5196 12.1431 80.2389 12.1964 79.9262 12.1964C79.5353 12.1964 79.1924 12.12 78.8975 11.9673C78.6061 11.8145 78.3787 11.6101 78.2152 11.3543C78.0553 11.0949 77.9754 10.8053 77.9754 10.4855C77.9754 10.1763 78.0358 9.90451 78.1566 9.66998C78.2774 9.4319 78.4515 9.23469 78.679 9.07834C78.9064 8.91844 79.18 8.79762 79.4998 8.71589C79.8196 8.63417 80.1767 8.5933 80.5711 8.5933H81.7171ZM86.2188 6.32268V7.07956H83.1007V6.32268H86.2188ZM84.156 4.92087H85.1421V10.6614C85.1421 10.8568 85.1723 11.0043 85.2327 11.1038C85.2931 11.2033 85.3713 11.269 85.4672 11.301C85.5632 11.333 85.6662 11.349 85.7764 11.349C85.8581 11.349 85.9434 11.3419 86.0322 11.3276C86.1246 11.3099 86.1939 11.2957 86.2401 11.285L86.2454 12.0898C86.1672 12.1147 86.0642 12.1378 85.9363 12.1591C85.8119 12.184 85.6609 12.1964 85.4832 12.1964C85.2416 12.1964 85.0195 12.1485 84.817 12.0525C84.6144 11.9566 84.4527 11.7967 84.3319 11.5728C84.2147 11.3454 84.156 11.0398 84.156 10.656V4.92087ZM88.1673 6.32268V12.0898H87.1759V6.32268H88.1673ZM87.1013 4.79295C87.1013 4.63304 87.1493 4.49801 87.2452 4.38786C87.3447 4.2777 87.4904 4.22263 87.6823 4.22263C87.8706 4.22263 88.0145 4.2777 88.114 4.38786C88.2171 4.49801 88.2686 4.63304 88.2686 4.79295C88.2686 4.94574 88.2171 5.07722 88.114 5.18737C88.0145 5.29397 87.8706 5.34728 87.6823 5.34728C87.4904 5.34728 87.3447 5.29397 87.2452 5.18737C87.1493 5.07722 87.1013 4.94574 87.1013 4.79295ZM90.457 7.55393V12.0898H89.4709V6.32268H90.4037L90.457 7.55393ZM90.2225 8.98773L89.812 8.97174C89.8156 8.57731 89.8742 8.21309 89.9879 7.87907C90.1016 7.5415 90.2615 7.24834 90.4676 6.9996C90.6737 6.75087 90.9189 6.55898 91.2032 6.42395C91.491 6.28537 91.809 6.21608 92.1573 6.21608C92.4415 6.21608 92.6974 6.25517 92.9248 6.33334C93.1522 6.40796 93.3459 6.52878 93.5058 6.69579C93.6692 6.8628 93.7936 7.07956 93.8789 7.34606C93.9642 7.60901 94.0068 7.93059 94.0068 8.31081V12.0898H93.0154V8.30015C93.0154 7.99811 92.971 7.75648 92.8822 7.57525C92.7933 7.39048 92.6636 7.25723 92.4931 7.1755C92.3225 7.09022 92.1129 7.04758 91.8641 7.04758C91.6189 7.04758 91.3951 7.0991 91.1925 7.20215C90.9935 7.3052 90.8212 7.44733 90.6755 7.62856C90.5334 7.80978 90.4214 8.01765 90.3397 8.25218C90.2615 8.48315 90.2225 8.72833 90.2225 8.98773ZM98.9615 6.32268H99.857V11.9673C99.857 12.4754 99.7539 12.9089 99.5478 13.2678C99.3417 13.6267 99.0539 13.8985 98.6844 14.0833C98.3184 14.2716 97.8955 14.3658 97.4158 14.3658C97.2168 14.3658 96.9823 14.3338 96.7122 14.2699C96.4457 14.2094 96.1828 14.1046 95.9234 13.9554C95.6675 13.8097 95.4526 13.6125 95.2784 13.3637L95.7955 12.7774C96.0371 13.0688 96.2894 13.2713 96.5523 13.3851C96.8188 13.4988 97.0818 13.5556 97.3412 13.5556C97.6539 13.5556 97.9239 13.497 98.1514 13.3797C98.3788 13.2625 98.5547 13.0883 98.679 12.8574C98.807 12.63 98.8709 12.3492 98.8709 12.0152V7.59125L98.9615 6.32268ZM94.9906 9.27022V9.15829C94.9906 8.71767 95.0421 8.31791 95.1452 7.95902C95.2518 7.59658 95.4028 7.28565 95.5982 7.02626C95.7972 6.76686 96.0371 6.56787 96.3178 6.42928C96.5985 6.28715 96.9148 6.21608 97.2666 6.21608C97.629 6.21608 97.9453 6.28004 98.2153 6.40796C98.4889 6.53233 98.7199 6.71533 98.9082 6.95696C99.1001 7.19504 99.2511 7.48287 99.3613 7.82044C99.4714 8.15801 99.5478 8.54 99.5905 8.96641V9.45678C99.5514 9.87963 99.475 10.2598 99.3613 10.5974C99.2511 10.935 99.1001 11.2228 98.9082 11.4609C98.7199 11.699 98.4889 11.882 98.2153 12.0099C97.9417 12.1343 97.6219 12.1964 97.2559 12.1964C96.9112 12.1964 96.5985 12.1236 96.3178 11.9779C96.0406 11.8322 95.8026 11.6279 95.6036 11.365C95.4046 11.102 95.2518 10.7929 95.1452 10.4375C95.0421 10.0786 94.9906 9.68953 94.9906 9.27022ZM95.9767 9.15829V9.27022C95.9767 9.55805 96.0051 9.82811 96.062 10.0804C96.1224 10.3327 96.213 10.5548 96.3338 10.7467C96.4582 10.9385 96.6163 11.0896 96.8082 11.1997C97.0001 11.3063 97.2293 11.3596 97.4958 11.3596C97.8227 11.3596 98.0927 11.2903 98.3059 11.1517C98.5191 11.0132 98.6879 10.8302 98.8123 10.6027C98.9402 10.3753 99.0397 10.1284 99.1108 9.86186V8.57731C99.0717 8.38188 99.0113 8.19355 98.9296 8.01232C98.8514 7.82755 98.7483 7.66409 98.6204 7.52195C98.496 7.37626 98.3415 7.26078 98.1567 7.1755C97.9719 7.09022 97.7552 7.04758 97.5064 7.04758C97.2364 7.04758 97.0036 7.10443 96.8082 7.21814C96.6163 7.32829 96.4582 7.48109 96.3338 7.67653C96.213 7.86841 96.1224 8.09227 96.062 8.34812C96.0051 8.60041 95.9767 8.87047 95.9767 9.15829Z" fill="#808285"/>
    <path d="M24.7983 23.5127L26.2658 26.1239L29.1955 26.7167L27.1728 28.9233L27.5159 31.9009L24.7983 30.6535L22.0807 31.9009L22.4238 28.9233L20.4011 26.7167L23.3308 26.1239L24.7983 23.5127Z" fill="#FF9D28"/>
    <path d="M34.4647 23.5117L36.0656 26.1229L39.2616 26.7157L37.055 28.9223L37.4294 31.8999L34.4647 30.6525L31.5 31.8999L31.8743 28.9223L29.6678 26.7157L32.8638 26.1229L34.4647 23.5117Z" fill="#FF9D28"/>
    <path d="M44.1323 23.5117L45.5998 26.1229L48.5295 26.7157L46.5068 28.9223L46.8499 31.8999L44.1323 30.6525L41.4147 31.8999L41.7578 28.9223L39.7351 26.7157L42.6648 26.1229L44.1323 23.5117Z" fill="#FF9D28"/>
    <path d="M54.6405 23.5117L56.2414 26.1229L59.4374 26.7157L57.2308 28.9223L57.6051 31.8999L54.6405 30.6525L51.6758 31.8999L52.0501 28.9223L49.8435 26.7157L53.0396 26.1229L54.6405 23.5117Z" fill="#FF9D28"/>
    <path d="M64.308 23.5117L65.7756 26.1229L68.7052 26.7157L66.6825 28.9223L67.0257 31.8999L64.308 30.6525L61.5904 31.8999L61.9336 28.9223L59.9109 26.7157L62.8405 26.1229L64.308 23.5117Z" fill="#FF9D28"/>
    <defs>
        <linearGradient id="paint0_linear_3744_43192" x1="7.30858" y1="1.31766" x2="-5.00115" y2="4.5041" gradientUnits="userSpaceOnUse">
            <stop stop-color="#00A0FF"/>
            <stop offset="0.007" stop-color="#00A1FF"/>
            <stop offset="0.26" stop-color="#00BEFF"/>
            <stop offset="0.512" stop-color="#00D2FF"/>
            <stop offset="0.76" stop-color="#00DFFF"/>
            <stop offset="1" stop-color="#00E3FF"/>
        </linearGradient>
        <linearGradient id="paint1_linear_3744_43192" x1="14.7562" y1="8.49921" x2="-0.212969" y2="8.49921" gradientUnits="userSpaceOnUse">
            <stop stop-color="#FFE000"/>
            <stop offset="0.409" stop-color="#FFBD00"/>
            <stop offset="0.775" stop-color="#FFA500"/>
            <stop offset="1" stop-color="#FF9C00"/>
        </linearGradient>
        <linearGradient id="paint2_linear_3744_43192" x1="9.18688" y1="9.96067" x2="-1.09881" y2="26.7675" gradientUnits="userSpaceOnUse">
            <stop stop-color="#FF3A44"/>
            <stop offset="1" stop-color="#C31162"/>
        </linearGradient>
        <linearGradient id="paint3_linear_3744_43192" x1="-1.66203" y1="-4.11974" x2="2.92767" y2="3.38089" gradientUnits="userSpaceOnUse">
            <stop stop-color="#32A071"/>
            <stop offset="0.069" stop-color="#2DA771"/>
            <stop offset="0.476" stop-color="#15CF74"/>
            <stop offset="0.801" stop-color="#06E775"/>
            <stop offset="1" stop-color="#00F076"/>
        </linearGradient>
        <clipPath id="clip0_3744_43192">
            <rect width="68.0281" height="16.374" fill="white" transform="translate(0 0.31543)"/>
        </clipPath>
    </defs>
</svg>
