<svg class="icon" width="39" height="38" viewBox="0 0 39 38" fill="none" xmlns="http://www.w3.org/2000/svg">
    <path d="M0 1.9C0 .85.85 0 1.9 0h35.15c1.05 0 1.9.85 1.9 1.9v33.564a1.9 1.9 0 01-2.434 1.824L20.01 32.456a1.9 1.9 0 00-1.068 0L2.434 37.288A1.9 1.9 0 010 35.464V1.9z"
          fill="#4A99C9"></path>
    <path d="M8.682 2.929H7.44l-1.636 3.8h-.061l-1.644-3.8H2.85V8.47h.996V4.79h.062l1.35 3.047h1.026L7.625 4.79h.062v3.68h.995V2.93zm4.469 4.781c-.185 0-.278-.095-.278-.3V5.96c0-1.06-.733-1.527-1.635-1.527-.988 0-1.605.578-1.682 1.401h.987c.062-.356.278-.594.695-.594.378 0 .648.214.648.65v.166l-1.204.127c-.71.07-1.273.443-1.273 1.203 0 .784.579 1.164 1.366 1.164.61 0 1.01-.214 1.273-.555.131.365.416.475.78.475h.416v-.76h-.093zm-1.265-.767c0 .625-.525.83-.941.83-.309 0-.548-.11-.548-.427 0-.308.27-.459.625-.498l.864-.095v.19zm3.558 1.607c1.003 0 1.736-.562 1.867-1.45h-.995c-.123.365-.424.57-.872.57-.632 0-1.034-.466-1.034-1.163 0-.704.432-1.195 1.019-1.195.463 0 .795.285.88.649h.987c-.124-1.037-.972-1.528-1.867-1.528-1.127 0-2.006.831-2.006 2.074 0 1.196.818 2.043 2.021 2.043zm2.99-.08h1.08l.726-2.58h.061l.71 2.58h1.08l1.042-3.958h-.918l-.648 2.81h-.062l-.718-2.557h-1.026l-.725 2.55h-.062l-.655-2.803h-.91l1.025 3.958zm6.836.08c1.165 0 2.036-.84 2.036-2.067 0-1.21-.88-2.05-2.036-2.05-1.158 0-2.037.831-2.037 2.05 0 1.22.887 2.067 2.037 2.067zm0-.88c-.633 0-1.05-.522-1.05-1.187 0-.657.417-1.171 1.05-1.171.632 0 1.056.514 1.056 1.171 0 .665-.416 1.188-1.056 1.188zm2.573.8h.987V6.626c0-.57.224-1.211 1.073-1.211.138 0 .277.008.416.031V4.433h-.278c-.648 0-.91.245-1.15.641h-.06l-.093-.562h-.895V8.47zm2.814 0h.987V2.85h-.987v5.62zm4.455-5.62v2.034c-.208-.237-.594-.451-1.119-.451-1.01 0-1.813.76-1.813 2.05 0 1.26.78 2.067 1.813 2.067.602 0 .965-.293 1.15-.547h.07l.084.467h.803V2.85h-.988zm-.964 4.82c-.587 0-.98-.474-.98-1.187 0-.696.393-1.171.98-1.171.586 0 .964.475.964 1.171 0 .713-.378 1.188-.964 1.188zM14.033 27.735l.805-.51c.261-.166.798-.511.798-1.256 0-.787-.602-1.27-1.523-1.27-1.168 0-1.727.773-1.756 1.442h.972c.022-.331.261-.69.733-.69.355 0 .61.228.61.545 0 .352-.32.559-.596.738l-.747.47c-.573.358-.98.93-.98 1.69v.296h3.272v-.745H13.46c.058-.297.253-.503.573-.71zm3.997 1.525c1.095 0 1.82-.739 1.82-2.277 0-1.532-.725-2.284-1.828-2.284-1.095 0-1.85.752-1.85 2.277 0 1.538.755 2.283 1.857 2.283zm0-.753c-.48 0-.871-.414-.871-1.524 0-1.111.391-1.532.87-1.532.486 0 .842.435.842 1.539 0 1.09-.348 1.517-.842 1.517zm4.044-.772l.806-.51c.26-.166.798-.511.798-1.256 0-.787-.602-1.27-1.524-1.27-1.168 0-1.727.773-1.756 1.442h.973c.021-.331.26-.69.732-.69.356 0 .61.228.61.545 0 .352-.32.559-.595.738l-.747.47c-.574.358-.98.93-.98 1.69v.296h3.272v-.745h-2.162c.058-.297.254-.503.573-.71zm3.872 0l.806-.51c.26-.166.798-.511.798-1.256 0-.787-.602-1.27-1.524-1.27-1.168 0-1.727.773-1.756 1.442h.973c.021-.331.26-.69.732-.69.356 0 .61.228.61.545 0 .352-.32.559-.595.738l-.747.47c-.573.358-.98.93-.98 1.69v.296h3.272v-.745h-2.162c.058-.297.254-.503.573-.71z"
          fill="#000"></path>
    <path d="M6.467 16.941c.358.159.628.392.812.7.192.308.289.681.289 1.121v.752c0 .669-.207 1.205-.62 1.61-.412.396-.967.594-1.664.594H2.85v-9.236h2.31c.697 0 1.252.202 1.665.607.413.395.619.928.619 1.596v.488c0 .827-.326 1.416-.977 1.768zm-2.16-3.14v2.507h.647c.349 0 .605-.08.77-.238.175-.167.262-.417.262-.752v-.66c0-.272-.078-.483-.234-.633-.156-.15-.376-.224-.66-.224h-.784zm1.803 4.816c0-.334-.087-.58-.262-.739-.165-.167-.422-.25-.77-.25h-.77v2.77h.908c.284 0 .504-.075.66-.224.156-.15.234-.36.234-.633v-.924zm2.47-6.135h4.14V13.8h-2.683v2.573h2.132v1.32h-2.132v2.704h2.682v1.32H8.58v-9.236zm7.066 9.368a2.54 2.54 0 01-1.225-.29 2.128 2.128 0 01-.839-.805 2.357 2.357 0 01-.289-1.175v-.33l1.403-.145v.343c0 .334.083.598.248.792.165.193.394.29.688.29.284 0 .509-.079.674-.237.174-.159.261-.374.261-.647a1.51 1.51 0 00-.275-.858c-.174-.272-.527-.65-1.06-1.134-.714-.651-1.205-1.192-1.47-1.623a2.709 2.709 0 01-.386-1.412c0-.695.197-1.245.591-1.65.395-.413.936-.62 1.623-.62.688 0 1.23.207 1.624.62.394.414.591.968.591 1.663v.238l-1.403.145v-.264c0-.352-.069-.62-.206-.805-.138-.185-.335-.277-.592-.277-.256 0-.454.075-.591.224-.138.15-.207.37-.207.66 0 .29.092.572.276.845.183.263.536.646 1.059 1.147.715.687 1.201 1.24 1.458 1.663.266.413.399.87.399 1.372 0 .44-.101.831-.303 1.175a2.035 2.035 0 01-.825.804c-.358.194-.766.29-1.224.29zm2.769-9.368h4.65V13.8h-1.596v7.917H20.01V13.8h-1.596v-1.32zm10.112 9.368c-.697 0-1.261-.203-1.692-.607-.431-.414-.647-.955-.647-1.623v-5.04c0-.669.216-1.206.647-1.61.43-.414.995-.62 1.692-.62s1.26.206 1.691.62c.431.404.647.941.647 1.61v5.04c0 .668-.215 1.21-.646 1.623-.431.404-.995.607-1.692.607zm0-1.32c.275 0 .49-.079.646-.237.156-.159.234-.383.234-.673v-5.04c0-.29-.078-.515-.234-.673-.156-.159-.371-.238-.646-.238-.276 0-.491.08-.647.238-.156.158-.234.382-.234.672v5.04c0 .291.078.515.234.674.156.158.372.237.647.237zm3.501-8.048H36.1V13.8h-2.614v2.705h2.063v1.32h-2.063v3.892h-1.458v-9.236z"
          fill="#fff"></path>
</svg>