<svg width="650" height="394" viewBox="0 0 650 394" fill="none" xmlns="http://www.w3.org/2000/svg">
    <ellipse cx="347.488" cy="337.785" rx="259.75" ry="48.0065" fill="#342E9C"/>
    <path d="M224.82 168.226L204.703 247.084L173.321 261.568L151.595 318.7" stroke="#A0400E" stroke-width="28.4671"
          stroke-linecap="round" stroke-linejoin="round"/>
    <path d="M128.294 332.281C123.358 323.733 123.309 312.772 136.548 305.128C160.539 291.277 159.746 308.814 164.681 317.362C169.617 325.91 169.291 329.248 152.707 338.822C144.159 343.758 133.229 340.829 128.294 332.281Z"
          fill="#A0400E"/>
    <path d="M459.786 210.874V255.131L504.043 319.505" stroke="#A0400E" stroke-width="28.4671" stroke-linecap="round"
          stroke-linejoin="round"/>
    <path d="M202.98 179.875C202.98 153.032 224.741 131.272 251.583 131.272H415.82C460.06 131.272 490.679 175.463 475.139 216.884C464.383 245.555 434.66 262.43 404.527 256.972L242.92 227.699C219.796 223.51 202.98 203.376 202.98 179.875Z"
          fill="#DF723A"/>
    <path d="M277.125 328.358L243.039 274.445V231.797" stroke="#DF723A" stroke-width="28.4671" stroke-linecap="round"
          stroke-linejoin="round"/>
    <path d="M430.816 217.312L402.653 254.327L398.629 298.584L364.028 327.552" stroke="#DF723A" stroke-width="28.4671"
          stroke-linecap="round" stroke-linejoin="round"/>
    <path d="M296.976 171.621C293.145 145.132 288.314 132.44 261.825 136.271C235.335 140.102 205.35 144.439 203.189 185.186C207.021 211.676 233.251 256.569 259.74 252.738C286.23 248.907 300.807 198.111 296.976 171.621Z"
          fill="#DF723A"/>
    <path d="M198.428 17.5819C148.019 65.1494 168.303 147.526 223.08 163.673L234.475 144.891C167.687 115.118 171.213 66.837 198.428 17.5819Z"
          fill="#DF723A"/>
    <path d="M363.68 102.377C363.68 90.2837 353.876 80.48 341.782 80.48C329.689 80.48 319.885 90.2837 319.885 102.377L319.885 124.274L363.68 124.274L363.68 102.377Z"
          fill="#F5AC4C"/>
    <rect width="57.7317" height="8.24739" rx="4.12369"
          transform="matrix(-1 -8.74228e-08 -8.74228e-08 1 371.062 123.337)" fill="#151D51"/>
    <rect width="5.49826" height="12.3711" rx="2.74913"
          transform="matrix(-1 -8.74228e-08 -8.74228e-08 1 344.684 59.5957)" fill="#E6E2DD"/>
    <rect width="5.49826" height="12.3711" rx="2.74913"
          transform="matrix(-0.707107 -0.707107 -0.707107 0.707107 369.691 68.9814)" fill="#E6E2DD"/>
    <rect x="314.176" y="68.9814" width="5.49826" height="12.3711" rx="2.74913" transform="rotate(-45 314.176 68.9814)"
          fill="#E6E2DD"/>
    <path d="M535.506 323.385C535.506 333.255 527.324 343.134 517.634 341.256C482.652 334.479 499.762 333.255 499.762 323.385C499.762 313.514 507.764 305.513 517.634 305.513C527.504 305.513 535.506 313.514 535.506 323.385Z"
          fill="#A0400E"/>
    <path d="M334.052 332.899C331.497 323.365 337.155 313.565 346.689 311.01C376.036 303.147 366.023 314.114 368.578 323.648C371.132 333.182 378.637 345.012 361.521 345.012C344.406 345.012 336.607 342.433 334.052 332.899Z"
          fill="#DF723A"/>
    <path d="M308.311 328.527C308.311 338.397 300.309 346.399 290.439 346.399C260.057 346.399 272.567 338.397 272.567 328.527C272.567 318.657 280.568 310.655 290.439 310.655C300.309 310.655 308.311 318.657 308.311 328.527Z"
          fill="#DF723A"/>
    <path d="M494.094 60.8999L500.674 113.546L524.804 98.1908L494.094 60.8999Z" fill="#A0400E"/>
    <path d="M570.867 136.59C570.867 124.479 563.461 113.6 552.194 109.159L505.316 90.6825C480.969 81.0869 454.607 99.0325 454.607 125.201C454.607 144.61 469.565 160.739 488.918 162.199L539.163 165.992C556.273 167.283 570.867 153.749 570.867 136.59Z"
          fill="#DF723A"/>
    <path d="M488.806 126.75L436.227 186.297" stroke="#DF723A" stroke-width="60.0453" stroke-linecap="round"/>
    <path d="M486.38 102.578C485.521 104.363 485.035 106.377 485.035 108.506C485.035 115.906 490.884 121.909 498.104 121.909C502.401 121.909 506.217 119.78 508.598 116.492L486.38 102.578Z"
          fill="white"/>
    <path d="M496.813 116.562C499.139 116.562 501.025 114.628 501.025 112.243C501.025 109.857 499.139 107.923 496.813 107.923C494.487 107.923 492.602 109.857 492.602 112.243C492.602 114.628 494.487 116.562 496.813 116.562Z"
          fill="#151D51"/>
    <circle cx="563.874" cy="124.843" r="10.9679" fill="#151D51"/>
    <path d="M441.889 71.126C441.893 64.4649 446.545 58.71 453.057 57.3105L502.909 46.5977C515.101 43.9779 526.6 53.2747 526.593 65.7443C526.587 76.5535 517.819 85.3109 507.01 85.3044L456.02 85.274C448.211 85.2693 441.884 78.9351 441.889 71.126Z"
          fill="#5579F0"/>
    <rect x="448.934" y="84.3218" width="86.3406" height="11.6829" rx="5.84146"
          transform="rotate(0.0341957 448.934 84.3218)" fill="#151D51"/>
    <path d="M510.633 72.2063C511.171 68.3834 516.694 68.3867 517.228 72.2102C517.489 74.0775 519.246 75.3561 521.103 75.0293C524.906 74.36 526.609 79.6137 523.138 81.303C521.442 82.128 520.769 84.1947 521.654 85.8596C523.465 89.269 518.995 92.5126 516.316 89.7331C515.007 88.3757 512.834 88.3744 511.524 89.7302C508.841 92.5066 504.375 89.2576 506.191 85.8504C507.077 84.1865 506.407 82.1191 504.712 81.292C501.243 79.5985 502.953 74.3469 506.754 75.0207C508.611 75.3497 510.37 74.0733 510.633 72.2063Z"
          fill="#F5AC4C"/>
    <path d="M452.414 60.8999L458.995 113.546L483.124 98.1908L452.414 60.8999Z" fill="#DF723A"/>
    <path d="M335.863 130.407H347.129V246.281L335.863 244.671V130.407Z" fill="#151D51"/>
    <path d="M439.45 126.638L445.082 119.508L497.386 173.422L490.948 180.664L439.45 126.638Z" fill="#5579F0"/>
</svg>
