<svg width="97" height="24" viewBox="0 0 97 24" fill="none" xmlns="http://www.w3.org/2000/svg">
    <g clip-path="url(#clip0_3744_43897)">
        <path fill-rule="evenodd" clip-rule="evenodd"
              d="M7.09003 12.1772V14.3338C7.09003 14.5023 7.05632 14.7044 7.02261 14.8729C6.75292 16.0186 5.97757 16.7263 4.83139 16.9284C3.78635 17.0969 2.77501 16.9284 1.93223 16.2208C1.25801 15.6816 0.920898 14.9403 0.920898 14.0979V6.92042C0.920898 5.53884 1.93224 4.42683 3.3481 4.12355C3.9549 3.98876 4.52799 3.98876 5.13479 4.12355C6.24726 4.42683 6.9889 5.23555 7.12375 6.44865C7.1687 6.96534 7.15371 7.48203 7.13873 7.99872L7.13873 7.99877C7.13124 8.2571 7.12375 8.51543 7.12375 8.77376H4.96623V8.40309V6.92042C4.96623 6.44866 4.73026 6.17908 4.2583 6.17908C3.78635 6.17908 3.51666 6.41496 3.51666 6.92042V11.4358V14.0642C3.51666 14.5696 3.78634 14.8055 4.29201 14.8055C4.73026 14.8055 4.96623 14.5696 4.96623 14.1316V12.2109C5.64046 12.1772 6.34839 12.1772 7.09003 12.1772ZM46.7704 4.22461H44.4443L44.6698 5.69474L44.6701 5.69636C45.2349 9.37761 45.7967 13.0388 46.3322 16.7262H48.4223C48.7257 14.6033 49.0291 12.4804 49.3325 10.3912H49.3662C49.6696 12.5141 49.9393 14.6033 50.209 16.7262H52.3665C52.6776 14.8136 52.9959 12.901 53.3147 10.9851L53.3151 10.9832L53.3152 10.9826L53.3153 10.9819L53.3154 10.9812L53.3155 10.9805C53.6874 8.746 54.06 6.50703 54.4229 4.2583H52.1642C51.8945 6.75188 51.5911 9.24547 51.2877 11.7054H51.254C50.9843 9.24547 50.7146 6.75188 50.4449 4.2583H48.7594C48.6919 4.2583 48.6245 4.35939 48.6245 4.42678C48.5402 5.10072 48.4644 5.76624 48.3885 6.43176C48.3127 7.09728 48.2368 7.7628 48.1526 8.43674L48.1524 8.43839C48.0176 9.51614 47.8828 10.5939 47.748 11.7391C47.7352 11.6877 47.7224 11.6462 47.7114 11.6107L47.7113 11.6105L47.7113 11.6104C47.6935 11.5528 47.6806 11.5111 47.6806 11.4695C47.6132 10.8798 47.5458 10.2817 47.4783 9.68353C47.4109 9.0854 47.3435 8.48728 47.2761 7.89759C47.1844 6.82845 47.065 5.787 46.943 4.72304L46.943 4.72267L46.9053 4.39309C46.9053 4.3257 46.8378 4.22461 46.7704 4.22461ZM72.3205 18.1756V19.7931C72.6239 19.7931 72.9273 19.7931 73.2307 19.7594C73.2644 19.7594 73.2897 19.751 73.315 19.7425C73.3403 19.7341 73.3655 19.7257 73.3993 19.7257C74.242 19.6246 74.8151 19.1865 75.0848 18.4115L75.0849 18.4112C75.2197 17.9395 75.3545 17.4679 75.4556 16.9625L76.8715 9.27959C77.0063 8.70675 77.1075 8.13389 77.2086 7.52734H75.2871C75.0511 9.31329 74.8488 11.0992 74.6466 12.8852C74.5287 11.993 74.4192 11.1009 74.3098 10.2087L74.3095 10.2063L74.3092 10.2038C74.1997 9.31166 74.0902 8.4195 73.9723 7.52734H71.9834V7.66213C72.2097 8.82325 72.4292 9.97763 72.648 11.1283C72.9182 12.5489 73.1873 13.9638 73.4667 15.3788C73.6352 16.1201 73.6352 16.8614 73.433 17.5691C73.3318 18.0071 73.1296 18.1756 72.6576 18.1756H72.3205ZM14.7781 16.6931H12.7217V7.5275H14.5421C14.6095 7.83077 14.6769 8.13404 14.7443 8.53841C15.014 7.83077 15.4186 7.32531 16.1939 7.35901C16.9693 7.39271 17.3064 7.93186 17.5761 8.63949C17.6098 8.50472 17.6435 8.43733 17.6772 8.36995L17.6772 8.36992C17.9469 7.69598 18.4863 7.35901 19.1268 7.35901C19.801 7.35901 20.3404 7.76338 20.5764 8.43732C20.6775 8.74059 20.7449 9.07756 20.7449 9.41453V16.4909V16.6931H18.6885V16.4235V9.85259C18.6885 9.7178 18.6885 9.58302 18.6548 9.44823C18.5874 9.24605 18.4526 9.14495 18.2503 9.14495C18.048 9.14495 17.9132 9.27975 17.8458 9.44823C17.8121 9.54932 17.8121 9.6841 17.8121 9.81889V16.3898V16.6931H15.7557V16.4235V9.7852V9.78515C15.7557 9.65039 15.7557 9.5493 15.722 9.41453C15.6545 9.21235 15.4523 9.07756 15.25 9.11126C15.014 9.14496 14.9129 9.27974 14.8792 9.51562C14.8567 9.58301 14.8642 9.65041 14.8717 9.7178C14.8754 9.7515 14.8792 9.78519 14.8792 9.81889V16.4572C14.7781 16.4909 14.7781 16.592 14.7781 16.6931ZM91.0666 16.3891V16.6923C91.7408 16.6923 92.3813 16.6923 93.0218 16.6586V16.3891V9.81812C93.0218 9.68333 93.0218 9.54855 93.0893 9.44746C93.1904 9.31267 93.3252 9.17788 93.4601 9.17788C93.5949 9.17788 93.7298 9.31267 93.8309 9.44746C93.8983 9.54855 93.8983 9.68333 93.8983 9.81812V16.3891V16.6586H95.8536V16.5239V9.21158C95.8536 8.9083 95.7862 8.60503 95.685 8.33545C95.449 7.69521 94.9434 7.35824 94.3366 7.35824C93.7298 7.35824 93.2578 7.69521 92.9881 8.33545C92.9544 8.40285 92.9207 8.47025 92.887 8.60504C92.6173 7.96479 92.3139 7.39194 91.5723 7.35824C90.8306 7.29084 90.4935 7.83 90.2238 8.50394C90.161 8.27369 90.1242 8.06945 90.0891 7.87506L90.0891 7.8748L90.089 7.87445L90.0889 7.87395L90.0889 7.87381L90.0889 7.87363C90.0676 7.75558 90.047 7.64115 90.0215 7.52672H88.2686V16.6586H90.2238V16.3891V9.78443C90.2238 9.76098 90.222 9.73389 90.22 9.70486C90.2136 9.60878 90.2057 9.4914 90.2575 9.41376C90.3249 9.27898 90.4598 9.14419 90.5946 9.11049C90.7969 9.07679 90.9317 9.21158 90.9992 9.38006C91.0666 9.51485 91.0666 9.64964 91.0666 9.78443V16.3891ZM22.8211 7.84705C22.8042 7.73755 22.7874 7.62806 22.7705 7.52699C22.1637 7.52699 21.6243 7.52699 21.085 7.49329V19.6916H23.1413V16.2545C23.1413 16.2545 23.175 16.2208 23.2088 16.2208C23.2425 16.2545 23.2678 16.2882 23.293 16.3219C23.3183 16.3556 23.3436 16.3893 23.3773 16.423C24.1527 17.1643 25.1977 16.9959 25.7371 16.086C25.9731 15.6817 26.0405 15.2436 26.0405 14.8056V9.48141C26.0405 9.24553 26.0068 9.00966 25.9731 8.77378C25.8382 8.09984 25.4674 7.52699 24.7258 7.3922C23.9841 7.25741 23.3773 7.4596 22.9391 8.09984C22.9391 8.12067 22.9262 8.12862 22.9084 8.13961C22.8974 8.1464 22.8845 8.15436 22.8716 8.16723C22.8548 8.06612 22.8379 7.95658 22.8211 7.84705ZM23.1076 14.4686V12.1098V9.751V9.75093C23.1076 9.64986 23.1076 9.54879 23.1413 9.44772C23.175 9.21185 23.3773 9.07705 23.5796 9.07705C23.7818 9.07705 23.9504 9.24553 23.9841 9.48141V9.751V14.4686V14.7382C23.9504 14.974 23.7818 15.1425 23.5796 15.1425C23.3436 15.1425 23.1413 14.974 23.1076 14.7382V14.4686ZM69.2901 7.49322C69.1215 8.06604 68.953 8.60516 68.7844 9.14428L68.7844 9.14437C68.7383 9.28932 68.6921 9.43298 68.6462 9.57585C68.4574 10.1637 68.2729 10.7383 68.1102 11.3347C68.0765 11.4695 68.0765 11.6717 68.1102 11.8064C68.5147 13.3565 68.9529 14.9066 69.3912 16.4566C69.4101 16.4945 69.4184 16.5323 69.428 16.5762C69.4355 16.6104 69.4438 16.6482 69.4586 16.6925H67.4697C67.3348 16.1197 67.2084 15.5552 67.082 14.9908C66.9556 14.4264 66.8291 13.862 66.6943 13.2891C66.6505 13.3941 66.6022 13.4946 66.5547 13.5935C66.4191 13.8753 66.2898 14.1442 66.2898 14.4685V16.4229V16.6925H64.2334V4.22461H66.2898V11.3347H66.3572C66.4415 11.0314 66.5173 10.7366 66.5932 10.4417C66.669 10.1469 66.7449 9.85202 66.8291 9.54874C66.9134 9.22862 66.9977 8.91692 67.082 8.60522C67.1663 8.29352 67.2505 7.98182 67.3348 7.6617C67.3685 7.59431 67.436 7.49322 67.5034 7.49322H69.2901ZM31.3633 7.52734H29.3406C29.3406 7.62843 29.3406 7.72952 29.3069 7.79692V14.4352C29.3069 14.57 29.3069 14.7048 29.2732 14.8059C29.2058 15.0081 29.0709 15.1429 28.8686 15.1429C28.6664 15.1429 28.5315 15.0418 28.4641 14.8396C28.4304 14.7385 28.4304 14.6037 28.4304 14.5026V7.79692V7.52734H26.374V7.79692V14.9744V15.3787C26.4752 16.356 27.1494 16.9625 28.0933 16.8614C28.6327 16.794 29.0372 16.4907 29.3406 16.0527C29.3743 15.9853 29.408 15.9179 29.4755 15.8168C29.5092 16.1538 29.5429 16.4234 29.5766 16.6929H31.3633V7.52734ZM38.7454 13.3227H40.5995C40.5995 13.4491 40.6018 13.5755 40.6041 13.7017L40.6041 13.7023C40.617 14.4168 40.6297 15.124 40.2287 15.7826C39.6893 16.625 38.678 17.0294 37.5992 16.7935C36.6216 16.5913 35.88 15.7489 35.7788 14.7717C35.7451 14.4348 35.7451 14.1316 35.7451 13.7947V13.7945V9.85192C35.7451 8.841 36.1496 8.06597 37.0598 7.59421C38.442 6.88657 40.431 7.52682 40.5995 9.61604C40.6443 10.2201 40.6296 10.8242 40.6147 11.4382C40.6071 11.7489 40.5995 12.0622 40.5995 12.3792H37.7678V12.851V14.6706C37.7678 15.075 38.0712 15.2772 38.442 15.1424C38.678 15.0413 38.7454 14.8391 38.7454 14.6032V13.5923V13.3227ZM38.678 11.3683V10.8291V9.44756C38.678 9.17798 38.4757 9.00949 38.2397 9.00949C38.0038 9.00949 37.8352 9.17798 37.8015 9.44756V9.61604V11.1324C37.8015 11.1998 37.8015 11.2672 37.8352 11.3346C38.0712 11.3683 38.3746 11.3683 38.678 11.3683ZM56.176 12.3799H58.6706V9.68414C58.6369 7.93189 56.9177 6.81989 55.2995 7.52753C54.3556 7.93189 53.8837 8.67323 53.8499 9.68414C53.8275 10.7612 53.8349 11.8233 53.8424 12.8904L53.8424 12.8915C53.8462 13.4265 53.8499 13.9628 53.8499 14.5028C53.8499 14.6376 53.8499 14.7724 53.8837 14.9072C54.0522 15.9518 54.9624 16.7605 56.0075 16.8279C57.2548 16.8953 58.165 16.2888 58.5358 15.2105C58.6758 14.7672 58.6704 14.324 58.665 13.8807V13.8807C58.6627 13.6837 58.6603 13.4867 58.6706 13.2897H56.8165V13.5593V14.705C56.8165 14.9746 56.648 15.1431 56.3783 15.1768C56.1086 15.2105 55.94 15.0757 55.8726 14.8061C55.8389 14.6713 55.8389 14.5702 55.8389 14.4691V12.7169C55.8389 12.5484 55.8389 12.4642 55.881 12.422C55.9231 12.3799 56.0074 12.3799 56.176 12.3799ZM56.7491 9.51566V11.4027H55.94C55.9063 11.4027 55.8389 11.3016 55.8389 11.2679C55.8389 11.0636 55.8351 10.8631 55.8313 10.6651V10.6649V10.6648V10.6646V10.6645V10.6643V10.6642V10.6641V10.6639C55.8238 10.2746 55.8166 9.89514 55.8389 9.51566C55.8389 9.17868 56.0412 9.0102 56.3109 9.0102C56.5468 9.0102 56.7491 9.21238 56.7491 9.51566ZM61.973 13.3233H63.8271C63.8158 13.5373 63.8196 13.7476 63.8234 13.9554C63.8309 14.3691 63.8382 14.7729 63.726 15.1766C63.4226 16.2549 62.4786 16.8952 61.265 16.8615C60.1526 16.8278 59.2423 16.019 59.0401 14.9407C59.0064 14.806 59.0064 14.7049 59.0064 14.5702V14.5701C59.0064 14.0188 59.0026 13.4714 58.9989 12.9252L58.9989 12.9239C58.9914 11.8344 58.9839 10.7498 59.0064 9.65028C59.0064 8.67307 59.6806 7.83064 60.5908 7.49367C62.2089 6.92082 63.8271 7.99913 63.8608 9.71768V12.2113V12.3797H63.5911H61.265C61.0965 12.3797 61.0291 12.4134 61.0291 12.6156V14.6038C61.0291 14.9407 61.1302 15.1429 61.3662 15.2103C61.7033 15.3114 62.0067 15.1092 62.0067 14.7048C61.973 14.2331 61.973 13.795 61.973 13.3233ZM61.9055 11.3688V9.4818C61.9055 9.4144 61.8718 9.34702 61.8381 9.27962C61.7707 9.11114 61.6358 9.01004 61.4336 9.01004C61.2313 9.01004 61.0965 9.11114 61.0291 9.27962L61.029 9.27967C60.9953 9.38074 60.9616 9.48182 60.9616 9.5829V11.2004C60.9616 11.2677 60.9616 11.3014 60.9953 11.3688H61.9055ZM87.8116 13.0196C87.8041 12.7275 87.7966 12.4355 87.7966 12.1435C87.7966 11.895 87.8021 11.6439 87.8076 11.3916V11.3912V11.3908V11.3905V11.3901V11.3898V11.3894V11.3892C87.8214 10.7525 87.8353 10.1083 87.7629 9.48139C87.6618 8.302 86.7516 7.45958 85.5717 7.39218C84.4592 7.32479 83.549 8.03242 83.2456 9.17812L83.231 9.24993C83.2028 9.38666 83.1782 9.50598 83.1782 9.64988C83.1782 10.1983 83.1745 10.7505 83.1707 11.3039V11.3042V11.3046V11.3049V11.3053V11.3057V11.306C83.1632 12.418 83.1557 13.535 83.1782 14.637C83.2119 15.9175 84.1896 16.8274 85.4032 16.8611C86.6842 16.8947 87.6955 16.0523 87.7966 14.7718C87.8416 14.1877 87.8266 13.6037 87.8116 13.0196ZM85.9425 9.75098V12.1435V14.5696C85.9425 14.7044 85.9425 14.8392 85.8751 14.9403C85.8077 15.0751 85.6728 15.1762 85.538 15.2099C85.3694 15.2773 85.2346 15.1425 85.1672 14.974C85.1335 14.8392 85.0998 14.7044 85.0998 14.5696V9.75098C85.0998 9.64989 85.0998 9.5151 85.1335 9.41401C85.2009 9.21182 85.3357 9.07704 85.538 9.07704C85.7403 9.07704 85.8414 9.24552 85.9088 9.41401C85.9425 9.5151 85.9425 9.64989 85.9425 9.75098ZM82.8395 10.9981H81.2551V10.7285C81.2551 10.3241 81.2551 9.91976 81.2214 9.5154C81.1877 9.21212 80.9854 9.07734 80.7494 9.07734C80.5134 9.07734 80.3112 9.27952 80.2775 9.5491V9.81867V14.4689C80.2775 14.6374 80.3112 14.8058 80.3449 14.9406C80.4123 15.1091 80.5809 15.2102 80.7831 15.2102C80.9854 15.2102 81.1202 15.1091 81.1877 14.9069C81.2214 14.7721 81.2551 14.6037 81.2551 14.4352V13.2558H82.8732V13.5927C82.862 13.7606 82.8583 13.9285 82.8545 14.0951C82.847 14.4302 82.8396 14.7603 82.7721 15.0754C82.5698 16.1874 81.7945 16.8277 80.7831 16.8277C79.6369 16.8614 78.7605 16.2211 78.4908 15.1428C78.4234 14.8732 78.3896 14.57 78.3896 14.2667V9.95347C78.3896 9.5154 78.4571 9.07734 78.6256 8.67297C79.0976 7.62836 80.2438 7.08922 81.3562 7.42619C82.1316 7.66207 82.5361 8.20122 82.7384 8.94255C82.8508 9.41463 82.8432 9.87171 82.8357 10.3238V10.324C82.832 10.5495 82.8283 10.7738 82.8395 10.9981ZM69.6593 16.6927H71.7157V4.22479H69.6593V16.6927ZM34.937 16.6933H32.9817C32.9143 16.6933 32.8469 16.5922 32.8469 16.5248C32.818 16.39 32.7836 16.2552 32.7492 16.1204C32.6632 15.7834 32.5772 15.4465 32.5772 15.1095C32.5435 13.2903 32.5435 11.4374 32.5435 9.61812V9.61689V9.27991H31.667V7.59506H32.6109V6.11238C32.7239 6.08415 32.8359 6.05591 32.9473 6.02784C33.5007 5.88837 34.0386 5.75283 34.5999 5.64062V7.59506H35.6112V9.3136H34.6336C34.6336 9.3473 34.6251 9.381 34.6167 9.4147C34.6083 9.44839 34.5999 9.48209 34.5999 9.51579V14.7388C34.5999 15.3791 34.701 16.0193 34.9033 16.6596C34.9033 16.6499 34.9033 16.6458 34.9041 16.6456C34.9042 16.6456 34.9044 16.6457 34.9047 16.646C34.9053 16.6468 34.9062 16.6486 34.9075 16.6511C34.9117 16.6596 34.9201 16.6764 34.937 16.6933ZM42.8268 8.63906L42.7257 7.52706C42.1189 7.52706 41.5121 7.52706 40.9053 7.49336V16.659H42.9617V16.3894V10.6609C42.9617 9.98694 43.2988 9.64998 43.973 9.58258H44.6472V7.52706C44.6472 7.49336 44.5461 7.39227 44.4787 7.39227C43.8381 7.32488 43.2988 7.66184 42.9954 8.30209C42.9785 8.35263 42.9532 8.4116 42.9279 8.47057C42.9027 8.52954 42.8774 8.58851 42.8605 8.63906H42.8268ZM78.0191 16.6923H76.2998V14.2998H78.0191V16.6923ZM12.3261 12.9518L12.3261 12.952C12.3336 13.5136 12.3411 14.0752 12.3186 14.6368C12.2849 15.6815 11.5096 16.5576 10.4982 16.7598C9.38577 17.0293 8.30702 16.5913 7.76764 15.7151C7.53166 15.3445 7.43053 14.9401 7.39682 14.5021C7.39682 13.9629 7.39307 13.4238 7.38933 12.8846C7.38184 11.8063 7.37434 10.728 7.39682 9.64968C7.43053 8.3018 8.44186 7.32458 9.82402 7.29088C11.1388 7.25719 12.2175 8.23441 12.2849 9.58229C12.3357 10.2416 12.3291 10.8818 12.3228 11.503V11.503V11.503C12.3207 11.7073 12.3186 11.9094 12.3186 12.1096C12.3186 12.3903 12.3224 12.671 12.3261 12.9518ZM10.3311 12.1436V12.9856C10.3337 13.5136 10.3414 14.0415 10.3634 14.5694C10.3634 14.9738 10.1948 15.2097 9.92515 15.2097L9.91328 15.2096C9.90654 15.2099 9.89973 15.21 9.89285 15.21C9.62316 15.21 9.4209 14.9741 9.4209 14.5698V9.65001V9.44783C9.45461 9.21195 9.62316 9.00977 9.85914 9.00977L9.87133 9.00993C9.87798 9.0096 9.88468 9.00944 9.89144 9.00944C10.0937 9.00944 10.2623 9.17793 10.3297 9.4138V9.68338V11.2772C10.3311 11.5629 10.3311 11.8512 10.3311 12.1436Z"
              fill="#6C7297"/>
    </g>
    <defs>
        <clipPath id="clip0_3744_43897">
            <rect width="96.0886" height="23.2942" fill="white" transform="translate(0.827148 0.303711)"/>
        </clipPath>
    </defs>
</svg>
