<svg width="90" height="24" viewBox="0 0 90 24" fill="none" xmlns="http://www.w3.org/2000/svg">
    <path fill-rule="evenodd" clip-rule="evenodd"
          d="M15.9148 18.5273C15.0961 18.5273 14.4526 18.415 13.9849 18.2459C13.5172 18.1336 13.1661 17.9644 12.9909 17.8521C12.757 18.0772 12.5812 18.3586 12.5812 18.3586L12.2302 18.2463L12.5226 15.6007L12.9323 15.6571C13.1661 16.8953 14.0435 17.7962 15.8567 17.7962C17.2604 17.7962 18.1963 16.6707 18.1963 15.432C18.1963 14.4188 17.7867 13.9118 16.383 12.8986C16.2922 12.844 16.2036 12.7915 16.1172 12.7403L16.1171 12.7402C15.7584 12.5276 15.4375 12.3374 15.1547 12.1106C13.8682 11.323 13.0489 10.4222 13.0489 8.95836C13.0489 7.26947 14.5112 6.14354 16.4411 6.14354C17.5508 6.14354 18.2525 6.48051 18.4873 6.59326L18.4883 6.59372L18.8974 6.14354L19.1898 6.19993L18.8974 8.62049L18.4883 8.5641C18.4883 7.43864 17.7862 6.93159 16.6164 6.93159C15.5052 6.93159 14.6865 7.49456 14.6865 8.5641C14.6865 9.52133 15.4466 10.1402 16.324 10.7037C16.7917 10.9851 17.1427 11.2102 17.4932 11.4353C19.5404 12.8422 20.0081 13.7431 20.0081 15.0941C20.0091 17.064 18.4297 18.5273 15.9148 18.5273ZM9.24764 8.62001H8.77992C8.77992 7.60638 8.31221 7.2126 7.37628 7.2126H4.74426V11.6599H6.44035C7.31769 11.6599 7.49346 11.2097 7.61014 10.4776H8.01927V13.6303H7.61014C7.49346 12.7859 7.31769 12.448 6.38176 12.448H4.74426V16.22C4.74426 17.627 5.0953 17.7962 6.03122 17.7962V18.2463H1.58594V17.7962C2.69713 17.7962 2.8724 17.5147 2.8724 16.22V7.94426C2.8724 7.1562 2.52137 6.81833 1.58594 6.81833V6.42454H7.66823C8.72084 6.42454 8.9547 6.36815 9.13046 6.03027H9.54009L9.24764 8.62001ZM72.3545 9.29528V16.0504C72.3545 17.5137 72.7046 17.7952 73.6405 17.7952V18.2454H66.74V17.7952C67.2668 17.7952 67.734 17.626 67.734 17.2886C67.734 17.0631 67.6759 16.6693 67.5582 16.275L67.0314 14.6425H63.172C63.1574 14.6984 63.1033 14.8544 63.0303 15.0652L63.0303 15.0652C62.8086 15.7053 62.4118 16.8508 62.4118 17.2322C62.4118 17.6824 62.9386 17.7952 63.2887 17.7952V18.2454H60.0718V17.7952C60.6567 17.7952 61.1249 17.7388 61.534 16.557L64.5171 7.38082C64.3413 6.98703 64.1079 6.87424 63.6988 6.81785V6.42406H66.3308L69.4881 16.0504C69.7811 17.0635 70.073 17.5706 70.5413 17.7952C71.2433 17.5701 71.4191 17.345 71.4191 16.0504V7.94426C71.3132 7.80847 71.2262 7.68178 71.1468 7.56603C70.8308 7.10576 70.6335 6.81833 69.8392 6.81833V6.42454H72.8222L77.7352 14.4743V8.33853C77.7352 7.09981 77.4433 6.81833 76.4483 6.81833V6.42454H82.9988V6.81833C82.5897 6.81833 82.2386 6.9875 82.2386 7.38129C82.2386 7.6209 82.3235 7.86051 82.4208 8.1349L82.4213 8.13647C82.4381 8.18392 82.4553 8.23242 82.4725 8.28213L84.3443 12.1665L86.1576 8.39492C86.4496 7.88835 86.5086 7.60686 86.5086 7.32538C86.5086 6.98751 86.2738 6.81833 85.7485 6.81833V6.42454H88.8477V6.81833C88.0876 6.81833 87.6188 7.49408 87.2688 8.28166L84.8706 13.0105V16.1068C84.8706 17.4583 85.2217 17.7957 86.1576 17.7957V18.2459H81.7123V17.7957C82.6482 17.7957 82.9993 17.4583 82.9993 16.1068V13.4611L80.4253 8.22574C79.9581 7.2126 79.7824 6.98751 79.4894 6.81833C78.9045 7.04342 78.7293 7.43769 78.7293 8.33853V17.0076C78.7293 17.0076 78.7883 17.6834 78.8464 18.4709L78.0863 18.5273L72.3545 9.29528ZM65.0439 8.73232L63.4059 13.8554H66.798L65.0439 8.73232ZM42.829 9.38192C42.829 11.0862 42.6561 16.3693 42.6561 16.3693C42.6561 17.3916 43.0019 17.8459 43.9832 17.8459V18.3002H40.117V17.8459C41.0977 17.8459 41.617 17.3916 41.617 16.3693L41.9634 7.73455C41.6748 7.05265 41.3863 6.82551 40.6363 6.76909V6.37171H43.579L46.6952 14.4383L49.8692 6.37171H52.5234V6.76909C51.7734 6.76909 51.3698 7.11003 51.3698 7.90527L51.7161 16.2559C51.7161 17.5059 51.9468 17.8464 52.9859 17.8464V18.3007H48.5426V17.8464C49.4077 17.8464 49.8124 17.5624 49.7541 16.2559C49.7541 16.2559 49.5807 10.4048 49.5234 9.38241L47.3889 15.1767C47.0683 15.993 46.7984 16.8277 46.5806 17.6762L45.8889 17.7331C45.7154 17.1081 45.254 15.9724 45.254 15.9724C45.254 15.9724 43.4634 11.0293 42.829 9.38192ZM39.1935 18.3571C38.9628 18.3002 38.7321 18.3002 38.5008 18.3002C38.3131 18.3002 38.0679 18.3378 37.7771 18.3824C37.3531 18.4474 36.832 18.5273 36.2503 18.5273C32.4992 18.5273 29.7293 16.3119 29.7293 12.2219C29.7293 8.75693 32.3263 6.08718 36.3076 6.08718C37.2305 6.08718 38.2696 6.2579 39.1352 6.59837C39.2215 6.51325 39.2791 6.4424 39.3366 6.37165L39.3366 6.37164C39.3944 6.30049 39.4522 6.22944 39.5389 6.14408H39.8853C39.8275 6.76908 39.5967 8.81383 39.5967 8.81383H39.2504C39.0196 7.62122 38.3847 6.82551 36.3649 6.82551C33.9414 6.82551 31.7487 8.70002 31.7487 12.1655C31.7487 16.0852 33.9992 17.789 36.4805 17.789C38.0967 17.789 39.0774 16.8805 39.7123 15.7443L40.1165 15.915L39.1935 18.3571ZM28.2866 8.58669H27.8829C27.8251 7.50741 27.4788 7.16646 26.6132 7.16646H24.9397V16.0852C24.9397 17.5619 25.2282 17.8459 26.2095 17.8459V18.3002H21.8813V17.8459C22.8626 17.8459 23.1511 17.5619 23.1511 16.0278V7.16646H21.4776C20.3813 7.16646 20.2078 7.45051 19.9193 8.58669H19.5156L19.8042 6.03027L20.0927 6.08718C20.2078 6.37123 20.4391 6.37123 21.1313 6.37123H26.7288C27.7678 6.37123 27.9986 6.37123 28.2293 6.03027H28.5757L28.2866 8.58669ZM57.0809 14.1072H57.9626C60.1979 14.1072 62.5499 12.9168 62.5494 10.1963C62.5494 7.58928 60.6093 6.62598 57.3161 6.62598H53.905V7.02246C54.8462 7.02246 55.1992 7.24909 55.1992 8.4958V16.4875C55.1992 17.7347 54.8462 18.0744 53.905 18.0744V18.5277H58.4334V18.0744C57.4329 18.0744 57.0809 17.791 57.0809 16.5438V14.1072ZM57.0809 7.41894H57.3745C59.6681 7.41894 60.5508 8.09884 60.5508 10.2526C60.5508 12.4063 59.5513 13.2565 57.6096 13.2565H57.0809V7.41894ZM33.6735 12.5198C33.6735 14.7298 35.2028 16.2604 37.4375 16.2604C39.496 16.2604 41.1431 14.6168 41.1426 12.5198C41.1426 10.3661 39.5549 8.77921 37.4375 8.77921C35.2617 8.77921 33.6735 10.4229 33.6735 12.5198ZM35.379 12.5198C35.379 10.8761 35.9088 9.4591 37.4375 9.4591C38.8495 9.4591 39.4376 10.9329 39.4371 12.463C39.4371 14.0499 38.9668 15.5805 37.4375 15.5805C35.8498 15.5805 35.379 14.0504 35.379 12.5198ZM11.5612 15.1836V15.5805H14.6777V15.1836C14.2074 15.1836 13.9133 14.9002 13.6192 13.9369C12.9672 12.1247 12.3203 10.3109 11.6786 8.49532H9.79731V8.89228C10.1498 8.89228 10.3265 9.06214 10.3854 9.28925L8.62102 14.3906C8.38586 15.0137 8.1507 15.1836 7.56256 15.1836V15.5805H9.85622V15.1836C9.50323 15.1836 9.26808 15.0142 9.26808 14.7871C9.26808 14.5624 9.326 14.3935 9.38393 14.2246L9.3854 14.2203L9.62056 13.4836H11.9142C12.0315 13.8233 12.1494 14.277 12.1494 14.277C12.2083 14.4469 12.2672 14.6168 12.2672 14.8439C12.2672 15.0137 12.1494 15.1836 11.5612 15.1836ZM9.85522 12.86L10.7374 10.0827L11.6786 12.86H9.85522Z"
          fill="#151D51" fill-opacity="0.6"/>
</svg>
