<svg width="102" height="20" viewBox="0 0 102 20" fill="none" xmlns="http://www.w3.org/2000/svg">
    <g clip-path="url(#clip0_3744_43840)">
        <path fill-rule="evenodd" clip-rule="evenodd"
              d="M14.8353 5.8177H1.79388C1.89625 5.75527 1.99452 5.69517 2.08994 5.6368L2.08996 5.63679L2.08998 5.63678L2.09003 5.63675C2.32036 5.49587 2.53418 5.36509 2.74934 5.23611C2.96692 5.10508 3.18466 4.97437 3.40239 4.84367L3.4024 4.84367L3.4024 4.84366L3.40241 4.84366L3.40241 4.84366L3.40242 4.84365L3.40242 4.84365L3.40242 4.84365L3.40243 4.84365L3.40243 4.84364L3.40244 4.84364L3.40244 4.84364L3.40245 4.84364L3.40245 4.84363L3.40245 4.84363L3.40246 4.84363L3.40246 4.84363L3.40247 4.84362L3.40253 4.84359C3.90502 4.54195 4.40746 4.24034 4.90771 3.93477C5.11451 3.80834 5.32132 3.74422 5.57057 3.74513C7.37854 3.75416 9.18741 3.75416 10.9954 3.74603C11.2645 3.74513 11.4894 3.80654 11.7206 3.94832C12.4581 4.40088 13.2024 4.84429 13.9721 5.30283L13.9724 5.30301L13.9734 5.30358L13.9735 5.30366L13.9752 5.30464C14.2581 5.47321 14.5445 5.64383 14.8353 5.8177ZM23.1174 12.4681H25.4031C25.4799 12.2188 25.4979 11.9867 25.3679 11.7203H24.8188C24.761 10.7766 24.7863 7.12724 24.8594 6.83373H25.4383C25.4406 6.77138 25.4437 6.7124 25.4466 6.65574V6.65572V6.6557V6.65568V6.65566V6.65565C25.4531 6.53182 25.4589 6.41908 25.4546 6.30634C25.4474 6.10585 25.395 6.05347 25.1837 6.04986C24.8999 6.04464 24.6157 6.04555 24.3317 6.04645C24.2225 6.0468 24.1133 6.04715 24.0042 6.04715L23.847 6.04697H23.847C23.6634 6.04666 23.4796 6.04635 23.2962 6.04986C23.1725 6.05257 23.0605 6.10314 23.0614 6.2386C23.0619 6.28926 23.0568 6.34103 23.0516 6.39292C23.0371 6.53992 23.0224 6.68795 23.1346 6.81477C23.16 6.84336 23.2217 6.84471 23.2737 6.84585L23.2944 6.84638C23.3907 6.84968 23.487 6.84912 23.5805 6.84858C23.615 6.84838 23.6491 6.84818 23.6827 6.84818C23.7478 7.29972 23.7324 8.54688 23.6647 8.76994C22.5349 8.82232 21.127 8.79974 20.8886 8.72479V6.87166C21.0972 6.85451 21.2905 6.83825 21.481 6.82199V6.12662C21.239 6.04083 20.0244 5.99658 19.3904 6.05167C19.333 6.05666 19.2765 6.0763 19.2232 6.09482L19.2231 6.09483C19.1993 6.10311 19.1761 6.11117 19.1538 6.11759V6.8247C19.2763 6.83446 19.3919 6.84324 19.5075 6.85202L19.7408 6.86986V11.7167C19.6133 11.7253 19.4922 11.7331 19.3718 11.7409L19.3716 11.741L19.1619 11.7546L19.1587 11.7794C19.1265 12.0299 19.0985 12.2484 19.1746 12.4626C19.6694 12.515 21.2291 12.497 21.4937 12.431C21.4878 12.3561 21.4916 12.2799 21.4955 12.2029C21.503 12.0543 21.5107 11.9023 21.4494 11.7483L21.1799 11.7318C21.0814 11.7257 20.9848 11.7197 20.8895 11.714C20.8344 10.9969 20.857 9.85454 20.9274 9.62335C21.472 9.56736 23.4741 9.58723 23.7026 9.65225C23.7478 10.3088 23.7297 11.472 23.6665 11.7348H23.2366C23.1291 11.7348 23.0605 11.7917 23.0587 11.8946C23.0581 11.9354 23.0554 11.9765 23.0526 12.0178V12.0178V12.0178V12.0179V12.0179V12.0179V12.0179V12.018V12.018V12.018V12.018V12.0181V12.0181V12.0181V12.0181V12.0182V12.0182C23.0429 12.1654 23.0329 12.3159 23.1174 12.4681ZM0.879822 9.29035V6.59375H15.9062C15.973 6.82313 15.9974 8.55615 15.9423 9.25152C15.9391 9.25442 15.9359 9.25746 15.9328 9.26053L15.9328 9.26054C15.9281 9.26512 15.9233 9.26977 15.9179 9.2741L15.9138 9.27784C15.9066 9.28455 15.8984 9.29216 15.8908 9.29216C10.951 9.29667 6.00932 9.30029 1.06766 9.30299C1.03272 9.30299 0.997785 9.29999 0.956068 9.2964L0.955993 9.2964C0.933033 9.29442 0.908019 9.29227 0.879822 9.29035ZM4.50569 8.71057H5.24712C5.24284 8.62556 5.24592 8.54314 5.24894 8.46207V8.46207V8.46206V8.46205V8.46204V8.46203V8.46202V8.46202V8.46201V8.462V8.462V8.46199V8.46198V8.46197V8.46197V8.46196V8.46195V8.46195V8.46194V8.46193C5.25485 8.30365 5.26056 8.15056 5.211 7.99353C5.14418 7.99353 5.07832 7.98939 5.01316 7.9853H5.01315C4.84053 7.97446 4.67287 7.96393 4.50569 8.03146V8.71057ZM2.55865 7.75602C2.79616 7.78943 3.03186 7.80117 3.27841 7.7506V7.03987C3.21353 7.03895 3.15025 7.03537 3.08804 7.03185H3.08804H3.08803H3.08803H3.08803H3.08803H3.08802H3.08802H3.08802H3.08802H3.08802C2.90687 7.0216 2.73476 7.01187 2.55865 7.06967V7.75602ZM4.28173 8.00978H3.55565C3.55565 8.08304 3.55127 8.15429 3.54701 8.22375L3.54701 8.22376C3.53638 8.39663 3.52644 8.55841 3.58636 8.71238H4.28173V8.00978ZM7.41181 8.71599H8.12795V8.00707H7.41181V8.71599ZM10.0217 8.00256H9.30647V8.70877H10.0217V8.00256ZM3.57191 7.04348V7.7524H4.2727V7.04348H3.57191ZM5.22816 7.76505V7.05161H4.51834V7.76505H5.22816ZM6.22245 7.76234V7.04258C6.15695 7.0412 6.09305 7.0371 6.03052 7.0331C5.8482 7.02142 5.67761 7.0105 5.51353 7.06967V7.76324C5.75375 7.76234 5.9741 7.76234 6.22245 7.76234ZM9.30828 7.04168V7.75602H10.0145V7.04168H9.30828ZM8.27811 7.3208V7.3208C8.27156 7.47426 8.26539 7.61876 8.32212 7.76143H9.0211L9.02332 7.72135V7.72134C9.03617 7.49017 9.04813 7.27499 9.01568 7.04529H8.27786C8.28579 7.14099 8.28189 7.23235 8.27811 7.32073V7.32074V7.32074V7.32075V7.32076V7.32077V7.32077V7.32078V7.32078V7.32079V7.3208ZM8.10899 7.77227C8.17491 7.52663 8.1695 7.28551 8.1135 7.03536C8.03692 7.03758 7.96204 7.03357 7.88835 7.02963C7.72219 7.02075 7.56203 7.01218 7.40188 7.076C7.40349 7.14652 7.39952 7.21634 7.39558 7.28562C7.38627 7.44966 7.37712 7.61074 7.44251 7.77137C7.66546 7.77227 7.87577 7.77227 8.10862 7.77227H8.10899ZM6.40216 7.73344C6.63968 7.81472 6.87538 7.78853 7.12192 7.75331V7.04078C7.05704 7.03985 6.99375 7.03627 6.93153 7.03275C6.75039 7.0225 6.57828 7.01277 6.40216 7.07058V7.73344ZM6.20981 8.71689C6.26128 8.47487 6.28205 8.24278 6.19355 8.00346H5.51534V8.71689H6.20981ZM3.28563 8.01972C3.0427 7.96734 2.80971 7.94837 2.54691 8.0441C2.54691 8.09215 2.54666 8.13971 2.54642 8.1869C2.54585 8.29579 2.54529 8.40271 2.54781 8.50919C2.54903 8.5518 2.5564 8.59442 2.5644 8.64063L2.5644 8.64064L2.5644 8.64064L2.56441 8.64066C2.56827 8.66299 2.57228 8.68616 2.57581 8.71057H3.28563V8.01972ZM6.95628 7.98366L6.95621 7.98366C6.81628 7.9815 6.68303 7.97944 6.55117 7.99172C6.49518 7.99714 6.40487 8.07842 6.40307 8.12899C6.40121 8.16878 6.39782 8.20888 6.39441 8.24919C6.38126 8.40465 6.36785 8.56327 6.441 8.7196C6.4962 8.7213 6.55104 8.72515 6.60554 8.72897C6.78287 8.7414 6.9565 8.75357 7.12644 8.69071V7.9854C7.06844 7.9854 7.01183 7.98452 6.95628 7.98366ZM9.03406 8.54463L9.03406 8.54411V8.54393C9.03442 8.41463 9.03474 8.29936 9.03284 8.18408C9.03225 8.14939 9.02631 8.11509 9.01974 8.07718C9.01621 8.05686 9.01251 8.0355 9.00936 8.01249C8.77185 7.97095 8.54698 7.95831 8.31128 8.02333C8.26703 8.26174 8.25168 8.48571 8.32031 8.7178H9.03374C9.03374 8.65684 9.0339 8.59947 9.03406 8.54463ZM1.67453 7.49954C1.45238 7.49412 1.25731 7.67384 1.2555 7.88516C1.2537 8.10009 1.43793 8.29786 1.64834 8.3078C1.84251 8.31683 2.06647 8.10732 2.07189 7.91225C2.07731 7.69912 1.88947 7.50496 1.67453 7.49954ZM15.3698 7.91315C15.3707 7.68919 15.1837 7.49954 14.9688 7.50586C14.7584 7.51218 14.5543 7.7226 14.5642 7.92399C14.5732 8.10641 14.7791 8.3078 14.9652 8.31593C15.1792 8.32586 15.3689 8.13621 15.3698 7.91315ZM101.057 12.4324C101.084 12.4233 101.111 12.4142 101.138 12.407C101.138 12.2056 101.138 12.0042 101.14 11.8056C100.902 11.7721 100.665 11.7387 100.404 11.7026L100.404 11.3233C100.404 11.0755 100.404 10.8314 100.404 10.5873C100.403 10.427 100.403 10.2666 100.404 10.1063V10.1058V10.1057V10.1057V10.1056V10.1056V10.1055V10.1054V10.1054V10.1053V10.1053V10.1052V10.1051V10.1051V10.105V10.105V10.1049V10.1049V10.1048V10.1047V10.1047C100.405 9.72835 100.407 9.35228 100.39 8.9771C100.37 8.51924 100.186 8.13453 99.7606 7.90063C99.1366 7.55746 98.0682 7.70285 97.6257 8.33411C97.5974 8.37444 97.5615 8.40916 97.5217 8.44762L97.5217 8.44766C97.5018 8.46688 97.4809 8.48704 97.4595 8.5093C97.3024 8.18781 97.0947 7.94398 96.7705 7.82657C96.1302 7.59448 95.349 7.7453 94.9083 8.23567C94.8674 8.2807 94.8231 8.32308 94.7748 8.36919L94.7744 8.36957C94.7483 8.39455 94.721 8.42062 94.6925 8.4488L94.6376 8.19413C94.6134 8.08174 94.5909 7.97745 94.5688 7.87624C94.1705 7.82387 93.3243 7.8347 93.0661 7.8934V8.56168C93.2692 8.57342 93.4544 8.58426 93.6323 8.5951C93.6964 8.97981 93.6801 11.4804 93.6142 11.7324C93.4435 11.7405 93.2683 11.7496 93.0841 11.7595C93.0353 12.0133 93.0146 12.2381 93.0877 12.4594C93.8219 12.5154 95.2145 12.4919 95.471 12.4133C95.4603 12.3384 95.464 12.2618 95.4678 12.184C95.4746 12.0452 95.4815 11.9028 95.4068 11.7604C95.2906 11.7543 95.1754 11.7479 95.058 11.7414L95.0572 11.7413C94.9505 11.7354 94.8421 11.7294 94.7295 11.7234V9.77813C94.7298 9.75296 94.7294 9.72779 94.7289 9.70265C94.728 9.64931 94.727 9.59611 94.7331 9.54333C94.8045 8.91208 95.3247 8.52104 96.0236 8.66554C96.2295 8.70798 96.393 8.84074 96.4363 9.06289C96.4433 9.09918 96.4505 9.13551 96.4576 9.17187C96.4979 9.37623 96.5385 9.5817 96.5438 9.78716C96.5559 10.2247 96.5518 10.6634 96.5477 11.1019L96.5477 11.1099V11.11V11.1102V11.1103V11.1105V11.1106V11.1107V11.1109V11.111V11.1112V11.1113V11.1115V11.1116V11.1117V11.1119V11.112V11.1122V11.1123V11.1125V11.1126C96.5466 11.2298 96.5455 11.347 96.5447 11.4642C96.5441 11.5235 96.5366 11.5827 96.529 11.6423L96.529 11.6425C96.5256 11.6691 96.5222 11.6957 96.5194 11.7225L96.2878 11.7436C96.1814 11.7533 96.0797 11.7626 95.9776 11.7721V12.4738C96.5291 12.4765 97.0665 12.4762 97.6144 12.4759L98.1712 12.4756C98.1686 12.3931 98.1736 12.3142 98.1784 12.2378C98.1889 12.0693 98.1987 11.9128 98.126 11.755L97.9346 11.7447C97.8173 11.7385 97.6996 11.7322 97.5724 11.7252C97.5724 11.499 97.5714 11.2758 97.5703 11.0548L97.5703 11.0518V11.0512C97.5676 10.5195 97.5651 10.0001 97.5778 9.48102C97.5869 9.11256 97.8108 8.85157 98.1513 8.72514C98.3238 8.66102 98.5234 8.64477 98.7103 8.64838C99.0363 8.6547 99.2522 8.85428 99.3172 9.17217C99.3343 9.25977 99.3443 9.34917 99.3515 9.43767C99.3907 9.91252 99.3849 10.3874 99.379 10.8662V10.8664V10.8665V10.8666V10.8668V10.8669V10.867V10.8671V10.8673V10.8674V10.8675V10.8676V10.8678V10.8679V10.868V10.8681V10.8683V10.8684V10.8685V10.8687V10.8688V10.8693V10.8698V10.8703V10.8708V10.8714V10.8719V10.8724V10.8729V10.8734V10.8739V10.8745V10.875V10.8755V10.876V10.8765V10.877V10.8776V10.8781V10.8786V10.8791C99.3755 11.1583 99.372 11.4388 99.3777 11.7216L99.2405 11.731L99.2403 11.731C99.076 11.7423 98.931 11.7522 98.7916 11.7622C98.6968 12.0503 98.7004 12.2192 98.8006 12.4522C98.8055 12.4534 98.8104 12.4548 98.8154 12.4562L98.8256 12.4592C98.8476 12.4659 98.8711 12.4729 98.8945 12.4729C99.5574 12.4747 100.22 12.4765 100.883 12.472C100.941 12.4714 100.999 12.4519 101.057 12.4324ZM14.0763 15.1591C14.3862 15.4014 14.6981 15.6451 15.0122 15.8911C14.8751 15.4236 14.7327 14.9689 14.5912 14.5171L14.5911 14.517C14.4027 13.9153 14.2157 13.3185 14.045 12.7032C14.262 12.6808 14.4644 12.6827 14.6608 12.6846H14.6608H14.6609H14.6609H14.6609H14.6609H14.661H14.661H14.661H14.661H14.6611H14.6611H14.6611H14.6611H14.6612H14.6612H14.6612H14.6612H14.6613H14.6613H14.6613H14.6613C14.7811 12.6858 14.8986 12.6869 15.0158 12.6825C15.1216 12.6784 15.2278 12.6812 15.3338 12.6839C15.5375 12.6892 15.7407 12.6945 15.9397 12.6518C15.9903 12.1505 15.9722 10.2107 15.9153 9.95605H0.906091C0.844682 10.3101 0.85281 12.4197 0.917832 12.6834H1.31428L2.86425 12.6834C5.44723 12.6835 8.03072 12.6837 10.6142 12.6807C10.8111 12.6807 10.9718 12.7177 11.1362 12.8486C12.1057 13.6185 13.081 14.3809 14.0761 15.1589L14.0763 15.1591ZM9.00041 11.1689H8.29601V10.4627H9.00041V11.1689ZM4.27368 10.4609V11.1743H3.56838V10.4609H4.27368ZM4.51119 10.4717H5.22734V11.1707H4.51119V10.4717ZM10.001 12.1253H9.2894V11.4245H10.001V12.1253ZM7.14277 11.168H6.40676C6.40676 10.9187 6.40676 10.7011 6.40586 10.4645H7.09762C7.15043 10.6007 7.14507 10.7403 7.13946 10.8863V10.8863C7.13595 10.9775 7.13236 11.0711 7.14277 11.168ZM8.12442 11.1653H7.40828V10.4663H8.12442V11.1653ZM8.30233 12.1216C8.26711 11.8823 8.24543 11.6475 8.32039 11.4082H8.9977V12.1216H8.30233ZM8.12442 11.4209V12.1307H7.41731V11.4209H8.12442ZM6.40766 12.1244V11.4163H7.11207V12.1244H6.40766ZM4.5139 11.4172H5.22824V12.1225H4.5139V11.4172ZM2.57318 12.1207V11.4181H3.26765V12.1207H2.57318ZM3.5747 12.1379V11.4163H4.2791V12.1054C4.12589 12.1634 3.96696 12.1545 3.79861 12.1451C3.72583 12.141 3.65129 12.1368 3.5747 12.1379ZM9.2894 10.469H10.0037V11.1445C9.7608 11.2213 9.53413 11.2014 9.2894 11.1617V10.469ZM3.26765 11.168H2.57228V10.4672H3.26765V11.168ZM5.51361 12.1216V11.4136H6.15661C6.22046 11.5789 6.20994 11.7455 6.19884 11.9213C6.19472 11.9867 6.19051 12.0533 6.19002 12.1216H5.51361ZM2.07287 11.2845C2.0819 11.4976 1.89497 11.6836 1.671 11.6836C1.44975 11.6836 1.25649 11.4958 1.26371 11.2872C1.27003 11.0885 1.4949 10.8754 1.68455 10.8862C1.86968 10.8971 2.06474 11.0966 2.07287 11.2845ZM6.17647 11.1707H5.51361V10.4663H6.17647V11.1707ZM14.9066 10.9178C15.1368 10.9115 15.3084 11.0849 15.3057 11.3197C15.303 11.5292 15.1314 11.7135 14.9309 11.7225C14.7214 11.7315 14.5318 11.5346 14.5336 11.3098C14.5354 11.0831 14.6871 10.9242 14.9066 10.9178ZM51.1838 7.7938C50.7024 7.7938 50.7024 7.7938 50.5245 8.23811C50.5123 8.23463 50.503 8.23236 50.4956 8.23057C50.4838 8.22771 50.4771 8.22609 50.4722 8.22276C50.4451 8.20289 50.4189 8.18212 50.3936 8.15955C49.9023 7.71704 49.3225 7.62221 48.6967 7.75406C48.0284 7.89404 47.566 8.30494 47.3321 8.92987C47.007 9.79774 47.0215 10.6846 47.3403 11.5524C47.4261 11.7845 47.5814 12.022 47.7692 12.181C48.3851 12.7011 49.0968 12.7364 49.8237 12.4519C49.955 12.4004 50.0684 12.3034 50.1842 12.2043L50.1843 12.2043L50.1843 12.2042L50.1844 12.2042C50.239 12.1575 50.2942 12.1103 50.352 12.0672C50.352 12.163 50.3545 12.2584 50.357 12.3533L50.357 12.3538C50.3624 12.5629 50.3677 12.7699 50.3466 12.9748C50.297 13.4516 50.1118 13.802 49.505 13.9049C49.0543 13.9808 48.6371 13.8815 48.2163 13.7605C48.1448 13.74 48.0734 13.719 47.9955 13.6962L47.9948 13.696L47.9942 13.6958L47.8848 13.6638C47.8667 13.707 47.849 13.7468 47.8321 13.7845L47.8319 13.7849L47.8318 13.7851C47.7991 13.8583 47.7699 13.9238 47.7485 13.9916C47.7336 14.0383 47.7193 14.08 47.7064 14.1177C47.604 14.4163 47.5902 14.4567 48.0898 14.6139C48.6335 14.7855 49.2006 14.8116 49.7578 14.743C50.5877 14.641 51.1097 14.2833 51.3373 13.4561C51.4068 13.2014 51.4321 12.9269 51.4348 12.6614C51.444 11.7668 51.4456 10.8721 51.4471 9.97752C51.4477 9.64215 51.4483 9.30678 51.4493 8.97142C51.4493 8.8955 51.4523 8.81958 51.4554 8.74103V8.741V8.74097V8.74093V8.7409V8.74086V8.74081V8.74076V8.74071V8.74066V8.7406V8.74053V8.74046V8.74039C51.4571 8.69675 51.4588 8.65229 51.4601 8.60657C51.6913 8.59573 51.8882 8.5867 52.0968 8.57767V7.82992C52.0624 7.82558 52.0297 7.82039 51.998 7.81537C51.9375 7.80577 51.881 7.79679 51.8241 7.7956C51.6718 7.79173 51.5191 7.79247 51.3666 7.79321H51.3665H51.3665H51.3664C51.3055 7.7935 51.2446 7.7938 51.1838 7.7938ZM50.3581 9.77537C50.3597 9.85007 50.3614 9.92474 50.3611 9.99912C50.3611 10.0807 50.3604 10.1623 50.3598 10.2439C50.3584 10.4188 50.357 10.5937 50.362 10.7685C50.3809 11.3745 49.7352 11.8766 49.1184 11.7646C48.6181 11.6734 48.3924 11.4693 48.2885 10.9383C48.1964 10.4669 48.1612 9.98829 48.2677 9.51146C48.3219 9.26943 48.4005 9.03824 48.5847 8.85943C48.9306 8.52258 49.3388 8.50723 49.7705 8.63999C49.8539 8.66567 49.9324 8.70884 50.0102 8.75167L50.0104 8.75179C50.031 8.76312 50.0515 8.77443 50.0721 8.78538C50.2771 8.89375 50.3909 9.04457 50.3665 9.29653C50.3511 9.45477 50.3546 9.61512 50.3581 9.77528V9.77537ZM62.2282 8.15565V6.2366C62.1308 6.23201 62.0373 6.22788 61.9437 6.22374L61.9436 6.22374C61.8533 6.21975 61.7627 6.21575 61.6683 6.21132C61.5961 5.972 61.6177 5.73539 61.6566 5.46628C62.1975 5.43647 62.7285 5.43377 63.2948 5.46989V11.7183C63.4799 11.7328 63.6316 11.7445 63.7987 11.7571C63.8815 11.9486 63.8616 12.144 63.8418 12.3377L63.8372 12.3838L63.833 12.4281C63.5431 12.4904 62.8387 12.4923 62.538 12.4308C62.5171 12.3324 62.4959 12.2317 62.4742 12.1288L62.4233 11.8872C62.4093 11.8945 62.3968 11.8998 62.3863 11.9043C62.3682 11.9119 62.3555 11.9172 62.3492 11.9269C61.8562 12.7036 60.5711 12.7686 59.8495 12.3568C59.5027 12.159 59.2661 11.8601 59.146 11.4889C58.9798 10.9778 58.904 10.454 58.9699 9.90853C59.0087 9.58523 59.053 9.27006 59.1641 8.9621C59.5407 7.92175 60.767 7.4675 61.7117 7.84951C61.8267 7.89675 61.9333 7.96632 62.049 8.04189L62.049 8.04192C62.1059 8.07903 62.1649 8.11759 62.2282 8.15565ZM62.2409 9.99162H62.2427C62.2427 9.92295 62.2411 9.85419 62.2394 9.78548V9.78544V9.7854V9.78536V9.78532V9.78528V9.78524V9.7852V9.78516V9.78512V9.78508V9.78504V9.785V9.78496V9.78492V9.78488C62.2358 9.62969 62.2322 9.47474 62.2472 9.32153C62.2743 9.04428 62.1479 8.87721 61.9176 8.76072C61.8924 8.74812 61.8674 8.73497 61.8424 8.72181L61.8423 8.72172C61.7778 8.68776 61.7134 8.65384 61.6457 8.62977C61.2303 8.48076 60.8321 8.49611 60.4744 8.78059C60.2243 8.97926 60.1231 9.26012 60.0635 9.56356C59.9823 9.97446 59.9859 10.3863 60.0708 10.7927C60.19 11.3625 60.3778 11.6885 60.9964 11.7869C61.4723 11.8628 62.2508 11.4835 62.2427 10.7638C62.24 10.57 62.2403 10.3768 62.2406 10.1841L62.2409 9.99162ZM54.2317 10.4728H56.4127L56.4328 10.5245C56.5866 10.918 56.736 11.3005 56.8398 11.7245C56.7098 11.7308 56.6113 11.7362 56.5129 11.7417C56.4648 11.7441 56.4164 11.7463 56.3668 11.7486C56.3047 11.7514 56.2407 11.7544 56.1724 11.7579V12.4732C56.4468 12.4723 56.7193 12.4734 56.9908 12.4745H56.9911H56.9914H56.9916H56.9919H56.9922H56.9925H56.9927H56.993H56.9933H56.9936H56.9938H56.9941H56.9944H56.9947C57.5881 12.477 58.1767 12.4794 58.7688 12.4614V11.7408H58.031C58.0197 11.7175 58.0103 11.6991 58.0023 11.6834L58.0022 11.6833C57.9885 11.6565 57.9791 11.6382 57.9723 11.6188C57.7115 10.8686 57.451 10.1181 57.1905 9.36742C56.9972 8.81058 56.8039 8.25367 56.6104 7.69676C56.5476 7.5154 56.4838 7.33432 56.4201 7.15325L56.4198 7.1523C56.3243 6.88107 56.2289 6.60983 56.1363 6.33762C56.0776 6.16694 55.981 6.08385 55.7895 6.09469C55.5795 6.10623 55.3689 6.1027 55.1581 6.09916L55.0481 6.0974C54.919 6.09559 54.8323 6.14255 54.7925 6.26808C54.7776 6.31554 54.7612 6.363 54.7447 6.41047L54.7284 6.45773L54.0448 8.43318C53.696 9.44132 53.3472 10.4493 52.9981 11.4572C52.976 11.5215 52.9495 11.5846 52.9229 11.6478L52.9229 11.6479L52.9229 11.6479L52.9229 11.6479L52.9229 11.648L52.9229 11.648L52.9229 11.648L52.9228 11.6481C52.9114 11.6753 52.9 11.7025 52.8888 11.7299C52.8635 11.7314 52.8404 11.7331 52.8189 11.7346C52.7766 11.7376 52.7402 11.7402 52.7037 11.7408C52.1537 11.7507 52.1483 11.7561 52.1944 12.3115C52.1967 12.3384 52.2055 12.3646 52.2169 12.3985C52.2235 12.4182 52.231 12.4404 52.2386 12.4668L52.3305 12.4681C53.0466 12.4777 53.7621 12.4872 54.4999 12.4578C54.5031 12.409 54.5077 12.3614 54.5121 12.3148C54.5305 12.1227 54.5474 11.9462 54.4602 11.7579L54.3637 11.7533C54.1871 11.7449 54.0063 11.7362 53.8055 11.7263L53.8998 11.4491L53.9024 11.4416C54.0145 11.1123 54.1228 10.7939 54.2317 10.4728ZM55.2991 7.09324C55.3096 7.07575 55.3232 7.05328 55.3407 7.02215C55.6387 7.95323 55.9223 8.83915 56.2068 9.72688C55.9295 9.79642 54.8883 9.80726 54.4801 9.75036C54.4801 9.73243 54.4786 9.71363 54.4771 9.69456C54.4738 9.65214 54.4703 9.60837 54.4828 9.56975C54.7031 8.88345 54.9267 8.19847 55.1502 7.51368L55.2685 7.15129C55.2739 7.13493 55.283 7.11989 55.2991 7.09324ZM43.0517 11.7429H43.7119C43.7905 11.9904 43.7652 12.2171 43.7336 12.4835C42.9382 12.4916 42.1581 12.488 41.3718 12.4844H41.3717L41.3657 12.4844C41.2941 12.3306 41.3026 12.1794 41.3109 12.0325C41.3153 11.9533 41.3197 11.8754 41.3115 11.7989C41.4259 11.7291 41.5411 11.7322 41.6518 11.7351C41.7343 11.7373 41.8143 11.7395 41.8895 11.7113C41.9418 11.4639 41.9581 9.09782 41.9075 8.60383H41.3467C41.3363 8.57294 41.3258 8.54567 41.3162 8.5207L41.3161 8.52054L41.3161 8.52046C41.2973 8.47181 41.2819 8.43184 41.2772 8.3907C41.2122 7.84976 41.2627 7.79377 41.8109 7.79377C41.8903 7.79377 41.9696 7.79338 42.0489 7.79299L42.0491 7.79298C42.2394 7.79205 42.4295 7.79111 42.6201 7.79557C42.8359 7.80009 42.8738 7.8335 42.9181 8.03489C42.9277 8.07825 42.9317 8.12281 42.9357 8.16751L42.9357 8.16759L42.9357 8.16767L42.9358 8.16774C42.9378 8.19 42.9398 8.21228 42.9425 8.23447C42.9458 8.2635 42.9494 8.29227 42.9536 8.32621L42.9537 8.32699L42.9538 8.32753L42.9538 8.32768L42.9539 8.32849L42.9541 8.32996L42.9544 8.33224L42.9546 8.33449C42.9582 8.36295 42.9622 8.39515 42.9668 8.43405C43.0013 8.40083 43.0339 8.37066 43.0649 8.34206L43.0651 8.34185C43.1232 8.28812 43.1753 8.23993 43.2224 8.18751C43.701 7.65108 44.7188 7.58696 45.2589 7.85156C45.6065 8.02225 45.8143 8.30672 45.8955 8.67066C45.9488 8.90817 45.9696 9.15652 45.9732 9.40035C45.9797 9.95068 45.9787 10.5005 45.9776 11.0629V11.0632V11.0634V11.0636V11.0638V11.0641V11.0643V11.0645V11.0648V11.065V11.0652V11.0655V11.0657V11.066V11.0666V11.0672V11.0678V11.0684V11.069V11.0696V11.0702V11.0709V11.0715V11.0721V11.0728C45.9772 11.2842 45.9768 11.4974 45.9768 11.7131L46.2623 11.7302C46.378 11.7372 46.4938 11.7441 46.6126 11.7511C46.677 11.9206 46.6674 12.085 46.6573 12.2585L46.6573 12.2586C46.6532 12.3282 46.6491 12.3992 46.6496 12.4726C46.1582 12.4906 45.6791 12.489 45.2031 12.4874C44.9145 12.4864 44.627 12.4855 44.3386 12.4889C44.2555 12.2342 44.2736 12.0094 44.3242 11.7511L44.5373 11.7396C44.6465 11.7337 44.7568 11.7278 44.8751 11.7213C44.8769 11.6962 44.8789 11.6721 44.8809 11.6488L44.881 11.6482L44.881 11.6478C44.8859 11.5907 44.8904 11.5379 44.8904 11.4856C44.8906 11.3458 44.8912 11.206 44.8918 11.0662V11.0656C44.8935 10.6466 44.8951 10.2276 44.8877 9.80854C44.8841 9.58638 44.8543 9.36332 44.8136 9.14478C44.7667 8.89011 44.6032 8.73387 44.344 8.67969C43.7209 8.55055 43.0219 8.96235 43.0192 9.65682C43.0169 10.2124 43.0186 10.7679 43.0202 11.3234V11.325L43.021 11.6021C43.0216 11.6215 43.0266 11.641 43.0344 11.6712C43.0392 11.69 43.0451 11.7131 43.0517 11.7429ZM26.3825 8.90842C26.1893 9.33558 26.1234 9.78351 26.136 10.2667C26.1234 10.618 26.1622 10.9828 26.2877 11.3341C26.5252 11.9952 26.9759 12.4277 27.6821 12.5506C27.9557 12.5984 28.242 12.6237 28.5174 12.6002C29.2444 12.537 29.844 12.2092 30.1836 11.5581C30.6776 10.6098 30.6704 9.62728 30.2387 8.65105C30.1222 8.38825 29.9253 8.19499 29.6815 8.03966C29.1929 7.729 28.6502 7.64411 28.0966 7.72087C27.3371 7.82653 26.7167 8.17061 26.3825 8.90842ZM29.2372 9.11433C29.3699 9.45208 29.407 9.80609 29.3862 10.1601C29.4024 10.5042 29.3717 10.8356 29.2534 11.1553C29.099 11.5725 28.82 11.7893 28.409 11.8082C27.9295 11.8308 27.6306 11.6664 27.4437 11.2384C27.3561 11.037 27.2983 10.8157 27.2648 10.5981C27.1998 10.1764 27.1971 9.7519 27.3001 9.33378C27.4536 8.71065 27.8898 8.41986 28.5255 8.5201C28.8787 8.57609 29.1098 8.79102 29.2372 9.11433ZM92.449 10.0494C92.4599 10.4441 92.4039 10.8288 92.2747 11.2027C91.9876 12.0371 91.2497 12.5302 90.3927 12.5988C90.0902 12.6232 89.7877 12.6033 89.4923 12.5194C88.7003 12.2945 88.2921 11.7328 88.1404 10.9643C88.0339 10.4224 88.051 9.88146 88.1874 9.33961C88.3816 8.56567 88.8584 8.06898 89.617 7.83598C90.3169 7.62015 90.9869 7.68246 91.6191 8.06808C91.9081 8.24418 92.1077 8.49433 92.2233 8.8068C92.3 9.01541 92.3723 9.22944 92.4129 9.44708C92.4376 9.58233 92.4404 9.72055 92.4431 9.85853V9.85862L92.4431 9.85921C92.4444 9.92277 92.4456 9.98628 92.449 10.0494ZM91.3951 10.1515C91.3608 9.79838 91.3229 9.45431 91.1974 9.1292C91.0095 8.64334 90.7187 8.47627 90.1408 8.49704C89.701 8.51239 89.402 8.73997 89.2594 9.1879C89.2088 9.34594 89.1781 9.5121 89.1573 9.67646C89.0887 10.2165 89.1474 10.7448 89.3605 11.2469C89.4788 11.5251 89.6856 11.749 89.9936 11.7978C90.5815 11.8899 91.0213 11.7526 91.2217 11.0997C91.2868 10.8877 91.3185 10.6661 91.3501 10.445C91.3642 10.3468 91.3782 10.2487 91.3951 10.1515ZM77.6515 10.3793H80.4998C80.5087 10.3513 80.5181 10.3269 80.5267 10.3046C80.5418 10.2656 80.5544 10.2332 80.5567 10.2005C80.5865 9.69382 80.5233 9.19894 80.3282 8.72662C80.1133 8.20464 79.7394 7.86508 79.1659 7.77658C78.9682 7.74588 78.7659 7.71608 78.5672 7.72691C77.8068 7.76755 77.2153 8.09085 76.8676 8.79074C76.4648 9.60261 76.4395 10.4425 76.7123 11.2923C76.9435 12.0156 77.4374 12.4428 78.2078 12.5611C78.8444 12.6577 79.4558 12.5855 80.0582 12.3787C80.1126 12.36 80.1637 12.3327 80.2149 12.3052L80.2397 12.292C80.3571 12.2297 80.3968 12.1285 80.3481 12.0102C80.3017 11.8966 80.2478 11.7866 80.192 11.6726C80.1684 11.6244 80.1444 11.5755 80.1205 11.5253L80.0011 11.5715L80.0007 11.5716L79.9997 11.572C79.93 11.599 79.8697 11.6224 79.8089 11.6454C79.4585 11.7781 79.0964 11.8386 78.7216 11.8052C78.0145 11.7429 77.4997 11.0755 77.6515 10.3793ZM79.1253 8.61374C79.4432 8.76636 79.5913 9.16913 79.5344 9.66131H77.646C77.572 9.33078 77.7373 8.8666 78.0091 8.68147C78.3631 8.44125 78.7487 8.43222 79.1253 8.61374ZM31.2019 11.1259C31.4029 11.0573 31.5767 11.0641 31.7428 11.0707C31.7909 11.0726 31.8383 11.0744 31.8856 11.0744C32.0129 11.0744 32.0499 11.162 32.0391 11.2821C32.0301 11.3834 32.0266 11.4856 32.0231 11.5886V11.5887C32.0216 11.6309 32.0202 11.6732 32.0183 11.7156C32.3994 11.9396 32.7941 11.9324 33.1761 11.8366C33.6023 11.7292 33.7152 11.1891 33.373 10.9065C33.2166 10.7771 33.0151 10.6953 32.8211 10.6165L32.7814 10.6003C32.6389 10.5418 32.4891 10.5001 32.3395 10.4584C32.2835 10.4428 32.2275 10.4271 32.1719 10.4107C31.6399 10.2544 31.2841 9.92932 31.2137 9.36489C31.1369 8.74719 31.388 8.26675 31.9244 7.9588C32.133 7.83869 32.3796 7.74748 32.6171 7.72219C33.1093 7.66891 33.6041 7.69419 34.0855 7.83598C34.3284 7.90732 34.3564 7.9308 34.3555 8.18366C34.3553 8.27247 34.3568 8.36142 34.3583 8.4505V8.45056C34.3624 8.68395 34.3664 8.91829 34.3383 9.15357C34.1555 9.20897 33.9832 9.20268 33.8179 9.19665C33.7326 9.19353 33.6492 9.19048 33.5671 9.19602C33.4848 9.06841 33.5059 8.94926 33.5272 8.82863C33.5408 8.75205 33.5545 8.67487 33.5418 8.59457C33.2239 8.39769 32.8699 8.38415 32.5241 8.50426C32.1375 8.63791 32.0752 9.08133 32.4021 9.33238C32.5493 9.44527 32.7327 9.51842 32.9097 9.58525C33.0579 9.64177 33.2096 9.68885 33.3615 9.73597C33.4668 9.76864 33.5721 9.80133 33.6764 9.83721C34.1975 10.0169 34.5343 10.3556 34.5849 10.9245C34.6427 11.5639 34.4241 12.0651 33.838 12.3758C33.5761 12.5139 33.2926 12.5826 32.9991 12.6042C32.4915 12.6413 31.9894 12.5907 31.4954 12.4706C31.2317 12.4074 31.2056 12.3749 31.2028 12.1085C31.2009 11.8799 31.2013 11.6509 31.2016 11.4159V11.4154V11.4147V11.414V11.4133V11.4126V11.4119V11.4112C31.2018 11.3172 31.2019 11.2222 31.2019 11.1259ZM64.0751 7.84934V8.52033C64.0977 8.53126 64.1143 8.5404 64.1274 8.54758L64.1275 8.54761C64.1479 8.55883 64.1597 8.56529 64.1718 8.56639C64.234 8.57073 64.2968 8.57276 64.3597 8.57478L64.4066 8.57632L64.4095 8.57642C64.6667 8.58445 64.6688 8.58452 64.7561 8.83551C65.0152 9.58416 65.2735 10.3328 65.5309 11.0815L65.6036 11.2933L65.6037 11.2936L65.6038 11.2939L65.6039 11.2941L65.6039 11.2943L65.604 11.2945L65.6041 11.2948L65.6042 11.295L65.6042 11.2952C65.7138 11.6142 65.8234 11.9335 65.9283 12.2546C65.9653 12.3675 66.0005 12.4713 66.1423 12.4722C66.3733 12.4742 66.6038 12.4738 66.8332 12.4734H66.8335L67.1077 12.4731C67.1232 12.4383 67.1376 12.4074 67.1508 12.3788L67.1509 12.3787C67.1761 12.3243 67.1974 12.2785 67.2151 12.2311C67.5953 11.2305 67.9755 10.2281 68.3539 9.22654C68.3824 9.15138 68.411 9.07625 68.4396 9.00111L68.4397 9.00091L68.4398 9.00073L68.4398 9.00057L68.4399 9.00042L68.4399 9.00029L68.44 9.00017L68.44 9.00007L68.4401 8.99998C68.5502 8.71079 68.6605 8.42146 68.7621 8.1293C68.8335 7.9243 68.782 7.84754 68.5788 7.84573C68.1575 7.84159 67.7354 7.8458 67.3133 7.85001L67.3132 7.85001L67.198 7.85115C67.1794 7.85115 67.1603 7.86396 67.1385 7.87865C67.1275 7.88603 67.1158 7.89388 67.1032 7.90082C67.105 7.96449 67.1008 8.02848 67.0966 8.09264C67.0864 8.24687 67.0761 8.40212 67.1501 8.55646C67.3326 8.57181 67.5059 8.58626 67.7218 8.60342C67.525 9.15981 67.3322 9.70397 67.1364 10.257L66.7194 11.4346L66.2192 9.86832C66.0023 9.18925 65.7888 8.52101 65.5733 7.84573L65.2926 7.84448C64.8837 7.84248 64.4842 7.84052 64.0751 7.84934ZM36.6697 6.43214V7.78405C37.0354 7.79127 37.3759 7.79759 37.7371 7.80392V8.57063C37.5544 8.59969 37.3685 8.59705 37.1786 8.59436C37.0203 8.59212 36.8592 8.58984 36.695 8.60585C36.6922 8.63768 36.6886 8.66864 36.6851 8.69904C36.6785 8.75662 36.6721 8.81219 36.6715 8.86775L36.671 9.05752C36.6693 9.68693 36.6675 10.3163 36.6733 10.9457C36.6751 11.111 36.695 11.2808 36.7356 11.4415C36.8006 11.698 36.9298 11.7928 37.1944 11.7964C37.2938 11.7981 37.3947 11.7776 37.4931 11.7577L37.4932 11.7577L37.5249 11.7513C37.6032 11.7353 37.6804 11.7142 37.7677 11.6903L37.7679 11.6903L37.7679 11.6902C37.8134 11.6778 37.8616 11.6646 37.9141 11.651L37.9564 11.7467L37.9839 11.8084C38.033 11.9189 38.0812 12.0272 38.1273 12.136C38.1814 12.2624 38.1399 12.3609 38.0144 12.406C37.8356 12.4701 37.6549 12.5343 37.4698 12.5704C37.1375 12.6363 36.8042 12.6273 36.4683 12.565C35.996 12.4765 35.7476 12.1712 35.6555 11.735C35.6004 11.4758 35.5923 11.2031 35.5887 10.9367C35.5826 10.4658 35.5835 9.99482 35.5845 9.52388C35.5849 9.30216 35.5854 9.08044 35.5851 8.85872C35.5851 8.80889 35.5816 8.75906 35.5776 8.70309L35.5776 8.70298V8.70291L35.5776 8.7028L35.5776 8.70264L35.5776 8.70244L35.5776 8.70217C35.5755 8.6732 35.5734 8.64258 35.5715 8.60946C35.3611 8.59953 35.1633 8.5896 34.9529 8.57876C34.8834 8.33132 34.906 8.092 34.9367 7.82107C35.0541 7.8122 35.1697 7.80364 35.2906 7.79467L35.567 7.77411C35.5689 7.74665 35.5712 7.71887 35.5735 7.69086C35.5789 7.62492 35.5844 7.55773 35.5851 7.49055C35.5862 7.36937 35.5858 7.24819 35.5853 7.12708V7.12657V7.12652V7.12646V7.12641V7.12635V7.1263V7.12624C35.5847 6.957 35.5841 6.78788 35.5878 6.61907C35.5923 6.42401 35.6329 6.37434 35.8253 6.37614C35.8934 6.37707 35.9618 6.37448 36.0312 6.37184C36.2315 6.36424 36.4396 6.35634 36.6697 6.43214ZM86.689 9.42251C86.9771 9.47398 87.2489 9.47669 87.5578 9.41619C87.5502 9.34542 87.5453 9.27893 87.5406 9.21548V9.21542V9.21536C87.5318 9.09669 87.5238 8.98869 87.5009 8.88337C87.4006 8.45079 87.1749 8.09769 86.7676 7.89359C86.4732 7.74639 86.1499 7.71117 85.8194 7.71749C84.8422 7.73555 84.1026 8.19974 83.7991 9.16694C83.7179 9.42522 83.689 9.68621 83.6601 9.95262C83.6059 10.4511 83.6709 10.9316 83.8497 11.3921C84.0683 11.9557 84.4674 12.3386 85.0671 12.4975C85.6785 12.6601 86.288 12.6402 86.8895 12.4596C87.0891 12.4 87.295 12.3304 87.4575 12.1299C87.4153 12.0614 87.3897 11.9836 87.364 11.9054C87.3199 11.7713 87.2755 11.636 87.146 11.5447C87.0569 11.5712 86.9698 11.5998 86.8837 11.6279L86.8836 11.628C86.6966 11.6892 86.5145 11.7489 86.3278 11.7823C85.6884 11.8979 85.0048 11.6775 84.8097 10.8647C84.6878 10.359 84.6824 9.84515 84.7998 9.34033C84.9461 8.71178 85.3037 8.46434 85.9404 8.50498C86.3133 8.52846 86.5852 8.7768 86.6457 9.15068C86.6601 9.23738 86.6737 9.32317 86.689 9.42251ZM75.9815 9.43979H75.1597L75.1454 9.34876L75.1452 9.34738L75.1448 9.34478C75.1337 9.27364 75.1232 9.20681 75.1119 9.13997C75.0478 8.77151 74.7696 8.53129 74.3957 8.5042C73.7771 8.45995 73.4114 8.72997 73.2633 9.31698C73.1332 9.83173 73.1386 10.3492 73.2723 10.8676C73.4872 11.7011 74.2079 11.9088 74.8292 11.7761C75.0085 11.7376 75.1839 11.6812 75.3632 11.6237C75.4448 11.5974 75.5273 11.5709 75.6113 11.5458C75.7366 11.6394 75.785 11.7804 75.833 11.9202C75.8494 11.9677 75.8657 12.0152 75.8849 12.0605C75.9048 12.1066 75.8524 12.2141 75.8018 12.252C75.7043 12.3233 75.5887 12.3766 75.4731 12.4173C74.8319 12.6403 74.1817 12.6737 73.5234 12.4967C72.9671 12.3468 72.5679 12.0054 72.3521 11.478C71.9981 10.6129 72.0026 9.73871 72.3728 8.87898C72.6943 8.13484 73.312 7.79528 74.0905 7.72846C74.3542 7.70588 74.6296 7.73478 74.8897 7.78716C75.5228 7.91539 75.8822 8.36242 75.9788 9.0307C75.9908 9.11058 75.9881 9.19246 75.9849 9.28669V9.28699C75.9833 9.33436 75.9815 9.38486 75.9815 9.43979ZM40.2415 11.725V7.83269C40.1939 7.82755 40.1504 7.82215 40.1097 7.8171C40.0217 7.80616 39.9472 7.7969 39.873 7.79566C39.7265 7.79331 39.5802 7.7939 39.4339 7.7945C39.2998 7.79504 39.1657 7.79558 39.0314 7.79386C38.4883 7.78745 38.4887 7.8059 38.4964 8.18815C38.4974 8.2369 38.4985 8.29157 38.4986 8.35286C38.4986 8.55696 38.5338 8.58496 38.7325 8.59399C38.8235 8.59773 38.9146 8.59673 39.0036 8.59576C39.0435 8.59532 39.0829 8.59489 39.1217 8.59489C39.184 8.97147 39.175 11.4739 39.1118 11.7349C39.0801 11.7349 39.0481 11.7347 39.0157 11.7344H39.0157H39.0156H39.0155C38.9391 11.7339 38.8611 11.7333 38.783 11.7358C38.7055 11.7384 38.6276 11.7443 38.5465 11.7504L38.5464 11.7504L38.5463 11.7504L38.5462 11.7505C38.5149 11.7528 38.4831 11.7552 38.4507 11.7575C38.4164 12.0158 38.3866 12.2415 38.4624 12.4628C38.9718 12.5197 40.7201 12.4989 40.9685 12.4303C40.971 12.3993 40.974 12.3683 40.9771 12.3371C40.996 12.1444 41.0155 11.9457 40.9152 11.725H40.2415ZM69.1415 12.4393V11.7656C69.2344 11.7607 69.3244 11.7557 69.4123 11.7509L69.4137 11.7508L69.4138 11.7508L69.4148 11.7507C69.5501 11.7433 69.6806 11.7361 69.8098 11.7295C69.8739 11.4794 69.8893 8.98416 69.827 8.59945L69.7335 8.59286L69.7333 8.59285L69.7325 8.59279C69.6698 8.58834 69.6053 8.58376 69.5407 8.57958C69.4531 8.57416 69.3655 8.56874 69.258 8.56242V7.89504C69.4956 7.83002 70.3408 7.81286 70.8818 7.86343C70.937 8.02972 70.9304 8.20283 70.9238 8.37631V8.3765V8.37669V8.37689C70.9208 8.45572 70.9178 8.53462 70.9206 8.61299C70.927 8.79472 70.9257 8.97691 70.9244 9.15891C70.9239 9.23376 70.9233 9.30858 70.9233 9.38332C70.9233 9.51133 70.9235 9.63957 70.9238 9.76792V9.76826C70.924 9.89695 70.9242 10.0258 70.9242 10.1546C70.9242 10.2832 70.9245 10.4117 70.9247 10.5402L70.9247 10.5526C70.9249 10.6769 70.9251 10.8012 70.9251 10.9258V11.725C71.1635 11.7368 71.3821 11.7476 71.607 11.7593C71.6883 11.9194 71.6767 12.0799 71.6653 12.2378C71.661 12.2973 71.6568 12.3564 71.6575 12.415C71.429 12.489 69.603 12.5089 69.1415 12.4393ZM40.2653 6.50647C40.2662 6.11634 39.9871 5.77407 39.5879 5.81832C39.149 5.77136 38.8754 6.16962 38.8881 6.49473C38.9043 6.90473 39.1518 7.15669 39.5527 7.17926C39.9564 7.20184 40.2644 6.85867 40.2653 6.50647ZM82.0378 12.6643C81.5049 12.6661 81.1961 12.2443 81.3848 11.7774C81.4056 11.7269 81.4318 11.6772 81.4661 11.6348C81.6973 11.3458 82.2843 11.3006 82.5561 11.5508C82.7629 11.7413 82.7692 11.9879 82.7078 12.2299C82.6446 12.4773 82.4541 12.6128 82.2057 12.6625C82.1679 12.6705 82.1287 12.6684 82.09 12.6662C82.0724 12.6652 82.055 12.6643 82.0378 12.6643ZM70.2717 7.16179C70.6808 7.15818 70.9318 6.90261 70.9309 6.49171C70.93 6.07719 70.7033 5.84239 70.3024 5.83697C69.8833 5.83246 69.6007 6.09164 69.6025 6.47906C69.6043 6.87281 69.8906 7.16541 70.2717 7.16179Z"
              fill="#6C7297"/>
    </g>
    <defs>
        <clipPath id="clip0_3744_43840">
            <rect width="101.291" height="19.1794" fill="white" transform="translate(0.633789 0.263672)"/>
        </clipPath>
    </defs>
</svg>
