<svg width="89" height="25" viewBox="0 0 89 25" fill="none" xmlns="http://www.w3.org/2000/svg">
    <g clip-path="url(#clip0_3744_43838)">
        <path d="M6.07818 10.9984H8.18701V8.72617H6.09263V5.60547H2.65495V8.72617H0.907227V10.984H2.64051V15.5572C2.64051 18.4047 3.40604 19.2676 6.30928 19.2676C6.59128 19.2676 6.89049 19.2401 7.19682 19.2121C7.5181 19.1827 7.84722 19.1525 8.17256 19.1525V16.6646C8.02812 16.6646 7.88368 16.6789 7.73925 16.6933C7.5948 16.7077 7.45036 16.7221 7.30592 16.7221C6.54039 16.7221 6.07818 16.5495 6.07818 15.7442V10.9984Z"
              fill="#6C7297"/>
        <path fill-rule="evenodd" clip-rule="evenodd"
              d="M11.2057 14.8237C11.2635 16.2762 12.0724 17.1966 13.5312 17.1966C14.3401 17.1966 15.1634 16.7939 15.51 16.0317H18.7022C18.1244 18.4621 15.8567 19.5119 13.5312 19.5119C10.0935 19.5119 7.76806 17.4842 7.76806 13.9464C7.76806 10.7682 10.3246 8.43845 13.4157 8.43845C17.2 8.43845 19.0633 11.2715 18.8899 14.8093H11.2057V14.8237ZM15.4532 12.9112C15.3954 11.7461 14.5865 10.768 13.4166 10.768C12.1888 10.768 11.38 11.631 11.2066 12.9112H15.4532Z"
              fill="#6C7297"/>
        <path d="M26.4434 12.5654C26.4434 11.7025 25.6346 11.0554 24.7535 11.0554C22.8324 11.0554 22.5436 12.6804 22.5436 14.1186C22.5436 15.456 23.1213 16.8366 24.5802 16.8366C25.8079 16.8366 26.3857 16.1463 26.559 15.039H29.8811C29.5922 17.8721 27.4401 19.4972 24.6524 19.4972C21.518 19.4972 19.1203 17.3544 19.1203 14.1761C19.1203 10.8684 21.2147 8.49549 24.6524 8.49549C27.2667 8.49549 29.5922 9.89047 29.8233 12.6085H26.4434V12.5654Z"
              fill="#6C7297"/>
        <path d="M33.42 5.61984H29.9679V19.2387H33.4056V13.5582C33.4056 12.4077 33.9833 11.3004 35.2688 11.3004C37.0421 11.3004 37.0308 12.5257 37.0186 13.8566C37.0176 13.9674 37.0166 14.0794 37.0166 14.191V19.2243H40.4542V12.5084C40.4542 10.9984 40.1653 8.45291 36.6699 8.45291C35.3988 8.45291 33.9978 9.15758 33.4778 10.193H33.42V5.61984Z"
              fill="#6C7297"/>
        <path d="M40.7428 8.73981H44.0649V10.595H44.1227C44.6427 9.25753 45.8126 8.56723 47.257 8.56723C47.5459 8.56723 47.777 8.56723 48.0659 8.62476V11.7455C47.6037 11.6304 47.1993 11.5729 46.7226 11.5729C45.0327 11.5729 44.166 12.7378 44.166 14.0609V19.2094H40.7284C40.7428 19.195 40.7428 8.73981 40.7428 8.73981Z"
              fill="#6C7297"/>
        <path fill-rule="evenodd" clip-rule="evenodd"
              d="M48.082 11.9907L48.0833 11.9619H51.2019C51.3753 11.0271 52.0252 10.6244 52.9497 10.6244C53.7152 10.6244 54.6396 10.9264 54.6396 11.7318C54.6396 12.3646 54.293 12.5947 53.7152 12.7098C53.2528 12.813 52.7399 12.8848 52.2134 12.9586C50.0262 13.2649 47.6054 13.604 47.6054 16.3628C47.6054 18.5632 49.2375 19.5412 51.2164 19.5412C52.5019 19.5412 53.7874 19.1816 54.7118 18.2037C54.7118 18.5488 54.7696 18.8365 54.8852 19.1816H58.3228C57.9184 18.3762 57.9184 17.3839 57.9184 16.521V11.9475C57.9184 8.98485 55.5351 8.4671 53.0363 8.4671C51.8664 8.4671 50.6386 8.69721 49.7142 9.21496C48.7818 9.72914 48.1486 10.5837 48.0833 11.9619H48.0676L48.082 11.9907ZM52.5024 17.4269C54.1345 17.4269 54.7123 16.5066 54.5967 14.3638C54.3217 14.535 53.878 14.6246 53.4176 14.7177C53.1042 14.781 52.7832 14.8459 52.5024 14.9391C51.7513 15.1116 51.1013 15.4568 51.1013 16.2765C51.1013 17.0818 51.7368 17.4269 52.5024 17.4269Z"
              fill="#6C7297"/>
        <path fill-rule="evenodd" clip-rule="evenodd"
              d="M65.7463 19.2247H69.0107V5.61941H65.573V9.96275H65.5152C64.8219 8.9704 63.8397 8.51017 62.5542 8.51017C59.5932 8.51017 58.1344 11.0558 58.1344 13.774C58.1344 16.6791 59.521 19.5124 62.8431 19.5124C63.9842 19.5267 65.0675 18.9658 65.6886 18.0023H65.7463V19.2247ZM63.665 16.9088C62.0906 16.9088 61.5706 15.3558 61.5706 13.9035C61.5706 12.5662 62.0906 11.0563 63.665 11.1282C65.1816 11.1282 65.7016 12.5087 65.7016 14.0185C65.7016 15.3414 65.3549 16.9088 63.665 16.9088Z"
              fill="#6C7297"/>
        <path fill-rule="evenodd" clip-rule="evenodd"
              d="M69.5449 11.9907L69.5462 11.9619H72.6648C72.8382 11.0271 73.4882 10.6244 74.4126 10.6244C75.1781 10.6244 76.1025 10.9264 76.1025 11.7318C76.1025 12.3646 75.7559 12.5947 75.1781 12.7098C74.7157 12.813 74.2028 12.8848 73.6763 12.9586C71.4891 13.2649 69.0683 13.604 69.0683 16.3628C69.0683 18.5632 70.7005 19.5412 72.6793 19.5412C73.907 19.5412 75.2503 19.1816 76.1747 18.2037C76.1747 18.5488 76.2325 18.8365 76.3481 19.1816H79.7857C79.3813 18.3762 79.3813 17.3839 79.3813 16.521V11.9475C79.3813 8.98485 76.998 8.4671 74.4992 8.4671C73.3293 8.4671 72.1015 8.69721 71.1771 9.21496C70.2447 9.72914 69.6115 10.5837 69.5462 11.9619H69.5305V11.9907H69.5449ZM73.964 17.4271C75.5962 17.4271 76.1739 16.5066 76.0584 14.3634C75.7834 14.5346 75.3396 14.6242 74.8792 14.7173C74.5659 14.7806 74.2448 14.8455 73.964 14.9387C73.2129 15.1113 72.5629 15.4565 72.5629 16.2764C72.5051 17.0819 73.1985 17.4271 73.964 17.4271Z"
              fill="#6C7297"/>
        <path d="M79.8869 8.73981H79.9447V19.2094H83.3824V14.0609C83.3824 12.7378 84.249 11.5729 85.939 11.5729C86.4012 11.5729 87.1089 11.6304 87.5711 11.7455V8.62476C87.2678 8.56723 86.6901 8.56723 86.4012 8.56723C84.9568 8.56723 83.7868 9.25753 83.2668 10.595H83.209V8.73981H79.9447V8.72543H79.8869V8.73981Z"
              fill="#6C7297"/>
        <path d="M87.5707 15.8021H84.133V19.2242H87.5707V15.8021Z" fill="#6C7297"/>
    </g>
    <defs>
        <clipPath id="clip0_3744_43838">
            <rect width="88.0812" height="23.2942" fill="white" transform="translate(0.239258 0.96875)"/>
        </clipPath>
    </defs>
</svg>
