<svg width="106" height="23" viewBox="0 0 106 23" fill="none" xmlns="http://www.w3.org/2000/svg">
    <g clip-path="url(#clip0_3744_43865)">
        <path fill-rule="evenodd" clip-rule="evenodd"
              d="M5.25162 7.11513C6.27698 5.35016 8.17128 4.27734 10.2046 4.27734C12.2379 4.27734 14.1149 5.35017 15.1402 7.09783C16.7217 9.81449 15.8006 13.2925 13.0721 14.8671C10.3436 16.4417 6.85048 15.5247 5.269 12.808V15.4381H1.74108V7.30547H0.28125V4.5369H5.25162V7.11513ZM10.2046 11.3891L12.4812 13.0329L11.5775 10.3682L13.8542 8.72436H11.0736L10.2046 6.05961L9.33566 8.72436H6.52028L8.79692 10.3682L7.92797 13.0329L10.2046 11.3891ZM15.8867 5.48926H23.4813V6.389H20.1272V15.5075H19.2235V6.389H15.8867V5.48926ZM104.158 7.70397L103.845 7.25429V7.92881H103.758V7.09863H103.845L104.158 7.54831L104.47 7.09863H104.557V7.92881H104.47V7.25429L104.158 7.70397ZM103.289 7.94541H103.184V7.20171H102.906V7.11523H103.567V7.20171H103.289V7.94541ZM73.1709 13.4143C73.1709 13.4143 73.3273 12.7221 73.5533 11.9262L74.6481 8.20605H76.4382L74.0399 15.4387H72.2151L69.8516 8.20605H71.659L72.7712 11.9608C72.9971 12.7221 73.1709 13.4143 73.1709 13.4143ZM32.7985 8.04934C31.7905 8.01473 30.852 8.58574 30.435 9.50282V8.20507H29.5312V18.3275H30.435V14.1574C30.852 15.0918 31.8079 15.6801 32.8332 15.6282C34.6407 15.6282 35.8746 14.2612 35.8746 11.8561C35.8746 9.45091 34.6407 8.04934 32.7985 8.04934ZM32.6768 14.8669C31.2865 14.8669 30.4176 13.8287 30.4176 11.8561C30.4176 9.8835 31.2865 8.82799 32.6421 8.82799C33.9976 8.82799 34.9361 9.86619 34.9361 11.8388C34.9361 13.8114 34.1019 14.8669 32.6768 14.8669ZM81.7027 12.3413C81.7549 13.3968 82.6586 14.2101 83.7187 14.1582C84.605 14.1582 85.4044 13.6737 85.8042 12.895L87.0033 13.8121C86.2734 14.9887 84.97 15.6809 83.5797 15.6463C81.4247 15.6463 79.9648 14.1236 79.9648 11.7876C79.9648 9.55547 81.5116 8.06738 83.5449 8.06738C85.8737 8.06738 86.9859 9.6593 86.9859 11.8741V12.324H81.7027V12.3413ZM85.3002 10.9397C85.248 10.0573 84.4834 9.38244 83.597 9.43436C82.6586 9.39975 81.8765 10.0919 81.7723 10.9917H85.3002V10.9397ZM95.758 8.22211L94.9064 11.3368C94.6458 12.2712 94.5415 12.7038 94.3851 13.4133C94.2655 12.7733 94.1716 12.4149 93.9929 11.7327L93.9928 11.7322L93.9914 11.727L93.9877 11.7126C93.9601 11.6073 93.9305 11.4943 93.8985 11.3714L93.0643 8.2048H91.5002L90.666 11.3195C90.4401 12.1674 90.3184 12.6865 90.1794 13.396C90.053 12.7198 89.9123 12.1865 89.7442 11.5494L89.6928 11.3541L88.8586 8.1875H87.0859L89.1714 15.4205H90.8919L91.7261 12.6865C91.9347 11.9251 92.1606 10.9561 92.2996 10.2467C92.4386 11.0599 92.6298 11.8732 92.8557 12.6692L93.6204 15.4378H95.3062L97.5133 8.2048H95.758V8.22211ZM101.619 11.1997L100.75 11.0093C99.7074 10.8017 99.2208 10.6979 99.2208 10.1787C99.2208 9.65962 99.7422 9.46927 100.42 9.46927C101.185 9.46927 101.915 9.76345 102.471 10.2826L103.479 9.20971C102.662 8.44832 101.567 8.03302 100.437 8.05032C99.047 8.05032 97.5003 8.72519 97.5003 10.2999C97.5003 11.615 98.4909 12.1514 99.7596 12.4283L100.837 12.6533L100.865 12.6595C101.543 12.8114 101.949 12.9023 101.949 13.3973C101.949 13.8992 101.428 14.2106 100.576 14.2106C99.7074 14.2279 98.8906 13.8126 98.3693 13.1205L97.1875 14.1587C98.0217 15.1451 99.273 15.6988 100.559 15.6469C102.227 15.6469 103.739 14.8509 103.739 13.207C103.705 11.8746 102.749 11.4593 101.619 11.1997ZM24.8372 8.0498C22.7864 8.0498 21.5352 9.57243 21.5352 11.8564C21.5352 14.1403 22.7691 15.6283 24.8372 15.6283C26.8879 15.6283 28.1565 14.1403 28.1565 11.8564C28.1565 9.57243 26.9053 8.0498 24.8372 8.0498ZM24.8372 14.867C23.4295 14.867 22.491 13.7423 22.491 11.8564C22.491 9.97039 23.4295 8.81112 24.8372 8.81112C26.2449 8.81112 27.1833 9.95309 27.1833 11.8564C27.1833 13.7423 26.2622 14.867 24.8372 14.867ZM77.25 8.22266H78.9879V15.4559H77.25V8.22266ZM66.5121 14.1582C65.452 14.2101 64.5482 13.3968 64.4961 12.3413V12.324H69.7967V11.8741C69.7967 9.6593 68.6844 8.06738 66.373 8.06738C64.3397 8.06738 62.793 9.55547 62.793 11.7876C62.793 14.1236 64.2528 15.6463 66.4078 15.6463C67.7981 15.6809 69.1015 14.9887 69.8315 13.8121L68.6323 12.895C68.1978 13.6737 67.3984 14.1582 66.5121 14.1582ZM66.373 9.43436C67.2594 9.38244 68.024 10.0573 68.0762 10.9397V10.9917H64.5309C64.6351 10.0746 65.4346 9.39975 66.373 9.43436ZM62.6713 8.22242C62.6886 9.26066 62.1673 10.2124 61.2983 10.7661C61.0203 10.9218 60.7422 11.043 60.4468 11.1295L63.0536 15.4382H60.8986L58.5003 11.3025H56.6234V15.4382H54.7812V5.10769H58.5872C59.4735 5.02117 60.3773 5.19421 61.1941 5.5749C62.1499 6.11132 62.7234 7.13226 62.6713 8.22242ZM58.5872 9.65865C59.0738 9.69326 59.5778 9.64135 60.0471 9.46831C60.5163 9.22605 60.7943 8.72423 60.777 8.1705C60.8117 7.63408 60.5163 7.14957 60.0471 6.90731C59.5778 6.75157 59.0912 6.68236 58.5872 6.71696H56.6234V9.65865H58.5872ZM42.9475 14.8502C41.5919 14.8502 40.4971 13.9158 40.4971 12.0297V11.9258H46.0235V11.8047C46.0235 9.65905 44.9808 8.0498 42.8432 8.0498C40.8968 8.0498 39.5586 9.60713 39.5586 11.7874C39.5586 14.2445 40.862 15.6288 42.9127 15.6288C44.2509 15.6634 45.4848 14.8848 46.0409 13.6735L45.3632 13.2236C44.9634 14.2099 44.0076 14.8329 42.9475 14.8502ZM42.8432 8.79386C44.0945 8.84577 45.0851 9.884 45.0503 11.1472V11.1991H40.5144C40.6361 9.74556 41.505 8.79386 42.8432 8.79386ZM79.0949 6.49234C79.0949 7.02745 78.6592 7.46123 78.1217 7.46123C77.5842 7.46123 77.1484 7.02745 77.1484 6.49234C77.1484 5.95723 77.5842 5.52344 78.1217 5.52344C78.6592 5.52344 79.0949 5.95723 79.0949 6.49234ZM41.5729 5.48926H33.9609V6.389H37.3151V15.5075H38.2188V6.389H41.5729V5.48926ZM48.3356 9.41697C48.7527 8.51714 49.6738 7.98071 50.6644 8.04992C51.3248 8.03262 51.9852 8.29218 52.437 8.7594C52.8889 9.27853 53.0801 9.74575 53.0801 11.3551V15.4389H52.1763V11.5454C52.1763 10.4033 52.1068 9.74576 51.7245 9.33045C51.3769 9.00167 50.9077 8.82862 50.4211 8.86323C49.8649 8.84592 49.3436 9.07088 48.9612 9.46888C48.5441 9.9188 48.3182 10.5245 48.3356 11.1474V15.4562H47.4493V8.22297H48.3356V9.41697Z"
              fill="#6C7297"/>
    </g>
    <defs>
        <clipPath id="clip0_3744_43865">
            <rect width="105.338" height="21.3342" fill="white" transform="translate(0.203125 0.674805)"/>
        </clipPath>
    </defs>
</svg>
