<svg width="100" height="24" viewBox="0 0 100 24" fill="none" xmlns="http://www.w3.org/2000/svg">
    <g clip-path="url(#clip0_3744_43884)">
        <path fill-rule="evenodd" clip-rule="evenodd"
              d="M28.0832 1.57969C26.5155 0.69349 24.8514 0.190864 23.1461 0.0453687C21.097 -0.113354 19.0203 0.243782 17.0537 1.12998C15.8573 1.67228 14.7845 2.39975 13.8769 3.31241C13.4781 3.72395 13.1207 4.16194 12.7607 4.60301C12.6117 4.78567 12.4622 4.96886 12.3091 5.15092C12.2679 5.17738 12.2541 5.28321 12.2679 5.29644C12.3091 5.33612 12.3779 5.34932 12.4466 5.34932H12.4467C12.9417 5.36255 13.4368 5.37577 13.9319 5.34932C14.0694 5.33609 14.2345 5.25675 14.3307 5.16416C14.4711 5.02921 14.6025 4.88571 14.7333 4.74292C14.8845 4.57784 15.0349 4.41369 15.1971 4.26475C16.1461 3.39177 17.2187 2.71718 18.4427 2.25423C19.1991 1.96324 19.983 1.72518 20.7944 1.65905C21.6333 1.59291 22.4859 1.60613 23.3386 1.64581C24.6313 1.71194 25.8278 2.10876 26.9693 2.69074C28.1933 3.31241 29.2384 4.14571 30.1049 5.1774C30.1874 5.25676 30.3249 5.33612 30.4349 5.33612C30.7752 5.35595 31.1154 5.35347 31.4557 5.35098C31.5693 5.35015 31.6829 5.34932 31.7964 5.34932C31.8652 5.34932 31.9477 5.32288 31.9752 5.2832C32.0027 5.24352 31.9752 5.16415 31.9339 5.11124C30.9025 3.66952 29.651 2.46589 28.0832 1.57969ZM39.9583 7.15548C39.7141 7.1585 39.4706 7.16151 39.227 7.16151H39.2224C38.4771 7.16151 37.7177 7.16151 36.9725 7.17509C36.5992 7.17509 36.5561 7.21591 36.4986 7.5561C36.3981 8.10721 36.2976 8.66172 36.1971 9.21623C36.0966 9.77074 35.996 10.3252 35.8955 10.8764C35.8166 11.305 35.734 11.7302 35.6514 12.1555C35.5688 12.5807 35.4863 13.0059 35.4073 13.4346C35.2781 14.1966 35.1488 14.9586 35.0052 15.7207L34.9996 15.7525C34.9472 16.0481 34.945 16.0608 35.278 16.0608C35.7089 16.0608 36.1398 16.0645 36.5708 16.0682C37.5758 16.0768 38.5809 16.0854 39.586 16.0473C40.2322 16.02 40.9071 15.8976 41.4958 15.6663C42.7451 15.1764 43.578 14.251 44.0375 13.0536C44.4109 12.0602 44.5832 11.0261 44.5257 9.96467C44.497 9.4884 44.3965 9.02575 44.1524 8.60391C43.5637 7.56973 42.5872 7.21594 41.4384 7.16151C40.94 7.14335 40.4481 7.14943 39.9583 7.15548ZM39.3403 14.0463C39.2504 14.0499 39.1661 14.0533 39.0977 14.0605C39.0177 14.0605 38.9446 14.0589 38.8748 14.0573C38.7444 14.0543 38.6256 14.0517 38.4947 14.0605C38.2793 14.0741 38.1931 13.9925 38.2362 13.7884L38.2368 13.7848C38.3084 13.3369 38.38 12.8891 38.4659 12.4412C38.5451 11.997 38.6274 11.5528 38.7099 11.1073L38.71 11.1069L38.7101 11.1063L38.7102 11.1056L38.7104 11.1048C38.8072 10.5821 38.9043 10.0577 38.9973 9.52922C39.0403 9.27067 39.1696 9.1618 39.4424 9.17541C39.569 9.18246 39.6965 9.18312 39.824 9.18377C40.1883 9.18563 40.5523 9.1875 40.8927 9.33869C41.2517 9.50198 41.4815 9.74694 41.5533 10.128C41.6538 10.7131 41.5964 11.2982 41.4528 11.8697C41.3379 12.3052 41.2087 12.7406 41.0076 13.1352C40.7348 13.6795 40.2465 13.9925 39.586 14.0333C39.5047 14.0397 39.4203 14.0431 39.3403 14.0463ZM19.7783 16.0756H14.7999C14.5496 16.0756 14.4106 16.0075 14.3271 15.7762C14.0768 15.0686 13.8265 14.3747 13.5484 13.6671C13.5235 13.599 13.5009 13.5291 13.4781 13.459L13.4781 13.459L13.4781 13.459L13.4781 13.4589L13.4781 13.4589L13.4781 13.4589L13.4781 13.4589L13.4781 13.4589L13.4781 13.4589L13.4781 13.4589C13.3737 13.1369 13.2676 12.8094 12.9365 12.6194C12.7594 12.5128 12.5421 12.4844 12.3372 12.4577L12.3246 12.4561C12.2551 12.4425 12.13 12.5514 12.1021 12.6194C11.977 13.1637 11.8796 13.708 11.7823 14.2659C11.6968 14.7079 11.6221 15.1604 11.5486 15.6049L11.5486 15.605L11.5486 15.605L11.5486 15.605L11.5486 15.605L11.5486 15.605L11.5486 15.605L11.5486 15.6051L11.5486 15.6051L11.5486 15.6051L11.5181 15.7898C11.4903 15.9803 11.3929 16.062 11.1843 16.062C10.6836 16.0529 10.1766 16.0559 9.67169 16.059H9.67157H9.67145H9.67134H9.67122H9.6711H9.67098H9.67087H9.67075H9.67063C9.41878 16.0605 9.16745 16.062 8.91765 16.062C8.70906 16.062 8.63952 16.0075 8.69515 15.7762C8.79147 15.3285 8.87737 14.8706 8.96187 14.4202L9.00108 14.2114L9.46001 11.7214C9.52954 11.3268 9.59906 10.9322 9.66859 10.5239C9.75898 10.0001 9.85284 9.47621 9.9467 8.95234C10.0406 8.42848 10.1344 7.90462 10.2248 7.38075C10.2665 7.16304 10.4056 7.16303 10.5725 7.16303H14.8694H14.8695C15.4953 7.16303 16.1349 7.16303 16.7468 7.32631C17.5116 7.53042 18.04 8.1019 18.0817 8.8911C18.1513 10.2654 17.4699 11.2996 16.2044 11.8983C16.1256 11.9368 16.0424 11.9579 15.9597 11.9788L15.9597 11.9788C15.8965 11.9948 15.8336 12.0107 15.7733 12.0343C15.7177 12.0615 15.676 12.1296 15.6621 12.184C15.6621 12.2248 15.7177 12.2928 15.7594 12.3065C16.274 12.5106 16.4965 12.9732 16.6772 13.4222C16.8232 13.7873 16.9503 14.1617 17.0778 14.5372L17.0778 14.5372L17.0778 14.5372L17.0778 14.5373L17.0778 14.5373L17.0779 14.5374L17.0779 14.5374L17.0779 14.5375L17.0779 14.5375L17.0779 14.5375C17.1689 14.8057 17.2602 15.0744 17.3586 15.3408C17.3808 15.3949 17.4205 15.4318 17.4638 15.4721C17.475 15.4824 17.4863 15.493 17.4977 15.5041C17.5131 15.479 17.5322 15.4558 17.551 15.433C17.5831 15.3941 17.6141 15.3565 17.6228 15.3136L17.6282 15.2844L17.6284 15.2834C17.8351 14.1504 18.0418 13.0177 18.2486 11.8983L18.2488 11.8968C18.3878 11.1081 18.5268 10.3194 18.6519 9.53063C18.777 8.82307 18.9022 8.1155 19.0273 7.39433C19.0551 7.23105 19.1386 7.14941 19.3055 7.14941H20.0703H26.2168H26.4253C26.5922 7.14941 26.6339 7.21747 26.5922 7.38075C26.4949 7.81617 26.3975 8.25158 26.3419 8.687C26.3141 8.94554 26.2029 9.01356 25.9525 9.01356C25.2782 9.00675 24.6073 9.00676 23.9364 9.00677H23.9361C23.2652 9.00677 22.5942 9.00678 21.9198 8.99998C21.6417 8.99998 21.5165 9.0952 21.4748 9.35373C21.4539 9.5034 21.4261 9.64968 21.3983 9.79596C21.3705 9.94225 21.3427 10.0885 21.3219 10.2382C21.294 10.4287 21.4192 10.4559 21.5722 10.4559H22.7542C23.0416 10.4559 23.329 10.4574 23.6163 10.4589C24.1911 10.4619 24.7659 10.465 25.3407 10.4559C25.5771 10.4559 25.6605 10.5512 25.6327 10.7689C25.5979 10.9866 25.5597 11.2009 25.5215 11.4152C25.4832 11.6295 25.445 11.8438 25.4102 12.0615C25.3708 12.2671 25.2323 12.2664 25.0765 12.2657L25.0487 12.2656H22.045H21.2523C21.0576 12.2656 20.9464 12.3473 20.9186 12.5514C20.8629 12.946 20.7934 13.3542 20.71 13.7488C20.6683 13.9665 20.7378 14.0481 20.9603 14.0481C22.3648 14.0481 23.7554 14.0481 25.1599 14.0345C25.4519 14.0345 25.5075 14.0754 25.4658 14.3611C25.4195 14.6877 25.3608 15.0143 25.302 15.3409C25.2727 15.5041 25.2433 15.6674 25.2155 15.8306C25.1877 16.0211 25.0487 16.0347 24.9096 16.0347H23.672C22.3649 16.0756 21.0716 16.0756 19.7784 16.0756H19.7783ZM13.298 10.7825C13.3878 10.7766 13.4749 10.7783 13.5606 10.78C13.6742 10.7822 13.7851 10.7844 13.896 10.7689C14.341 10.7144 14.786 10.6192 15.0502 10.1974C15.3422 9.72115 15.2449 9.08159 14.5913 9.01356C14.049 8.95913 13.5066 8.94555 12.9643 8.95916C12.8809 8.95916 12.7279 9.09521 12.7001 9.19045C12.6417 9.45983 12.5983 9.72921 12.555 9.99859L12.5549 9.99862C12.526 10.1783 12.4971 10.3579 12.4637 10.5376C12.4359 10.7145 12.5054 10.7961 12.6862 10.7961C12.8943 10.7825 13.0887 10.7825 13.2968 10.7825H13.298ZM21.1646 23.1724C19.9637 23.0687 18.7627 22.7838 17.5891 22.3434C16.4428 21.9159 15.4057 21.2682 14.4777 20.504C13.7135 19.8822 13.0722 19.1569 12.499 18.3797C12.479 18.3512 12.4571 18.3227 12.4348 18.2935C12.3962 18.2432 12.3562 18.191 12.3216 18.1336C12.2124 17.9781 12.2534 17.8874 12.4581 17.8874C12.5668 17.8874 12.6763 17.8866 12.7863 17.8858C13.1181 17.8834 13.4538 17.881 13.7818 17.9004C13.9046 17.9004 14.0684 17.9911 14.1502 18.0817C14.8871 18.9755 15.7332 19.7398 16.7431 20.3486C17.8621 21.0351 19.063 21.4884 20.3594 21.7086C21.6558 21.9288 22.9386 21.9159 24.235 21.6698C26.3366 21.2553 28.2744 20.232 29.68 18.6905L29.7207 18.645C29.9394 18.4 30.1623 18.1504 30.4578 18.004C30.9218 17.7838 31.4677 17.8615 31.9862 17.9522C30.7171 19.9211 28.7929 21.4885 26.5549 22.3822C24.7809 23.0817 22.9659 23.3278 21.1646 23.1724ZM79.2498 9.34991H80.3683H81.4447C81.8082 9.34991 81.8501 9.29547 81.906 8.94154C81.9759 8.45175 82.0737 7.96199 82.1715 7.4722L82.1715 7.472L82.1716 7.4714C82.2275 7.21276 82.1856 7.1583 81.92 7.1583C81.2489 7.1583 80.5786 7.15745 79.9088 7.1566H79.9087H79.9086H79.9086H79.9085H79.9084H79.9084H79.9083H79.9082C77.8994 7.15405 75.8944 7.1515 73.8816 7.17192C73.7926 7.17192 73.7051 7.17345 73.6182 7.17497L73.6181 7.17497C73.4457 7.17799 73.2753 7.18097 73.0987 7.17192C72.5994 7.14275 72.1001 7.1483 71.6008 7.15385C71.4011 7.15608 71.2014 7.1583 71.0018 7.1583C70.834 7.1583 70.7362 7.22635 70.7082 7.40331C70.6553 7.71956 70.5984 8.03185 70.5417 8.34231L70.5417 8.34278L70.5416 8.34319C70.4935 8.60706 70.4456 8.8696 70.4006 9.13214C70.3237 9.54065 70.2503 9.94575 70.1769 10.3509L70.1769 10.351L70.1768 10.3512L70.1768 10.3514L70.1767 10.3517L70.1767 10.3519L70.1766 10.3521L70.1766 10.3523L70.1765 10.3525C70.1033 10.7568 70.03 11.1611 69.9533 11.5688C69.9433 11.6174 69.9047 11.6731 69.8682 11.7257C69.8536 11.7467 69.8394 11.7672 69.8275 11.7866C69.7997 11.7685 69.7704 11.7535 69.7421 11.739C69.6849 11.7096 69.6318 11.6824 69.6038 11.6369C68.8768 10.2484 68.1499 8.85987 67.4369 7.45777C67.3251 7.25359 67.1993 7.1583 66.9476 7.1583C66.3046 7.17191 65.6615 7.17191 65.0184 7.1583C64.7388 7.1583 64.613 7.25357 64.571 7.52582C64.4622 8.18843 64.3415 8.84531 64.2206 9.50389L64.2205 9.50398L64.2205 9.50406C64.1551 9.86018 64.0896 10.2168 64.0259 10.5751C63.942 11.0515 63.8546 11.5246 63.7672 11.9976C63.6798 12.4706 63.5924 12.9437 63.5086 13.4201L63.4548 13.7242C63.3327 14.4152 63.2093 15.114 63.0752 15.8023C63.0472 15.9793 63.0892 16.0745 63.2849 16.0745H63.2895C64.015 16.0745 64.7543 16.0745 65.4797 16.0609C65.5636 16.0609 65.6894 15.9656 65.7034 15.8976C65.803 15.3678 65.8984 14.8381 65.9942 14.3062C66.0732 13.8676 66.1525 13.4274 66.2346 12.9845L66.2667 12.802L66.2668 12.8015C66.3402 12.3832 66.4149 11.9572 66.5003 11.5416C66.509 11.5075 66.545 11.4735 66.5811 11.4395C66.6027 11.4191 66.6243 11.3986 66.6401 11.3782C66.6536 11.3913 66.6699 11.4045 66.6869 11.4181L66.6869 11.4181C66.7227 11.4467 66.7609 11.4774 66.7799 11.5143C66.88 11.7013 66.9752 11.8931 67.0714 12.0868L67.072 12.088C67.1366 12.2184 67.2018 12.3496 67.2691 12.4808C67.5558 13.0458 67.8494 13.6074 68.143 14.169L68.1438 14.1705C68.4371 14.7315 68.7303 15.2924 69.0166 15.8567C69.1005 16.0201 69.1984 16.0745 69.3801 16.0745C70.0791 16.0609 70.7781 16.0609 71.4771 16.0745C71.7427 16.0881 71.8266 15.9656 71.8545 15.7342C71.9244 15.2172 72.0222 14.7003 72.12 14.1833L72.12 14.183L72.1201 14.1824C72.183 13.8081 72.2529 13.4372 72.3228 13.0663C72.3927 12.6953 72.4626 12.3243 72.5256 11.9499L72.5945 11.5659C72.725 10.8398 72.854 10.1221 72.9729 9.40437C73.0009 9.26824 73.0848 9.24101 73.2246 9.26823C73.4203 9.30907 73.63 9.34991 73.8397 9.34991H75.8248C76.0345 9.34991 76.1184 9.4452 76.0764 9.64938L76.0764 9.6495L76.0764 9.64961L76.0764 9.64972L76.0764 9.64983L76.0763 9.64994L76.0763 9.65005L76.0763 9.65016L76.0763 9.65028L76.0762 9.65039C75.9784 10.0857 75.8806 10.521 75.7968 10.9562C75.684 11.5936 75.5752 12.2349 75.466 12.878L75.4655 12.8814C75.372 13.4322 75.2784 13.9842 75.1817 14.5363C75.1177 14.9351 75.0303 15.3111 74.9409 15.6956L74.9161 15.8023C74.8742 16.0065 74.9441 16.0745 75.1398 16.0745H77.4464C77.6282 16.0745 77.726 16.0065 77.754 15.8295C77.8519 15.217 77.9637 14.5908 78.0755 13.9782C78.1689 13.471 78.264 12.9655 78.359 12.4605C78.5343 11.5288 78.7092 10.5988 78.8724 9.66301C78.9143 9.41798 79.0122 9.34991 79.2498 9.34991ZM32.6583 16.0619C32.5431 16.0619 32.4294 16.0604 32.3163 16.0589H32.3162H32.3162H32.3162H32.3162H32.3162H32.3162H32.3161C32.0914 16.0558 31.8686 16.0529 31.6398 16.0619C31.4609 16.0619 31.3508 16.0074 31.2682 15.8439C31.0824 15.4759 30.8932 15.1079 30.7039 14.74C30.5147 14.372 30.3254 14.0041 30.1397 13.6362C29.9803 13.3267 29.8265 13.0173 29.6732 12.7091L29.6732 12.709L29.6731 12.7088C29.4822 12.3248 29.2922 11.9427 29.0937 11.5648C29.0662 11.5103 28.9698 11.4421 28.901 11.4421C28.8597 11.4421 28.7771 11.5375 28.7634 11.6057L28.3505 13.9769L28.3086 14.2211C28.2123 14.783 28.1146 15.3527 28.0064 15.912C27.9927 15.9802 27.8825 16.0619 27.8137 16.0619C27.0705 16.0755 26.3411 16.0755 25.5979 16.0619C25.4328 16.0619 25.3915 15.9665 25.419 15.8166C25.4672 15.5714 25.5084 15.3262 25.5497 15.0809L25.5497 15.0807L25.5498 15.0805C25.5911 14.8353 25.6323 14.5901 25.6805 14.3449C25.8319 13.4999 25.9833 12.6686 26.1346 11.8374L26.1376 11.8214L26.1378 11.8205C26.3019 10.9403 26.466 10.06 26.6301 9.16629C26.7137 8.69366 26.7869 8.22102 26.8587 7.75727L26.8587 7.75715L26.8916 7.54459L26.8916 7.54454C26.9261 7.35337 26.9433 7.25799 27.0004 7.2104C27.0572 7.16301 27.1535 7.16301 27.3458 7.16301H29.3001C29.4653 7.16301 29.5754 7.19029 29.6579 7.35382C30.3736 8.78473 31.1031 10.2156 31.8463 11.6329C31.8738 11.6783 31.9258 11.7116 31.9778 11.745C32.0038 11.7616 32.0298 11.7783 32.0527 11.7964C32.0707 11.7698 32.0916 11.7445 32.112 11.7198L32.1121 11.7198C32.1543 11.6687 32.1948 11.6199 32.2041 11.5648C32.2867 11.1287 32.3658 10.6926 32.4449 10.2565C32.5241 9.82042 32.6032 9.38433 32.6858 8.94824C32.7821 8.44402 32.8647 7.92617 32.9335 7.42194C32.961 7.2039 33.0574 7.14941 33.2639 7.14941H35.3007C35.576 7.14941 35.6035 7.2039 35.5485 7.46283C35.4177 8.19191 35.2904 8.921 35.1631 9.6501C35.0358 10.3792 34.9085 11.1083 34.7777 11.8374C34.6263 12.655 34.475 13.4727 34.3236 14.304C34.2961 14.4674 34.267 14.6309 34.238 14.7944V14.7944V14.7944V14.7945V14.7945C34.1799 15.1216 34.1217 15.4487 34.0759 15.7757C34.0483 16.0074 33.9382 16.0756 33.718 16.0756C33.4489 16.0551 33.1799 16.0577 32.9166 16.0602C32.8298 16.0611 32.7436 16.0619 32.6583 16.0619ZM94.3484 7.15384C94.13 7.15608 93.9108 7.15832 93.6905 7.15832H93.6852C92.8395 7.15832 91.9805 7.15832 91.1216 7.17191C90.9362 7.17191 90.8303 7.22638 90.817 7.44421C90.8093 7.56371 90.7834 7.67854 90.7579 7.79144L90.7579 7.79163C90.7399 7.8716 90.7221 7.9506 90.7111 8.0296C90.625 8.55375 90.5356 9.07789 90.4463 9.60203C90.3569 10.1262 90.2675 10.6503 90.1814 11.1745C89.996 12.3317 89.8107 13.4753 89.612 14.6325C89.5458 15.0137 89.4664 15.4085 89.3869 15.7897C89.334 16.0211 89.3605 16.0756 89.612 16.0756C89.8509 16.0756 90.0883 16.074 90.3251 16.0725C90.7974 16.0695 91.2677 16.0665 91.7439 16.0756C91.969 16.0756 92.075 15.9802 92.1015 15.7624C92.1677 15.2723 92.2471 14.7822 92.3266 14.2921C92.4193 13.7339 92.512 13.1757 92.6311 12.6176C92.6444 12.5495 92.7636 12.4678 92.843 12.4542C93.3065 12.3861 93.664 12.6856 93.8361 13.1757C93.9884 13.6181 94.1472 14.0604 94.3061 14.5027L94.3061 14.5028L94.3061 14.5029L94.3061 14.5029L94.3062 14.503L94.3062 14.5031L94.3062 14.5031L94.3062 14.5032L94.3063 14.5033L94.3063 14.5033L94.3063 14.5034L94.3063 14.5035L94.3064 14.5035C94.4652 14.9459 94.6241 15.3882 94.7763 15.8305C94.8425 16.0075 94.9352 16.0619 95.1073 16.0619H97.4114C97.8881 16.0619 97.9013 16.0347 97.7027 15.5855L97.663 15.4629C97.5879 15.24 97.5155 15.0171 97.4432 14.7946L97.4431 14.7942L97.443 14.7938L97.4429 14.7935L97.4427 14.7931L97.4425 14.7925C97.2855 14.3091 97.1291 13.8277 96.948 13.3527C96.7758 12.9171 96.5771 12.4814 96.0872 12.3045C95.9548 12.25 95.9548 12.1002 96.1005 12.0322C96.1674 11.9939 96.2427 11.9729 96.317 11.9521C96.375 11.9359 96.4323 11.9199 96.4845 11.896C97.716 11.3514 98.3913 10.2487 98.3251 8.87367C98.2853 8.2202 97.8351 7.55311 97.2525 7.38974C96.8288 7.28083 96.3918 7.18552 95.968 7.17191C95.4298 7.14278 94.8915 7.14829 94.3484 7.15384ZM94.4717 10.7388C94.2334 10.766 93.9818 10.7661 93.7434 10.7661H93.7423C93.5573 10.7661 93.3723 10.7661 93.1873 10.7796C93.0284 10.7796 92.949 10.7116 92.9754 10.5482C92.9945 10.4338 93.0128 10.3194 93.0311 10.2052L93.0311 10.205C93.089 9.84359 93.1466 9.48404 93.227 9.13235C93.2403 9.05066 93.3991 8.94177 93.4786 8.94177L93.4893 8.94204C94.0288 8.95556 94.5813 8.96941 95.1206 9.03704C95.4649 9.07788 95.6503 9.47271 95.5708 9.82668C95.4516 10.4393 95.0014 10.6571 94.4717 10.7388ZM48.8245 12.4587H47.6037C47.4117 12.4587 47.2883 12.527 47.2608 12.7317C47.2265 12.9296 47.1888 13.1275 47.1511 13.3255L47.151 13.3261C47.1133 13.5238 47.0756 13.7214 47.0414 13.9191C47.0068 14.1212 46.9709 14.3233 46.9348 14.5258L46.9348 14.5258L46.9348 14.5259L46.9348 14.5259L46.9348 14.526L46.9348 14.526C46.8565 14.9662 46.7779 15.4085 46.7121 15.8572C46.6847 16.021 46.6161 16.0756 46.4652 16.0756H44.1746C43.9688 16.0756 43.914 15.98 43.9551 15.8026C44.0419 15.3252 44.1303 14.8479 44.2186 14.3705L44.2186 14.3704L44.2186 14.3704L44.2186 14.3703L44.2186 14.3702L44.2186 14.3701C44.3955 13.4145 44.5723 12.4589 44.7369 11.5033C44.8398 10.9028 44.9427 10.3057 45.0456 9.70852C45.1484 9.1114 45.2513 8.51427 45.3542 7.91373C45.364 7.86482 45.3731 7.81591 45.3821 7.76719V7.76716C45.4108 7.61194 45.4392 7.45861 45.4914 7.31319C45.5188 7.24495 45.6285 7.16303 45.6971 7.16303C46.4774 7.14941 47.2713 7.14941 48.0652 7.14941H48.0701C48.2347 7.14941 48.2895 7.23128 48.2621 7.38142L48.2006 7.70996C48.07 8.40871 47.938 9.11488 47.7958 9.81086C47.7135 10.193 47.7546 10.2613 48.1387 10.2613H50.4568C50.786 10.2613 50.8271 10.193 50.882 9.86547C50.9369 9.48331 50.9917 9.11479 51.0603 8.74627C51.1051 8.49355 51.154 8.24488 51.2026 7.99804C51.2431 7.79164 51.2835 7.58653 51.3209 7.38142C51.3484 7.20399 51.4444 7.14941 51.609 7.14941H53.8448C54.0643 7.14941 54.1328 7.21766 54.0917 7.44968L54.0914 7.451C53.8858 8.54245 53.6801 9.63389 53.4882 10.7253C53.4378 11.0166 53.3891 11.3078 53.3403 11.5991C53.2428 12.1813 53.1452 12.7636 53.0355 13.3458L53.0353 13.3473C52.8845 14.193 52.7337 15.0388 52.5692 15.8845C52.5554 15.9527 52.4183 16.0619 52.3497 16.0619C51.5694 16.0756 50.789 16.0756 50.0087 16.0756H50.0042C49.8533 16.0756 49.7847 16.021 49.8121 15.8572C49.9012 15.3934 49.9835 14.9262 50.0657 14.459L50.0658 14.4583V14.4583C50.1481 13.9908 50.2304 13.5233 50.3196 13.0592C50.4293 12.4996 50.4156 12.4724 49.8532 12.4724C49.4829 12.4724 49.1537 12.4723 48.8245 12.4587ZM57.8048 16.0732C57.0803 16.0598 56.3696 15.9264 55.6998 15.7263C54.8524 15.4595 54.374 14.806 54.1826 13.9523C54.005 13.1253 54.1553 12.3249 54.3193 11.5246C54.3767 11.2605 54.4194 10.9963 54.4621 10.7322C54.4905 10.5562 54.5189 10.3801 54.5517 10.204C54.6474 9.67048 54.7431 9.15026 54.8524 8.6167C54.8865 8.41703 54.924 8.21403 54.9615 8.01103L54.9616 8.0108L54.9616 8.01061L54.9618 8.00978L54.9619 8.00895L54.9619 8.00878L54.962 8.00853C54.9995 7.80553 55.037 7.60253 55.0711 7.40286C55.0984 7.22945 55.1668 7.14941 55.3445 7.14941H57.5724C57.7774 7.14941 57.8458 7.2161 57.8048 7.42952C57.5997 8.52331 57.3947 9.63046 57.1897 10.7376C57.0667 11.4045 56.9436 12.0848 56.848 12.7518C56.7386 13.5654 57.4904 14.1657 58.3925 14.0189C59.3083 13.8856 59.8413 13.2987 60.019 12.3249C60.1283 11.6847 60.2445 11.0478 60.3607 10.4109L60.3607 10.4109L60.3607 10.4108L60.3607 10.4108C60.4769 9.77386 60.5931 9.13693 60.7024 8.49666C60.7195 8.39996 60.7357 8.30325 60.752 8.20655C60.8007 7.91641 60.8494 7.62627 60.9211 7.33614C60.9348 7.26944 61.0441 7.16277 61.1125 7.16277C61.8915 7.14943 62.6843 7.14941 63.4771 7.14941C63.6684 7.14941 63.6821 7.25613 63.6548 7.40286C63.5382 8.00586 63.4315 8.60886 63.3264 9.20358L63.2721 9.51039C63.2109 9.86309 63.1452 10.2136 63.0796 10.5637L63.0795 10.5641C62.9839 11.0744 62.8884 11.5839 62.8073 12.0981C62.5886 13.4054 62.0282 14.4858 60.9074 15.2728C60.4837 15.5796 59.978 15.7797 59.4586 15.8997C58.9255 16.0465 58.3788 16.0865 57.8048 16.0732ZM81.3993 16.0483H84.7381C84.8343 16.0483 84.9304 16.0483 85.0128 16.0756C85.3642 16.0756 85.7171 16.0741 86.0711 16.0725H86.0715H86.0718C86.7832 16.0695 87.4987 16.0665 88.2142 16.0756C88.4478 16.0756 88.5577 16.0075 88.5989 15.7626C88.6333 15.5313 88.6745 15.3033 88.7157 15.0754C88.7569 14.8475 88.7982 14.6196 88.8325 14.3883C88.8737 14.0889 88.8188 14.0617 88.5302 14.0617H84.3808C84.1335 14.0617 84.0923 13.9937 84.1335 13.7487C84.2022 13.395 84.2709 13.0412 84.3259 12.6874C84.3808 12.2928 84.3808 12.2928 84.7792 12.2928H84.7793C85.1833 12.2928 85.5859 12.2913 85.9874 12.2898C86.7873 12.2868 87.5832 12.2838 88.3791 12.2928C88.6402 12.2928 88.7776 12.1976 88.805 11.939C88.8229 11.7713 88.8523 11.6093 88.882 11.4456L88.882 11.4455C88.8981 11.3569 88.9142 11.2678 88.9287 11.1771L88.9288 11.1764L88.9288 11.1762L88.9288 11.1761C88.9563 11.0131 88.9837 10.8501 88.9974 10.6872C89.0112 10.5375 88.9424 10.4695 88.7638 10.4695H86.7029H85.0128C84.8617 10.4695 84.6969 10.4559 84.7381 10.2382C84.7655 10.1021 84.7896 9.96269 84.8136 9.82325C84.8377 9.68374 84.8617 9.54423 84.8892 9.40813C84.9579 9.06796 85.0128 9.02714 85.3563 9.02714C85.8001 9.02714 86.2453 9.02563 86.6911 9.02412C87.5842 9.02109 88.4794 9.01806 89.3684 9.02714C89.602 9.02714 89.6844 8.94552 89.7119 8.7142C89.7668 8.30599 89.8355 7.91139 89.918 7.51679C90.0004 7.16301 90.0004 7.14941 89.6294 7.14941H85.796H82.8557C82.6634 7.14941 82.5397 7.19021 82.4985 7.42153C82.3199 8.49623 82.1276 9.57094 81.9353 10.6456L81.9352 10.6459L81.9352 10.6461L81.9351 10.6464L81.9346 10.6493C81.7562 11.6144 81.5777 12.5795 81.413 13.5446L81.0421 15.6265L81.035 15.6626C80.9984 15.8487 80.9795 15.945 81.0191 15.9948C81.0616 16.0483 81.1715 16.0483 81.3993 16.0483ZM5.585 7.14941H9.52721C9.87794 7.14941 9.90602 7.17664 9.8499 7.50371C9.75169 8.00793 9.65347 8.52578 9.5693 9.03001C9.52721 9.26168 9.42899 9.35709 9.16244 9.34346C8.5946 9.32303 8.03465 9.32556 7.47077 9.32811C7.28235 9.32896 7.09349 9.32982 6.90375 9.32982C6.67928 9.32982 6.58106 9.42524 6.53898 9.65691C6.39389 10.5119 6.23548 11.3734 6.07752 12.2324C6.00637 12.6193 5.93531 13.0058 5.8656 13.3909L5.86517 13.3933C5.72502 14.1829 5.58488 14.9725 5.45874 15.7621C5.43068 15.9801 5.34651 16.0756 5.10801 16.0756C4.62115 16.0665 4.12803 16.0695 3.637 16.0725C3.39227 16.0741 3.14807 16.0756 2.90541 16.0756C2.6108 16.0756 2.58273 16.0483 2.63885 15.7621C2.75109 15.142 2.86682 14.5254 2.98256 13.9087L2.98257 13.9087C3.0983 13.2921 3.21404 12.6754 3.32627 12.0554L3.74717 9.64327C3.78926 9.37072 3.62089 9.3571 3.42448 9.3571H1.1658C0.927302 9.3571 0.871166 9.28896 0.927283 9.05729C1.03952 8.53943 1.15174 8.00796 1.22189 7.49011C1.24994 7.21755 1.36222 7.16301 1.61474 7.16301C2.91678 7.14941 4.24674 7.14941 5.57678 7.14941H5.585Z"
              fill="#6C7297"/>
    </g>
    <defs>
        <clipPath id="clip0_3744_43884">
            <rect width="98.2724" height="23.2942" fill="white" transform="translate(0.735352 0.00878906)"/>
        </clipPath>
    </defs>
</svg>
