<svg width="48" height="48" viewBox="0 0 48 48" fill="none" xmlns="http://www.w3.org/2000/svg">
<g clip-path="url(#clip0_1632_81919)">
<path opacity="0.25" fill-rule="evenodd" clip-rule="evenodd" d="M23.9999 47.9999C37.2547 47.9999 47.9999 37.2549 47.9999 23.9999C47.9999 10.7452 37.2547 0 23.9999 0C10.7452 0 0 10.7452 0 23.9999C0 37.2549 10.7452 47.9999 23.9999 47.9999Z" fill="#151D51"/>
<path fill-rule="evenodd" clip-rule="evenodd" d="M29.0273 18.0435C29.0228 15.3611 26.8589 13.1992 24.2116 13.2008C21.5847 13.2024 19.4245 15.3715 19.4273 18.072V18.0721C19.4298 20.6828 21.5493 22.798 24.2263 22.8008C26.9035 22.8036 29.0313 20.6779 29.0273 18.0436M24.2102 10.8008C28.1963 10.7984 31.4207 14.0471 31.4273 18.0396V18.0398C31.4334 22.0194 28.2115 25.205 24.2238 25.2008C20.2501 25.1966 17.0311 22.0355 17.0273 18.0745M24.2102 10.8008C20.228 10.8032 17.0232 14.0777 17.0273 18.0743L24.2102 10.8008Z" fill="white"/>
<path fill-rule="evenodd" clip-rule="evenodd" d="M13.7239 32.8395C15.0185 28.0747 19.1971 24.5156 24.2289 24.5156C29.2612 24.5156 33.4399 28.0747 34.7344 32.8395C35.3165 34.9814 33.7526 37.2013 31.5037 37.2013H16.9546C14.7057 37.2013 13.1419 34.9814 13.7239 32.8395M24.2289 26.9156C20.3873 26.9156 17.0796 29.6423 16.0399 33.4688L16.0399 33.4688C15.8449 34.1865 16.3914 34.8013 16.9546 34.8013H31.5037C32.067 34.8013 32.6134 34.1865 32.4184 33.4688L32.4184 33.4688C31.3788 29.6423 28.0711 26.9156 24.2289 26.9156Z" fill="white"/>
</g>
<defs>
<clipPath id="clip0_1632_81919">
<rect width="48" height="48" fill="white"/>
</clipPath>
</defs>
</svg>
