<svg width="48" height="48" viewBox="0 0 48 48" fill="none" xmlns="http://www.w3.org/2000/svg">
    <g clip-path="url(#clip0_1632_82289)">
        <path opacity="0.25" fill-rule="evenodd" clip-rule="evenodd"
              d="M23.9999 47.9999C37.2547 47.9999 47.9999 37.2549 47.9999 23.9999C47.9999 10.7452 37.2547 0 23.9999 0C10.7452 0 0 10.7452 0 23.9999C0 37.2549 10.7452 47.9999 23.9999 47.9999Z"
              fill="#151D51"/>
        <path d="M30.6875 19.8691H29.9375V16.8691C29.9375 13.5601 27.2465 10.8691 23.9375 10.8691C20.6285 10.8691 17.9375 13.5601 17.9375 16.8691V19.8691H17.1875C15.9475 19.8691 14.9375 20.8781 14.9375 22.1191V32.6191C14.9375 33.8601 15.9475 34.8691 17.1875 34.8691H30.6875C31.9275 34.8691 32.9375 33.8601 32.9375 32.6191V22.1191C32.9375 20.8781 31.9275 19.8691 30.6875 19.8691ZM19.9375 16.8691C19.9375 14.6631 21.7315 12.8691 23.9375 12.8691C26.1435 12.8691 27.9375 14.6631 27.9375 16.8691V19.8691H19.9375V16.8691ZM24.9375 27.5911V29.8691C24.9375 30.4211 24.4905 30.8691 23.9375 30.8691C23.3845 30.8691 22.9375 30.4211 22.9375 29.8691V27.5911C22.3425 27.2441 21.9375 26.6061 21.9375 25.8691C21.9375 24.7661 22.8345 23.8691 23.9375 23.8691C25.0405 23.8691 25.9375 24.7661 25.9375 25.8691C25.9375 26.6061 25.5325 27.2441 24.9375 27.5911Z"
              fill="white"/>
    </g>
    <defs>
        <clipPath id="clip0_1632_82289">
            <rect width="48" height="48" fill="white"/>
        </clipPath>
    </defs>
</svg>
