<svg width="15" height="15" viewBox="0 0 15 15" fill="none" xmlns="http://www.w3.org/2000/svg">
    <g clip-path="url(#clip0_3744_43786)">
        <path d="M8.96158 14.6755C9.42968 14.6755 9.83789 14.2673 9.83789 13.7992V11.7527H10.423C10.7741 11.7527 11.0081 11.5186 11.0081 11.1675V5.32227H3.99219V11.1676C3.99219 11.5187 4.22624 11.7527 4.57731 11.7527H5.16249V13.7993C5.16249 14.2674 5.5706 14.6756 6.0388 14.6756C6.50685 14.6756 6.91501 14.2674 6.91501 13.7993V11.7527H8.08531V13.7993C8.08527 14.2673 8.49348 14.6755 8.96158 14.6755Z"
              fill="#151D51"/>
        <path d="M12.4662 11.1676C12.9343 11.1676 13.3424 10.7594 13.3424 10.2913V6.1982C13.3424 5.73258 12.9343 5.32227 12.4662 5.32227C11.998 5.32227 11.5898 5.73258 11.5898 6.1982V10.2913C11.5898 10.7594 11.998 11.1676 12.4662 11.1676Z"
              fill="#151D51"/>
        <path d="M2.52856 11.1676C2.99671 11.1676 3.40487 10.7594 3.40487 10.2913V6.1982C3.40487 5.73258 2.99676 5.32227 2.52856 5.32227C2.06046 5.32227 1.65234 5.73258 1.65234 6.1982V10.2913C1.65234 10.7594 2.06046 11.1676 2.52856 11.1676Z"
              fill="#151D51"/>
        <path d="M10.3059 0.764076C10.189 0.64635 10.0148 0.64635 9.89783 0.764076L9.11303 1.54625L9.07683 1.58241C8.61148 1.34939 8.08975 1.23302 7.50874 1.2319C7.50589 1.2319 7.50308 1.2318 7.50023 1.2318H7.50014C7.4972 1.2318 7.49449 1.2319 7.49154 1.2319C6.91058 1.23302 6.38885 1.34939 5.92355 1.58241L5.88725 1.54625L5.1025 0.764076C4.98543 0.64635 4.81136 0.64635 4.69439 0.764076C4.57731 0.881148 4.57731 1.05489 4.69439 1.17187L5.45353 1.93115C5.20892 2.09447 4.98711 2.29433 4.79422 2.52291C4.33242 3.07029 4.03788 3.78267 3.99737 4.55453C3.997 4.56256 3.99621 4.5705 3.99583 4.57854C3.99336 4.63109 3.99219 4.68393 3.99219 4.73695H11.0081C11.0081 4.68393 11.0069 4.63109 11.0045 4.57854C11.0041 4.5705 11.0033 4.56256 11.0029 4.55453C10.9625 3.78267 10.6678 3.07024 10.206 2.52296C10.0132 2.29437 9.79131 2.09452 9.5467 1.9312L10.3059 1.17191C10.423 1.05489 10.423 0.881148 10.3059 0.764076ZM6.03768 3.71531C5.79559 3.71531 5.59933 3.51905 5.59933 3.27696C5.59933 3.03488 5.79559 2.83862 6.03768 2.83862C6.27976 2.83862 6.47602 3.03488 6.47602 3.27696C6.47602 3.51905 6.27976 3.71531 6.03768 3.71531ZM8.96265 3.71531C8.72057 3.71531 8.52431 3.51905 8.52431 3.27696C8.52431 3.03488 8.72057 2.83862 8.96265 2.83862C9.20474 2.83862 9.40099 3.03488 9.40099 3.27696C9.40099 3.51905 9.20474 3.71531 8.96265 3.71531Z"
              fill="#151D51"/>
    </g>
    <defs>
        <clipPath id="clip0_3744_43786">
            <rect width="14" height="14" fill="white" transform="translate(0.5 0.675781)"/>
        </clipPath>
    </defs>
</svg>
