<svg width="15" height="15" viewBox="0 0 15 15" fill="none" xmlns="http://www.w3.org/2000/svg">
    <g clip-path="url(#clip0_3744_43794)">
        <path fill-rule="evenodd" clip-rule="evenodd"
              d="M1.1087 2.38867C0.772546 2.38867 0.5 2.65698 0.5 2.98798V11.3784C0.5 11.7094 0.772546 11.9777 1.1087 11.9777H5.36957V13.5153H4.76087C4.42472 13.5153 4.15217 13.7836 4.15217 14.1146C4.15217 14.4456 4.42472 14.7139 4.76087 14.7139H10.2391C10.5753 14.7139 10.8478 14.4456 10.8478 14.1146C10.8478 13.7836 10.5753 13.5153 10.2391 13.5153H9.63043V11.9777H13.8913C14.2275 11.9777 14.5 11.7094 14.5 11.3784V2.98798C14.5 2.65698 14.2275 2.38867 13.8913 2.38867H1.1087Z"
              fill="#151D51"/>
    </g>
    <defs>
        <clipPath id="clip0_3744_43794">
            <rect width="14" height="14" fill="white" transform="translate(0.5 0.675781)"/>
        </clipPath>
    </defs>
</svg>
