<svg width="15" height="15" viewBox="0 0 15 15" fill="none" xmlns="http://www.w3.org/2000/svg">
    <g clip-path="url(#clip0_3744_43779)">
        <path d="M10.1918 0.675781C10.2243 0.675781 10.2569 0.675781 10.2914 0.675781C10.3713 1.66309 9.99443 2.40081 9.53643 2.93504C9.08704 3.46558 8.47166 3.98013 7.47636 3.90206C7.40996 2.92889 7.78743 2.24589 8.24481 1.71289C8.669 1.21616 9.44667 0.774143 10.1918 0.675781Z"
              fill="#151D51"/>
        <path d="M13.2067 10.9512C13.2067 10.961 13.2067 10.9696 13.2067 10.9789C12.9269 11.826 12.528 12.552 12.0411 13.2258C11.5966 13.8375 11.0519 14.6607 10.0794 14.6607C9.23898 14.6607 8.68077 14.1203 7.81949 14.1055C6.90841 14.0908 6.40738 14.5574 5.57438 14.6748C5.47909 14.6748 5.3838 14.6748 5.29036 14.6748C4.67867 14.5863 4.18501 14.1019 3.82538 13.6654C2.76491 12.3756 1.94543 10.7096 1.79297 8.57759C1.79297 8.36857 1.79297 8.16017 1.79297 7.95115C1.85752 6.42531 2.59892 5.18471 3.58439 4.58347C4.10448 4.2638 4.81945 3.99146 5.61557 4.11318C5.95676 4.16605 6.30533 4.28286 6.61087 4.39843C6.90042 4.5097 7.26252 4.70704 7.60555 4.69659C7.83793 4.68983 8.06909 4.56872 8.30331 4.48327C8.98939 4.23552 9.66194 3.9515 10.5484 4.0849C11.6138 4.24597 12.37 4.71934 12.8372 5.44968C11.9359 6.02325 11.2234 6.88761 11.3452 8.36365C11.4534 9.70445 12.2329 10.4889 13.2067 10.9512Z"
              fill="#151D51"/>
    </g>
    <defs>
        <clipPath id="clip0_3744_43779">
            <rect width="14" height="14" fill="white" transform="translate(0.5 0.675781)"/>
        </clipPath>
    </defs>
</svg>
